<svg width="24" height="24" viewBox="0 0 24 24" fill="none" xmlns="http://www.w3.org/2000/svg">
<path d="M16.2629 6.52975H14.3244V5.85352C14.3239 5.6273 14.2421 5.41048 14.0967 5.25052C13.9514 5.09055 13.7544 5.00047 13.5488 5H10.452C10.2463 5.00028 10.0491 5.09027 9.90364 5.25025C9.75815 5.41024 9.67621 5.62717 9.67578 5.85352V6.52975H7.73728C7.54181 6.52999 7.3544 6.61556 7.21618 6.76768C7.07796 6.9198 7.00022 7.12606 7 7.34119V8.21823C7.00025 8.43335 7.07801 8.63958 7.21622 8.7917C7.35443 8.94381 7.54182 9.02939 7.73728 9.02967H7.74694V17.8705C7.74723 18.1699 7.85542 18.457 8.04779 18.6688C8.24016 18.8805 8.50099 18.9996 8.77306 19H15.2271C15.4991 18.9996 15.76 18.8805 15.9523 18.6688C16.1447 18.457 16.2529 18.1699 16.2532 17.8705V9.02967H16.2629C16.4583 9.02939 16.6457 8.94381 16.7839 8.79169C16.9221 8.63957 16.9998 8.43334 17 8.21823V7.34119C16.9998 7.12607 16.9221 6.91982 16.7839 6.76769C16.6457 6.61556 16.4583 6.52999 16.2629 6.52975ZM10.152 5.85352C10.1522 5.76611 10.1839 5.68236 10.2402 5.62062C10.2964 5.55888 10.3725 5.52417 10.452 5.52409H13.5482C13.6275 5.52437 13.7035 5.55917 13.7595 5.62089C13.8156 5.68261 13.8472 5.76624 13.8475 5.85352V6.52975H10.152V5.85352ZM15.777 17.8705C15.7769 18.031 15.7189 18.1849 15.6158 18.2984C15.5127 18.4119 15.3729 18.4757 15.2271 18.4759H8.77306C8.62724 18.4757 8.48745 18.4119 8.38435 18.2984C8.28125 18.1849 8.22327 18.031 8.22313 17.8705V9.02967H15.777V17.8705ZM16.5238 8.21823C16.5238 8.2944 16.4963 8.36744 16.4473 8.42132C16.3984 8.47519 16.3321 8.5055 16.2629 8.50558H7.73728C7.66806 8.5055 7.60169 8.4752 7.55274 8.42133C7.50379 8.36745 7.47626 8.29441 7.47619 8.21823V7.34119C7.47626 7.26501 7.50379 7.19197 7.55274 7.13809C7.60169 7.08422 7.66806 7.05392 7.73728 7.05384H16.2629C16.3321 7.05392 16.3984 7.08423 16.4473 7.1381C16.4963 7.19198 16.5238 7.26502 16.5238 7.34119V8.21823Z" fill="#E30000"/>
<path d="M12.0001 16.7228C12.0313 16.7228 12.0623 16.7161 12.0912 16.7029C12.1201 16.6897 12.1463 16.6704 12.1685 16.6461C12.1906 16.6218 12.2081 16.5929 12.2201 16.5611C12.232 16.5293 12.2382 16.4952 12.2382 16.4608V11.0452C12.2382 10.9758 12.2131 10.9091 12.1684 10.86C12.1238 10.8108 12.0632 10.7832 12.0001 10.7832C11.9369 10.7832 11.8764 10.8108 11.8317 10.86C11.787 10.9091 11.762 10.9758 11.762 11.0452V16.4608C11.762 16.5303 11.787 16.5969 11.8317 16.6461C11.8764 16.6952 11.9369 16.7228 12.0001 16.7228Z" fill="#E30000"/>
<path d="M14.0862 16.7228C14.1494 16.7228 14.2099 16.6952 14.2546 16.6461C14.2992 16.5969 14.3243 16.5303 14.3243 16.4608V11.0452C14.3243 10.9758 14.2992 10.9091 14.2546 10.86C14.2099 10.8108 14.1494 10.7832 14.0862 10.7832C14.0231 10.7832 13.9625 10.8108 13.9179 10.86C13.8732 10.9091 13.8481 10.9758 13.8481 11.0452V16.4608C13.8481 16.5303 13.8732 16.5969 13.9179 16.6461C13.9625 16.6952 14.0231 16.7228 14.0862 16.7228Z" fill="#E30000"/>
<path d="M9.91388 16.7228C9.97702 16.7228 10.0376 16.6952 10.0822 16.6461C10.1269 16.5969 10.152 16.5303 10.152 16.4608V11.0452C10.152 10.9758 10.1269 10.9091 10.0822 10.86C10.0376 10.8108 9.97702 10.7832 9.91388 10.7832C9.85073 10.7832 9.79017 10.8108 9.74552 10.86C9.70087 10.9091 9.67578 10.9758 9.67578 11.0452V16.4608C9.67578 16.5303 9.70087 16.5969 9.74552 16.6461C9.79017 16.6952 9.85073 16.7228 9.91388 16.7228Z" fill="#E30000"/>
</svg>
