<svg width="72" height="66" viewBox="0 0 72 66" fill="none" xmlns="http://www.w3.org/2000/svg">
<path d="M11.876 47.244V47.064V38.928H11.084V46.872C11.084 48.42 10.28 49.2 8.684 49.2C7.16 49.2 6.332 48.504 6.332 47.148C6.332 46.716 6.464 46.116 6.716 45.348L6.02 45.108C5.696 45.888 5.528 46.596 5.528 47.232C5.528 48.06 5.804 48.732 6.368 49.224C6.932 49.716 7.688 49.968 8.636 49.968C10.256 49.968 11.384 49.248 11.756 48H13.22C13.376 48 13.46 47.88 13.46 47.628C13.46 47.376 13.376 47.244 13.22 47.244H11.876ZM17.1088 47.244C16.0408 47.244 15.5008 46.752 15.5008 45.78V45.72V43.164H14.7088V45.6C14.7088 46.764 14.2888 47.244 13.2808 47.244H13.2088V48H13.2688C14.1928 48 14.8408 47.7 15.1888 47.112C15.5128 47.7 16.1608 48 17.1088 48C17.2648 48 17.3488 47.88 17.3488 47.628C17.3488 47.376 17.2648 47.244 17.1088 47.244ZM13.7728 49.224C13.5688 49.416 13.5688 49.776 13.7728 49.98C13.9648 50.172 14.3248 50.172 14.5168 49.98C14.7088 49.776 14.7088 49.416 14.5168 49.224C14.3248 49.02 13.9648 49.02 13.7728 49.224ZM15.3928 49.224C15.1888 49.416 15.1888 49.776 15.3928 49.98C15.5848 50.172 15.9448 50.172 16.1368 49.98C16.3288 49.776 16.3288 49.416 16.1368 49.224C15.9448 49.02 15.5848 49.02 15.3928 49.224ZM20.6572 41.64C20.9572 41.64 21.1732 41.436 21.1732 41.112C21.1732 40.812 20.9572 40.584 20.6572 40.584C20.3332 40.584 20.1172 40.812 20.1172 41.112C20.1172 41.436 20.3332 41.64 20.6572 41.64ZM23.2132 47.244C22.5292 47.244 21.9172 47.172 21.3772 47.04C22.4452 46.392 22.9732 45.648 22.9732 44.808C22.9732 43.716 22.0852 43.056 20.7292 43.056C19.8292 43.056 18.9652 43.332 18.1492 43.896C18.0772 44.076 18.0172 44.364 17.9692 44.772C18.0772 44.88 18.2332 45.06 18.4492 45.288C18.6652 45.528 18.8332 45.72 18.9532 45.852C19.1932 46.128 19.5652 46.572 19.8412 46.944C19.2412 47.148 18.4852 47.244 17.5852 47.244H17.1052V48H17.5132C18.7012 48 19.6732 47.844 20.4532 47.52C21.2092 47.844 22.1452 48 23.2732 48H24.1132C24.2692 48 24.3532 47.88 24.3532 47.628C24.3532 47.376 24.2692 47.244 24.1132 47.244H23.2132ZM18.6532 44.4C19.2892 44.016 19.9372 43.824 20.5732 43.824C21.5812 43.824 22.1572 44.292 22.1572 44.916C22.1572 45.54 21.6412 46.104 20.6092 46.62C19.9012 45.696 19.2412 44.976 18.6412 44.472L18.6532 44.4ZM29.819 41.196C29.915 41.1 29.963 40.98 29.963 40.824C29.963 40.536 29.735 40.296 29.447 40.296C29.147 40.296 28.919 40.536 28.919 40.824C28.919 41.28 29.495 41.532 29.819 41.196ZM28.979 42.444C29.171 42.252 29.171 41.892 28.979 41.688C28.787 41.496 28.427 41.496 28.235 41.688C28.031 41.892 28.031 42.252 28.235 42.444C28.427 42.648 28.787 42.648 28.979 42.444ZM29.855 42.444C30.047 42.648 30.407 42.648 30.599 42.444C30.791 42.252 30.791 41.892 30.599 41.688C30.407 41.496 30.047 41.496 29.855 41.688C29.651 41.892 29.651 42.252 29.855 42.444ZM34.823 47.244C33.755 47.244 33.215 46.752 33.215 45.78V43.164H32.423V45.6C32.423 46.764 32.051 47.244 31.127 47.244C30.263 47.244 29.831 46.86 29.831 46.08V44.04H29.039V45.672C29.039 46.824 28.595 47.244 27.719 47.244C26.891 47.244 26.483 46.86 26.483 46.092V44.04H25.691V45.672C25.691 46.86 25.235 47.244 24.275 47.244H24.107V48H24.263C25.139 48 25.823 47.688 26.123 47.22C26.375 47.736 26.903 48 27.731 48C28.583 48 29.159 47.724 29.483 47.16C29.783 47.724 30.335 48 31.139 48C31.967 48 32.567 47.712 32.915 47.136C33.251 47.712 33.887 48 34.823 48C34.979 48 35.063 47.88 35.063 47.628C35.063 47.376 34.979 47.244 34.823 47.244ZM36.2519 41.592C36.4439 41.4 36.4439 41.04 36.2519 40.836C36.0599 40.644 35.6999 40.644 35.5079 40.836C35.3039 41.04 35.3039 41.4 35.5079 41.592C35.6999 41.796 36.0599 41.796 36.2519 41.592ZM37.8719 41.592C38.0639 41.4 38.0639 41.04 37.8719 40.836C37.6799 40.644 37.3199 40.644 37.1279 40.836C36.9239 41.04 36.9239 41.4 37.1279 41.592C37.3199 41.796 37.6799 41.796 37.8719 41.592ZM34.8719 48C36.3599 48 37.1039 47.244 37.1039 45.72V43.164H36.3119V45.6C36.3119 46.764 35.8919 47.244 34.8839 47.244H34.8119V48H34.8719ZM44.0767 41.592C44.2687 41.4 44.2687 41.04 44.0767 40.836C43.8847 40.644 43.5247 40.644 43.3327 40.836C43.1287 41.04 43.1287 41.4 43.3327 41.592C43.5247 41.796 43.8847 41.796 44.0767 41.592ZM45.6967 41.592C45.8887 41.4 45.8887 41.04 45.6967 40.836C45.5047 40.644 45.1447 40.644 44.9527 40.836C44.7487 41.04 44.7487 41.4 44.9527 41.592C45.1447 41.796 45.5047 41.796 45.6967 41.592ZM47.8807 47.244C46.8247 47.244 46.4887 46.992 46.4887 46.092V43.164H44.5327C42.8047 43.164 41.7487 44.124 41.7487 45.612C41.7487 46.944 42.6967 47.724 44.1967 47.724C44.7607 47.724 45.3247 47.592 45.8647 47.328C46.0927 47.772 46.7647 48 47.8807 48C48.0367 48 48.1207 47.88 48.1207 47.628C48.1207 47.376 48.0367 47.244 47.8807 47.244ZM45.6487 46.62C45.2527 46.836 44.7967 46.944 44.2567 46.944C43.1647 46.944 42.5647 46.452 42.5647 45.528C42.5647 44.472 43.2727 43.92 44.3887 43.92H45.6487V46.62ZM53.5001 47.244C53.6681 46.872 53.7521 46.452 53.7521 46.008C53.7521 45.324 53.5601 44.736 53.1761 44.256C52.7921 43.788 52.2161 43.548 51.4481 43.548C50.7401 43.548 50.1401 43.776 49.6601 44.244C49.1681 44.712 48.9281 45.3 48.9281 46.02C48.9281 46.44 49.0121 46.848 49.1921 47.244H47.8721V48H49.6361C49.8401 48.252 50.0561 48.444 50.2601 48.6H50.9201C51.7601 48.6 52.4201 48.396 52.9121 48H54.7241C54.8801 48 54.9641 47.88 54.9641 47.628C54.9641 47.376 54.8801 47.244 54.7241 47.244H53.5001ZM50.4761 47.844C49.9721 47.352 49.7201 46.752 49.7201 46.044C49.7201 44.976 50.3921 44.304 51.4001 44.304C52.3721 44.304 52.9601 44.94 52.9601 45.948C52.9601 47.064 52.3481 47.844 51.0881 47.844H50.4761ZM56.4255 41.124C56.2695 40.848 56.1855 40.608 56.1855 40.404C56.1855 39.936 56.5455 39.72 56.9895 39.72C57.0975 39.72 57.2775 39.744 57.5295 39.78L57.6255 39.276C57.3615 39.216 57.1095 39.192 56.8815 39.192C56.1495 39.192 55.6455 39.624 55.6455 40.308C55.6455 40.584 55.7295 40.848 55.8855 41.124H55.2975V41.64H57.7695V41.124H56.4255ZM56.2215 45.6C56.2215 46.764 55.8015 47.244 54.7935 47.244H54.7215V48H54.7815C56.2695 48 57.0135 47.244 57.0135 45.72V43.164H56.2215V45.6ZM61.2044 48C61.3604 48 61.4444 47.88 61.4444 47.628C61.4444 47.376 61.3604 47.244 61.2044 47.244C60.1244 47.244 59.5844 46.8 59.5844 45.9V38.928H58.7924V45.948C58.7924 47.328 59.5364 48 61.2044 48ZM64.3337 41.46C64.5257 41.268 64.5257 40.908 64.3337 40.704C64.1417 40.512 63.7817 40.512 63.5897 40.704C63.3857 40.908 63.3857 41.268 63.5897 41.46C63.7817 41.664 64.1417 41.664 64.3337 41.46ZM65.9537 41.46C66.1457 41.268 66.1457 40.908 65.9537 40.704C65.7617 40.512 65.4017 40.512 65.2097 40.704C65.0057 40.908 65.0057 41.268 65.2097 41.46C65.4017 41.664 65.7617 41.664 65.9537 41.46ZM64.7897 43.032C64.0337 43.032 63.4217 43.272 62.9537 43.74C62.4857 44.208 62.2457 44.82 62.2457 45.552C62.2457 46.224 62.4497 46.788 62.8697 47.244H61.2017V48H66.5417C66.8897 47.148 67.0697 46.356 67.0697 45.624C67.0697 44.1 66.3137 43.032 64.7897 43.032ZM63.7697 47.244C63.3017 46.728 63.0617 46.176 63.0617 45.576C63.0617 44.52 63.7097 43.812 64.7297 43.812C65.7377 43.812 66.2537 44.52 66.2537 45.672C66.2537 46.152 66.1697 46.68 65.9897 47.244H63.7697Z" fill="#9B9B9B"/>
<path d="M25.5627 23.2083C25.8124 23.3503 26.1174 23.3419 26.3594 23.1865L33.9023 18.3411C34.2711 18.1062 34.3848 17.6084 34.1562 17.2293C34.0923 17.1233 34.0054 17.034 33.9023 16.9683L26.3594 12.1229C25.9914 11.8865 25.5067 12.0015 25.2767 12.3797C25.1981 12.509 25.1567 12.6585 25.1573 12.8109V22.5017C25.1573 22.7955 25.3126 23.0661 25.5627 23.2083V23.2083ZM26.7287 14.2645L32.0032 17.6563L26.7287 21.048V14.2645Z" fill="#9B9B9B"/>
<path d="M46.2142 26.5395H25.7857C25.3518 26.5395 25 26.901 25 27.3471C25 27.7931 25.3518 28.1546 25.7857 28.1546H46.2143C46.6482 28.1546 47 27.793 47 27.3471C47 26.9011 46.6482 26.5395 46.2142 26.5395V26.5395Z" fill="#9B9B9B"/>
<path d="M46.2142 31.3849H25.7857C25.3518 31.3849 25 31.7464 25 32.1924C25 32.6385 25.3518 33 25.7857 33H46.2143C46.6482 33 47 32.6384 47 32.1924C47 31.7464 46.6482 31.3849 46.2142 31.3849V31.3849Z" fill="#9B9B9B"/>
<path d="M37.5712 13.6184H46.2141C46.648 13.6184 46.9998 13.2569 46.9998 12.8109C46.9998 12.3649 46.648 12.0033 46.2141 12.0033H37.5712C37.1373 12.0033 36.7855 12.3649 36.7855 12.8109C36.7855 13.2569 37.1373 13.6184 37.5712 13.6184V13.6184Z" fill="#9B9B9B"/>
<path d="M46.2141 16.8488H37.5712C37.1373 16.8488 36.7855 17.2103 36.7855 17.6563C36.7855 18.1023 37.1373 18.4639 37.5712 18.4639H46.2141C46.648 18.4639 46.9998 18.1024 46.9998 17.6563C46.9998 17.2103 46.648 16.8488 46.2141 16.8488V16.8488Z" fill="#9B9B9B"/>
<path d="M46.2141 21.6941H37.5712C37.1373 21.6941 36.7855 22.0556 36.7855 22.5017C36.7855 22.9476 37.1373 23.3092 37.5712 23.3092H46.2141C46.648 23.3092 46.9998 22.9476 46.9998 22.5017C46.9998 22.0556 46.648 21.6941 46.2141 21.6941V21.6941Z" fill="#9B9B9B"/>
</svg>
