<svg width="72" height="66" viewBox="0 0 72 66" fill="none" xmlns="http://www.w3.org/2000/svg">
<path d="M9.936 46.728V38.928H8.52V46.764C8.52 48.192 7.884 48.792 6.6 48.792C5.388 48.792 4.692 48.156 4.692 47.004C4.692 46.608 4.812 46.068 5.04 45.396L3.804 44.964C3.444 45.792 3.264 46.524 3.264 47.184C3.264 47.988 3.552 48.684 4.128 49.248C4.704 49.812 5.508 50.1 6.552 50.1C8.28 50.1 9.504 49.368 9.84 47.976V48H11.184C11.34 48 11.424 47.796 11.424 47.4C11.424 46.956 11.34 46.728 11.184 46.728H9.936ZM15.3497 46.728C14.4977 46.728 14.0657 46.32 14.0657 45.516V42.984H12.6497V45.324C12.6497 46.392 12.3737 46.728 11.4137 46.728H11.1737V48H11.4257C12.4697 48 13.1897 47.76 13.5857 47.28C13.9097 47.76 14.4977 48 15.3497 48C15.5057 48 15.5897 47.796 15.5897 47.4C15.5897 46.956 15.5057 46.728 15.3497 46.728ZM12.1697 48.972C11.7377 48.972 11.4017 49.308 11.4017 49.752C11.4017 50.184 11.7377 50.508 12.1697 50.508C12.6137 50.508 12.9257 50.184 12.9257 49.752C12.9257 49.308 12.6137 48.972 12.1697 48.972ZM14.1377 48.972C13.6937 48.972 13.3577 49.308 13.3577 49.752C13.3577 50.184 13.6937 50.508 14.1377 50.508C14.5577 50.508 14.8817 50.184 14.8817 49.752C14.8817 49.308 14.5577 48.972 14.1377 48.972ZM19.5156 41.256C19.7916 40.968 19.7916 40.44 19.5156 40.152C19.0956 39.708 18.1356 40.02 18.2076 40.704C18.1356 41.376 19.0956 41.724 19.5156 41.256ZM21.3036 46.728C21.1956 46.728 20.9316 46.716 20.4996 46.704C21.1596 46.044 21.4956 45.36 21.4956 44.652C21.4956 43.536 20.5716 42.864 19.0836 42.864C18.1596 42.864 17.2476 43.104 16.3356 43.572C16.2156 43.86 16.1196 44.304 16.0476 44.916C16.6356 45.48 17.1516 46.08 17.5836 46.692C17.2836 46.716 16.8996 46.728 16.4076 46.728H15.3396V48H15.7716C17.0076 48 18.0156 47.892 18.7956 47.688C19.5636 47.892 20.4396 48 21.4236 48H22.3596C22.5156 48 22.5996 47.796 22.5996 47.4C22.5996 46.956 22.5156 46.728 22.3596 46.728H21.3036ZM17.3796 44.448C17.8476 44.268 18.3036 44.172 18.7716 44.172C19.6356 44.172 20.0676 44.508 20.0676 44.976C20.0676 45.42 19.6236 46.008 18.9516 46.344C18.5196 45.648 17.9916 45.036 17.3676 44.508L17.3796 44.448ZM27.7051 40.92C28.1491 40.92 28.4611 40.584 28.4611 40.14C28.4611 39.708 28.1371 39.372 27.7051 39.372C27.2731 39.372 26.9491 39.708 26.9491 40.14C26.9491 40.584 27.2731 40.92 27.7051 40.92ZM26.6851 42.552C27.1291 42.552 27.4411 42.216 27.4411 41.772C27.4411 41.328 27.1291 41.016 26.6851 41.016C26.2531 41.016 25.9171 41.34 25.9171 41.772C25.9171 42.216 26.2531 42.552 26.6851 42.552ZM28.1011 42.324C28.2451 42.48 28.4251 42.552 28.6531 42.552C29.0731 42.552 29.3971 42.216 29.3971 41.772C29.3971 41.34 29.0851 41.016 28.6531 41.016C27.9451 40.956 27.6211 41.88 28.1011 42.324ZM33.0451 46.728C32.1931 46.728 31.7611 46.32 31.7611 45.516V42.984H30.3451V45.504C30.3451 46.38 30.1291 46.728 29.3611 46.728C28.7251 46.728 28.4011 46.464 28.4011 45.924V43.86H26.9851V45.54C26.9851 46.416 26.7211 46.728 25.9891 46.728C25.3651 46.728 25.0531 46.464 25.0531 45.924V43.86H23.6371V45.54C23.6371 46.416 23.3731 46.728 22.6171 46.728H22.3531V48H22.6171C23.4691 48 24.0931 47.808 24.4651 47.436C24.8011 47.808 25.3651 48 26.1691 48C26.9011 48 27.4771 47.82 27.8971 47.448C28.2931 47.82 28.8331 48 29.5171 48C30.2971 48 30.8971 47.76 31.2931 47.292C31.6291 47.76 32.2171 48 33.0451 48C33.2011 48 33.2851 47.796 33.2851 47.4C33.2851 46.956 33.2011 46.728 33.0451 46.728ZM34.6306 41.364C34.7746 41.22 34.8466 41.04 34.8466 40.824C34.8466 40.38 34.5346 40.068 34.0906 40.068C33.6586 40.068 33.3226 40.392 33.3226 40.824C33.2746 41.496 34.1986 41.856 34.6306 41.364ZM36.0586 41.592C36.4786 41.592 36.8026 41.256 36.8026 40.824C36.8026 40.38 36.4786 40.068 36.0586 40.068C35.5906 40.068 35.2786 40.38 35.2786 40.824C35.2786 41.256 35.6146 41.592 36.0586 41.592ZM33.2866 48C35.1466 48 35.9266 47.328 35.9266 45.516V42.984H34.5106V45.324C34.5106 46.392 34.2346 46.728 33.2746 46.728H33.0346V48H33.2866ZM43.1819 41.364C43.3259 41.22 43.3979 41.04 43.3979 40.824C43.3979 40.38 43.0859 40.068 42.6419 40.068C42.2099 40.068 41.8739 40.392 41.8739 40.824C41.8259 41.496 42.7499 41.856 43.1819 41.364ZM44.6099 41.592C45.0299 41.592 45.3539 41.256 45.3539 40.824C45.3539 40.38 45.0299 40.068 44.6099 40.068C44.1419 40.068 43.8299 40.38 43.8299 40.824C43.8299 41.256 44.1659 41.592 44.6099 41.592ZM46.9619 46.728C46.1579 46.728 45.9179 46.488 45.9179 45.684V42.984H43.6379C42.6539 42.984 41.8979 43.224 41.3699 43.716C40.8299 44.208 40.5659 44.82 40.5659 45.552C40.5659 46.284 40.8179 46.848 41.3339 47.244C41.8379 47.64 42.4739 47.844 43.2539 47.844C43.8419 47.844 44.3819 47.724 44.8859 47.484C45.2099 47.832 45.8939 48 46.9619 48C47.1179 48 47.2019 47.796 47.2019 47.4C47.2019 46.956 47.1179 46.728 46.9619 46.728ZM44.4299 46.332C44.1899 46.464 43.8659 46.524 43.4459 46.524C42.4739 46.524 41.9939 46.164 41.9939 45.432C41.9939 44.676 42.5579 44.256 43.4219 44.256H44.4299V46.332ZM53.0462 46.728C53.0822 46.512 53.1062 46.308 53.1062 46.116C53.1062 45.336 52.8782 44.688 52.4342 44.184C51.9902 43.68 51.3542 43.428 50.5382 43.428C49.7102 43.428 49.0262 43.68 48.4982 44.184C47.9702 44.7 47.7062 45.348 47.7062 46.152C47.7062 46.296 47.7182 46.488 47.7542 46.728H46.9502V48H48.3302C48.5342 48.276 48.7982 48.54 49.1222 48.768H50.1302C51.1022 48.768 51.8462 48.516 52.3742 48H53.8742C54.0302 48 54.1142 47.796 54.1142 47.4C54.1142 46.956 54.0302 46.728 53.8742 46.728H53.0462ZM49.5662 47.496C49.2662 47.1 49.1222 46.668 49.1222 46.188C49.1222 45.288 49.6382 44.736 50.4542 44.736C51.2342 44.736 51.6902 45.288 51.6902 46.056C51.6902 46.884 51.2222 47.496 50.2262 47.496H49.5662ZM55.91 40.716C55.802 40.536 55.742 40.368 55.742 40.212C55.742 39.66 56.426 39.636 56.882 39.756L57.038 38.94C56.738 38.88 56.474 38.844 56.246 38.844C55.418 38.844 54.866 39.324 54.866 40.032C54.866 40.272 54.926 40.5 55.046 40.716H54.542V41.556H57.182V40.716H55.91ZM55.346 45.324C55.346 46.392 55.07 46.728 54.11 46.728H53.87V48H54.122C55.982 48 56.762 47.328 56.762 45.516V42.984H55.346V45.324ZM61.2926 48C61.4486 48 61.5326 47.796 61.5326 47.4C61.5326 46.956 61.4486 46.728 61.2926 46.728C60.4166 46.728 60.0446 46.428 60.0446 45.72V38.928H58.6286V45.756C58.6286 47.304 59.3726 48 61.2926 48ZM64.5277 41.232C64.6717 41.088 64.7437 40.908 64.7437 40.692C64.7437 40.248 64.4317 39.936 63.9877 39.936C63.5557 39.936 63.2197 40.26 63.2197 40.692C63.1717 41.364 64.0957 41.724 64.5277 41.232ZM65.9557 41.46C66.3757 41.46 66.6997 41.124 66.6997 40.692C66.6997 40.26 66.3877 39.936 65.9557 39.936C65.4877 39.936 65.1757 40.248 65.1757 40.692C65.1757 41.124 65.5117 41.46 65.9557 41.46ZM64.9837 42.852C64.1197 42.852 63.4357 43.104 62.9197 43.608C62.4037 44.112 62.1517 44.748 62.1517 45.528C62.1517 45.984 62.2477 46.38 62.4397 46.728H61.2877V48H67.1077C67.4317 47.136 67.5877 46.308 67.5877 45.516C67.5877 44.364 66.9637 42.852 64.9837 42.852ZM63.9277 46.728C63.6997 46.308 63.5797 45.912 63.5797 45.516C63.5797 44.712 64.0717 44.16 64.9237 44.16C65.7757 44.16 66.1717 44.772 66.1717 45.648C66.1717 45.984 66.1237 46.344 66.0277 46.728H63.9277Z" fill="#E20000"/>
<path d="M25.5627 23.2083C25.8124 23.3503 26.1174 23.3419 26.3594 23.1865L33.9023 18.3411C34.2711 18.1062 34.3848 17.6084 34.1562 17.2293C34.0923 17.1233 34.0054 17.034 33.9023 16.9683L26.3594 12.1229C25.9914 11.8865 25.5067 12.0015 25.2767 12.3797C25.1981 12.509 25.1567 12.6585 25.1573 12.8109V22.5017C25.1573 22.7955 25.3126 23.0661 25.5627 23.2083V23.2083ZM26.7287 14.2645L32.0032 17.6563L26.7287 21.048V14.2645Z" fill="#E20000"/>
<path d="M46.2142 26.5395H25.7857C25.3518 26.5395 25 26.901 25 27.3471C25 27.7931 25.3518 28.1546 25.7857 28.1546H46.2143C46.6482 28.1546 47 27.793 47 27.3471C47 26.9011 46.6482 26.5395 46.2142 26.5395V26.5395Z" fill="#E20000"/>
<path d="M46.2142 31.3849H25.7857C25.3518 31.3849 25 31.7464 25 32.1924C25 32.6385 25.3518 33 25.7857 33H46.2143C46.6482 33 47 32.6384 47 32.1924C47 31.7464 46.6482 31.3849 46.2142 31.3849V31.3849Z" fill="#E20000"/>
<path d="M37.5713 13.6184H46.2141C46.648 13.6184 46.9998 13.2569 46.9998 12.8109C46.9998 12.3649 46.648 12.0033 46.2141 12.0033H37.5713C37.1373 12.0033 36.7855 12.3649 36.7855 12.8109C36.7855 13.2569 37.1373 13.6184 37.5713 13.6184V13.6184Z" fill="#E20000"/>
<path d="M46.2141 16.8488H37.5713C37.1373 16.8488 36.7855 17.2103 36.7855 17.6563C36.7855 18.1023 37.1373 18.4639 37.5713 18.4639H46.2141C46.648 18.4639 46.9998 18.1024 46.9998 17.6563C46.9998 17.2103 46.648 16.8488 46.2141 16.8488V16.8488Z" fill="#E20000"/>
<path d="M46.2141 21.6941H37.5713C37.1373 21.6941 36.7855 22.0556 36.7855 22.5017C36.7855 22.9476 37.1373 23.3092 37.5713 23.3092H46.2141C46.648 23.3092 46.9998 22.9476 46.9998 22.5017C46.9998 22.0556 46.648 21.6941 46.2141 21.6941V21.6941Z" fill="#E20000"/>
</svg>
