<svg width="270" height="200" viewBox="0 0 270 200" fill="none" xmlns="http://www.w3.org/2000/svg">
<g opacity="0.7" clip-path="url(#clip0_1_3987)">
<path opacity="0.1" d="M2.90625 95.8872C7.16972 112.434 16.1876 126.737 30.4384 133.671C60.0642 148.08 126.878 140.649 176.744 132.118C202.538 127.706 225.21 115.53 241.68 98.394L2.90625 95.8872Z" fill="#E90900"/>
<path opacity="0.1" d="M264.399 18.0007H237.039C235.74 18.0007 234.675 17.0345 234.675 15.8538C234.675 14.6731 235.74 13.7045 237.039 13.7045H241.771C240.47 13.7045 239.407 12.7382 239.407 11.5551C239.407 10.372 240.47 9.40823 241.771 9.40823H238.393C237.093 9.40823 236.027 8.44201 236.027 7.25889C236.027 6.07576 237.093 5.11201 238.393 5.11201H252.674C249.505 3.7736 245.801 2.82217 241.533 2.3218C202.592 -2.22091 188.69 0.78374 183.786 3.87219C177.673 7.76972 170.883 10.4741 163.772 11.8435C139.747 16.3468 94.8174 21.7645 54.0947 10.1181C33.8549 4.31833 18.8113 14.1062 9.7959 30.4679H269.151C268.812 25.7132 267.798 21.3208 265.938 17.4781C265.497 17.8198 264.956 18.0037 264.399 18.0007Z" fill="#E90900"/>
<path opacity="0.1" d="M0.586618 61.3501C-0.464287 70.9733 -0.107053 80.6991 1.64696 90.2184L241.864 98.202C248.477 91.3149 254.095 83.5307 258.555 75.0768L0.586618 61.3501ZM95.5954 81.9439H90.8656C92.1665 81.9439 93.2318 82.9126 93.2318 84.0932C93.2318 85.2739 92.1665 86.2401 90.8656 86.2401H63.5053C62.2069 86.2401 61.1416 85.2739 61.1416 84.0932C61.1416 82.9126 62.2069 81.9439 63.5053 81.9439H68.2376C66.9367 81.9439 65.8739 80.9777 65.8739 79.797C65.8739 78.6163 66.9367 77.6477 68.2376 77.6477H64.8577C63.5568 77.6477 62.4916 76.6814 62.4916 75.5008C62.4916 74.3201 63.5568 73.3514 64.8577 73.3514H92.218C93.5189 73.3514 94.5817 74.3176 94.5817 75.5008C94.5817 76.6839 93.5189 77.6477 92.218 77.6477H95.5954C96.8963 77.6477 97.9591 78.6139 97.9591 79.797C97.9591 80.9801 96.8963 81.9439 95.5954 81.9439Z" fill="#E90900"/>
<path opacity="0.1" d="M269.16 30.6157L6.90192 36.4081C3.71107 43.8593 1.59529 52.2842 0.62085 61.0147H264.566C266.283 55.9068 267.558 50.6593 268.375 45.3308C269.163 40.2015 269.477 35.2398 269.16 30.6157ZM53.8688 49.6074H49.139C50.4398 49.6074 51.5051 50.576 51.5051 51.7567C51.5051 52.9374 50.4398 53.906 49.139 53.906H21.7786C20.4802 53.906 19.415 52.9374 19.415 51.7567C19.415 50.576 20.4802 49.6074 21.7786 49.6074H26.5109C25.21 49.6074 24.1472 48.6411 24.1472 47.4605C24.1472 46.2798 25.21 45.3111 26.5109 45.3111H23.1311C21.8302 45.3111 20.7649 44.3449 20.7649 43.1643C20.7649 41.9836 21.8302 41.0149 23.1311 41.0149H50.4914C51.7923 41.0149 52.8551 41.9811 52.8551 43.1643C52.8551 44.3474 51.7923 45.3111 50.4914 45.3111H53.8688C55.1697 45.3111 56.2325 46.2798 56.2325 47.4605C56.2325 48.6411 55.1697 49.6074 53.8688 49.6074Z" fill="#E90900"/>
<path opacity="0.1" d="M133.79 192.524C194.382 192.524 243.501 187.987 243.501 182.389C243.501 176.791 194.382 172.253 133.79 172.253C73.198 172.253 24.0786 176.791 24.0786 182.389C24.0786 187.987 73.198 192.524 133.79 192.524Z" fill="#E90900"/>
<path d="M245.607 98.6725C245.606 98.6553 245.606 98.638 245.607 98.6208C245.607 98.5937 245.607 98.569 245.607 98.5444C245.558 98.2621 245.452 97.9928 245.296 97.7532C244.734 96.8503 243.951 96.107 243.023 95.5939C241.403 94.7017 239.176 94.3196 238.528 92.6164C238.33 92.0889 238.325 91.5146 238.227 90.9625C238.055 90.1023 237.661 89.3025 237.084 88.6436C236.507 87.9847 235.768 87.4898 234.94 87.2085C234.169 86.9497 233.337 86.8783 232.589 86.5578C230.915 85.843 230.031 84.0807 229.282 82.4514C228.314 80.3481 227.345 78.2439 226.376 76.1389C225.64 76.5111 224.688 76.3361 223.998 75.8703C223.333 75.3734 222.804 74.7164 222.459 73.96C221.46 72.0128 221.03 69.8067 219.857 67.9532C218.684 66.0996 216.34 64.6355 214.268 65.4415C213.864 65.6444 213.445 65.8182 213.016 65.9616C211.242 66.3781 209.278 64.3422 207.759 65.3306C207.506 65.4931 207.301 65.7192 207.162 65.9862C207.161 65.9698 207.161 65.9533 207.162 65.9369C206.965 66.3379 206.854 66.7765 206.838 67.2236C206.838 67.3148 206.838 67.4035 206.838 67.4898C206.838 67.5046 206.838 67.5194 206.838 67.5341C206.838 67.8891 206.861 68.249 206.865 68.6088C206.871 68.911 206.848 69.2131 206.797 69.511V69.4863C206.768 69.6539 206.725 69.8188 206.669 69.9793C206.274 71.0441 205.179 71.7416 204.666 72.7424V72.6931C204.608 72.8019 204.558 72.9148 204.516 73.0308C204.425 73.2931 204.378 73.5688 204.377 73.8466C204.332 75.7273 206.318 77.4971 206.549 79.5158C206.713 80.9454 207.04 81.4038 208.25 82.2123L208.515 82.3898C208.409 82.3898 208.301 82.4046 208.181 82.407C208.134 82.4079 208.087 82.4128 208.041 82.4218C207.828 82.3628 207.604 82.3521 207.386 82.3904C207.167 82.4288 206.96 82.5153 206.78 82.6436C205.852 83.3831 203.657 82.8137 202.683 82.6436C201.709 82.4736 198.37 82.932 197.904 84.7905C197.438 86.649 196.638 90.4843 196.638 90.4843C196.638 90.4843 196.638 92.9171 196.341 93.3707C196.329 93.4025 196.329 93.4374 196.341 93.4692C196.341 94.152 196.365 98.256 195.707 99.3134C195.545 99.5599 195.558 100.105 195.678 100.775C194.986 101.67 194.335 102.715 194.451 103.4C194.662 104.803 197.494 109.212 201.554 106.851C201.554 106.851 203.864 102.609 200.957 100.354L201.083 99.8606C201.961 100.945 202.612 101.724 202.612 101.724C202.612 101.724 202.646 101.815 202.7 101.971H202.612C202.991 103.007 203.221 104.093 203.294 105.195C203.283 105.598 203.21 105.998 203.078 106.38H203.154C203.132 106.464 203.108 106.548 203.078 106.627C202.935 107.043 202.669 107.405 202.315 107.664C200.285 109.109 197.96 119.424 197.96 119.424C197.96 119.424 193.356 136.099 192.435 137.048C191.675 137.827 196.456 140.02 200.044 139.759C200.545 139.729 201.04 139.635 201.517 139.478C201.539 139.725 201.564 139.971 201.588 140.195C201.664 140.935 201.743 141.62 201.792 141.834C201.92 142.372 202.172 147.859 202.172 147.859C202.172 147.859 201.655 151.423 201.78 153.902C201.78 154.072 201.802 154.235 201.817 154.395L201.37 154.464C200.692 155.993 203.483 168.743 203.864 169.815C204.116 170.66 204.257 171.534 204.286 172.416C204.286 172.416 204.04 173.323 204.244 173.818C204.371 174.121 204.454 174.441 204.489 174.767C204.489 174.767 204.323 175.59 204.575 176.128C204.828 176.665 204.534 177.607 204.534 177.607C204.534 177.607 204.45 181.321 203.689 183.342C203.482 183.886 203.422 184.476 203.514 185.05C203.607 185.625 203.85 186.165 204.217 186.616C204.27 186.686 204.327 186.753 204.389 186.815C204.389 186.815 208.586 186.85 209.325 186.815H209.421C209.718 186.774 210.478 183.431 209.801 181.822C209.124 180.212 209.718 178.23 209.718 178.23V175.302C209.718 175.302 210.478 174.597 209.718 173.084C208.957 171.57 209.082 171.112 209.082 171.112C209.082 171.112 209.929 168.677 209.04 167.893C208.152 167.109 209.209 164.136 209.209 164.136L209.509 154.228C209.352 154.176 209.192 154.135 209.03 154.104C209.013 153.942 208.996 153.774 208.979 153.597C208.804 151.802 208.655 149.362 209.043 148.667C209.43 147.972 209.617 141.903 209.678 137.686L213.547 137.834C213.628 139.806 213.713 141.605 213.767 141.834C213.895 142.372 214.15 147.859 214.15 147.859C214.15 147.859 213.63 151.423 213.755 153.902C213.755 154.072 213.777 154.235 213.792 154.395L213.345 154.464C212.668 155.993 215.459 168.743 215.839 169.815C216.091 170.66 216.234 171.534 216.264 172.416C216.264 172.416 216.018 173.323 216.22 173.818C216.346 174.121 216.429 174.441 216.465 174.767C216.465 174.767 216.298 175.59 216.551 176.128C216.804 176.665 216.509 177.607 216.509 177.607C216.509 177.607 216.426 181.321 215.665 183.342C215.461 183.887 215.404 184.476 215.5 185.05C215.595 185.624 215.84 186.163 216.21 186.611C216.263 186.681 216.32 186.748 216.382 186.81C216.382 186.81 220.579 186.845 221.318 186.81H221.413C221.71 186.769 222.471 183.426 221.794 181.817C221.116 180.207 221.71 178.225 221.71 178.225V175.302C221.71 175.302 222.471 174.597 221.71 173.084C220.949 171.57 221.075 171.112 221.075 171.112C221.075 171.112 221.921 168.677 221.033 167.893C220.144 167.109 221.202 164.136 221.202 164.136L221.507 154.228C221.346 154.176 221.182 154.134 221.016 154.104C220.998 153.942 220.981 153.774 220.964 153.597C220.79 151.802 220.64 149.362 221.028 148.667C221.34 148.098 221.519 144.43 221.6 140.848C221.6 140.602 221.6 140.356 221.619 140.109C223.397 140.035 225.167 139.835 226.916 139.513C226.916 139.513 224.847 132.165 225.48 130.969C225.753 130.454 225.36 127.711 224.823 124.756C225.572 125.365 226.504 125.703 227.468 125.717C228.394 127.504 231.209 131.615 232.795 132.249C234.655 132.988 233.259 126.432 232.373 125.483C231.953 124.965 231.6 124.396 231.322 123.789C231.347 123.76 231.374 123.735 231.398 123.708C231.423 123.681 231.442 116.732 231.018 116.858C230.593 116.984 230.087 115.825 230.087 115.825L228.777 104.273L228.227 99.4366C228.686 99.7768 229.231 99.9937 229.7 100.331C230.976 101.27 231.393 102.919 231.953 104.379C232.414 105.579 233.062 106.77 234.125 107.524C235.188 108.278 236.747 108.478 237.807 107.714C238.789 106.996 239.078 105.702 239.294 104.522C241.076 105.15 243.239 103.469 243.008 101.633C242.951 101.179 242.785 100.684 243.02 100.287C243.491 99.5032 244.984 99.9592 245.475 99.1852C245.557 99.0514 245.6 98.8965 245.597 98.7391C245.605 98.7046 245.607 98.6898 245.607 98.6725ZM221.772 105.027C221.745 105.468 222.348 109.013 222.839 111.818C222.437 110.07 221.629 108.204 220.039 106.925C220.039 106.925 220.039 106.836 220.019 106.678H220.039C220.039 106.678 219.972 105.973 219.963 104.97C219.965 104.081 220.031 103.193 220.159 102.313V102.291H220.127C220.127 102.217 220.147 102.141 220.159 102.067C220.257 101.324 220.457 100.599 220.755 99.9124C220.887 99.6433 221.039 99.3846 221.21 99.1384C221.472 101.522 221.796 104.581 221.772 105.027ZM223.092 113.24C223.308 114.45 223.463 115.3 223.463 115.3L224.766 124.287V124.329C224.064 120.536 223.168 116.538 223.168 116.538C223.26 115.439 223.234 114.333 223.092 113.24Z" fill="url(#paint0_linear_1_3987)"/>
<path d="M207.118 80.0089C206.873 77.7314 204.418 75.7669 205.155 73.6003C205.555 72.4197 206.806 71.6975 207.229 70.5242C207.508 69.7502 207.383 68.8999 207.386 68.0766C207.388 67.2534 207.58 66.334 208.262 65.878C209.735 64.892 211.63 66.9206 213.348 66.5065C213.763 66.3638 214.168 66.1908 214.558 65.9889C216.563 65.1878 218.831 66.647 219.958 68.4907C221.084 70.3344 221.506 72.5331 222.474 74.4704C222.804 75.2186 223.315 75.8719 223.961 76.3708C224.629 76.8342 225.542 77.0092 226.263 76.6395L229.074 82.9248C229.81 84.5442 230.654 86.2992 232.265 87.0116C232.986 87.3295 233.791 87.401 234.537 87.6598C235.348 87.9471 236.07 88.4432 236.63 89.0986C237.19 89.7539 237.569 90.5455 237.728 91.3941C237.824 91.9462 237.826 92.518 238.02 93.043C238.646 94.7388 240.799 95.1184 242.367 96.0008C243.275 96.5146 244.035 97.2539 244.576 98.1477C244.822 98.5742 245.033 99.1337 244.77 99.5527C244.297 100.322 242.856 99.8682 242.399 100.65C242.168 101.044 242.33 101.537 242.399 101.99C242.623 103.817 240.529 105.491 238.806 104.864C238.597 106.04 238.315 107.329 237.367 108.042C236.349 108.806 234.839 108.604 233.811 107.854C232.782 107.105 232.159 105.919 231.712 104.724C231.17 103.27 230.765 101.628 229.53 100.694C229.084 100.359 228.548 100.142 228.112 99.8041C227.13 99.0499 226.639 97.8051 226.288 96.5998C225.834 95.0963 225.473 93.5508 224.815 92.131C224.157 90.7113 223.117 89.3901 221.691 88.7419C220.353 88.138 218.811 88.1774 217.43 87.6869C215.051 86.844 213.291 84.8351 210.925 83.8886C210.169 83.5693 209.452 83.1623 208.79 82.6759C207.599 81.8896 207.275 81.4336 207.118 80.0089Z" fill="#3F3D56"/>
<g opacity="0.1">
<path opacity="0.1" d="M207.339 70.0412C207.39 69.9448 207.434 69.8452 207.472 69.743C207.751 68.969 207.628 68.1186 207.63 67.2954C207.63 67.0208 207.655 66.7468 207.706 66.4771C207.479 66.9641 207.368 67.4975 207.383 68.0348C207.381 68.6979 207.46 69.393 207.339 70.0412Z" fill="black"/>
<path opacity="0.1" d="M237.598 107.268C236.579 108.029 235.07 107.83 234.042 107.078C233.013 106.326 232.387 105.145 231.953 103.945C231.41 102.491 231.008 100.849 229.771 99.915C229.326 99.5798 228.789 99.3604 228.354 99.0252C227.373 98.271 226.882 97.0262 226.528 95.8332C226.074 94.3297 225.716 92.7842 225.056 91.3645C224.395 89.9447 223.36 88.6235 221.931 87.9753C220.596 87.3714 219.054 87.4108 217.672 86.9203C215.292 86.0774 213.532 84.0685 211.168 83.122C210.411 82.8018 209.694 82.3948 209.03 81.9093C207.867 81.1033 207.557 80.6473 207.386 79.2251C207.14 77.0905 204.98 75.2296 205.316 73.2183C205.262 73.3271 205.213 73.439 205.172 73.5535C204.435 75.7225 206.89 77.687 207.135 79.9621C207.295 81.3843 207.626 81.8403 208.78 82.6463C209.444 83.1318 210.161 83.5388 210.918 83.859C213.281 84.8055 215.041 86.8168 217.422 87.6573C218.804 88.1503 220.345 88.1084 221.681 88.7123C223.109 89.3605 224.135 90.6842 224.805 92.1014C225.475 93.5187 225.834 95.0593 226.278 96.5702C226.639 97.7632 227.112 99.0079 228.104 99.7622C228.548 100.097 229.086 100.317 229.52 100.652C230.748 101.586 231.16 103.228 231.702 104.682C232.149 105.877 232.775 107.061 233.803 107.81C234.832 108.559 236.341 108.761 237.36 108C238.01 107.507 238.342 106.755 238.56 105.949C238.366 106.469 238.033 106.925 237.598 107.268Z" fill="black"/>
<path opacity="0.1" d="M242.642 99.8756C242.548 100.052 242.507 100.253 242.524 100.452C243.079 99.9027 244.33 100.226 244.767 99.5182C244.869 99.3434 244.908 99.1393 244.88 98.939C244.311 99.4812 243.059 99.1583 242.642 99.8756Z" fill="black"/>
<path opacity="0.1" d="M239.036 104.09C238.99 104.337 238.943 104.601 238.884 104.857C240.386 105.328 242.122 104.118 242.367 102.589C241.771 103.765 240.298 104.551 239.036 104.09Z" fill="black"/>
</g>
<path d="M210.289 81.1947C210.289 81.1947 211.107 82.8511 208.694 82.8856C206.281 82.9201 210.248 93.6422 210.248 93.6422L214.258 98.769L219.248 96.0577L219.535 88.5794L219.904 84.0613C219.904 84.0613 215.24 82.5405 216.099 80.5292C216.958 78.5179 210.289 81.1947 210.289 81.1947Z" fill="#FBBEBE"/>
<path d="M224.773 124.911C224.773 124.911 227.719 127.822 231.155 123.959L228.517 121.147H225.178L224.773 124.911Z" fill="#575A89"/>
<path opacity="0.1" d="M225.092 121.147L224.688 124.911C224.688 124.911 227.633 127.822 231.069 123.959" fill="black"/>
<path d="M230.048 121.66C230.048 121.66 231.234 124.783 232.093 125.727C232.952 126.671 234.302 133.203 232.502 132.463C230.703 131.724 227.267 126.22 227.061 125.276C226.855 124.332 226.776 121.66 226.776 121.66H230.048Z" fill="#FBBEBE"/>
<path d="M204.318 137.681L220.188 138.298L218.348 131.559L210.353 131.396L204.318 137.681Z" fill="#575A89"/>
<path opacity="0.1" d="M206.524 137.681L222.397 138.298L220.557 131.559L212.56 131.396L206.524 137.681Z" fill="black"/>
<path d="M209.511 148.805C209.136 149.507 209.281 151.938 209.45 153.735C209.558 154.878 209.676 155.758 209.676 155.758C209.676 155.758 203.743 157.607 202.845 156.005C202.617 155.598 202.504 154.886 202.465 154.05C202.342 151.585 202.845 148.034 202.845 148.034C202.845 148.034 202.6 142.571 202.477 142.037C202.428 141.822 202.352 141.142 202.278 140.405C202.17 139.31 202.067 138.093 202.067 138.093L210.167 133.779C210.167 133.779 210.167 134.588 210.152 135.833C210.108 139.742 209.978 147.942 209.511 148.805Z" fill="#FBBEBE"/>
<path opacity="0.1" d="M209.676 155.758C209.676 155.758 203.743 157.607 202.845 156.005C202.617 155.598 202.504 154.886 202.464 154.05C203.692 153.863 207.427 153.345 209.45 153.735C209.558 154.879 209.676 155.758 209.676 155.758Z" fill="black"/>
<path d="M209.879 186.816H209.786C209.072 186.843 205.012 186.816 205.012 186.816C204.953 186.753 204.897 186.687 204.845 186.618C204.486 186.167 204.249 185.631 204.157 185.061C204.065 184.491 204.12 183.907 204.317 183.365C205.054 181.351 205.135 177.654 205.135 177.654C205.135 177.654 205.422 176.71 205.177 176.175C204.931 175.64 205.093 174.819 205.093 174.819C205.055 174.495 204.973 174.177 204.848 173.875C204.644 173.382 204.889 172.478 204.889 172.478C204.861 171.601 204.724 170.732 204.479 169.889C204.111 168.822 201.411 156.128 202.067 154.607C202.067 154.607 207.793 153.621 209.963 154.361L209.676 164.22C209.676 164.22 208.652 167.178 209.511 167.96C210.37 168.741 209.553 171.164 209.553 171.164C209.553 171.164 209.43 171.615 210.167 173.136C210.903 174.656 210.167 175.354 210.167 175.354V178.27C210.167 178.27 209.595 180.242 210.248 181.844C210.9 183.446 210.167 186.764 209.879 186.816Z" fill="#3F3D56"/>
<path d="M221.119 148.805C220.743 149.508 220.888 151.938 221.057 153.735C221.165 154.879 221.283 155.759 221.283 155.759C221.283 155.759 215.35 157.607 214.452 156.005C214.224 155.598 214.111 154.886 214.072 154.05C213.949 151.586 214.452 148.034 214.452 148.034C214.452 148.034 214.207 142.572 214.084 142.037C214.018 141.748 213.902 138.998 213.812 136.53C213.735 134.425 213.674 132.522 213.674 132.522L221.774 133.78C221.774 133.78 221.774 137.356 221.673 141.031C221.585 144.595 221.42 148.248 221.119 148.805Z" fill="#FBBEBE"/>
<path opacity="0.1" d="M221.283 155.758C221.283 155.758 215.351 157.607 214.452 156.005C214.224 155.598 214.111 154.886 214.072 154.05C215.299 153.863 219.035 153.345 221.057 153.735C221.165 154.879 221.283 155.758 221.283 155.758Z" fill="black"/>
<path d="M221.487 186.816H221.394C220.679 186.843 216.62 186.816 216.62 186.816C216.56 186.753 216.504 186.687 216.453 186.618C216.094 186.167 215.857 185.631 215.764 185.061C215.672 184.491 215.727 183.907 215.925 183.365C216.661 181.341 216.735 177.644 216.735 177.644C216.735 177.644 217.022 176.7 216.777 176.165C216.531 175.63 216.693 174.809 216.693 174.809C216.656 174.485 216.573 174.167 216.448 173.865C216.244 173.372 216.489 172.468 216.489 172.468C216.461 171.591 216.324 170.722 216.08 169.88C215.711 168.812 213.011 156.118 213.667 154.598C213.667 154.598 219.393 153.612 221.563 154.351L221.276 164.211C221.276 164.211 220.252 167.168 221.111 167.95C221.97 168.731 221.153 171.154 221.153 171.154C221.153 171.154 221.03 171.605 221.767 173.126C222.503 174.647 221.767 175.344 221.767 175.344V178.26C221.767 178.26 221.195 180.232 221.848 181.834C222.501 183.436 221.774 186.764 221.487 186.816Z" fill="#3F3D56"/>
<path opacity="0.1" d="M213.48 83.1316C216.666 83.1316 219.248 80.5383 219.248 77.3393C219.248 74.1402 216.666 71.5469 213.48 71.5469C210.295 71.5469 207.712 74.1402 207.712 77.3393C207.712 80.5383 210.295 83.1316 213.48 83.1316Z" fill="black"/>
<path d="M213.48 82.8856C216.666 82.8856 219.248 80.2922 219.248 77.0932C219.248 73.8941 216.666 71.3008 213.48 71.3008C210.295 71.3008 207.712 73.8941 207.712 77.0932C207.712 80.2922 210.295 82.8856 213.48 82.8856Z" fill="#FBBEBE"/>
<path opacity="0.1" d="M202.067 138.093L210.167 133.779C210.167 133.779 210.167 134.588 210.152 135.833C208.969 136.542 207.185 137.61 205.469 138.618C204.536 139.167 203.625 139.7 202.845 140.146C202.664 140.245 202.474 140.327 202.278 140.392C202.17 139.31 202.067 138.093 202.067 138.093Z" fill="black"/>
<path opacity="0.1" d="M221.774 133.77C221.774 133.77 221.774 137.346 221.673 141.021H221.644C221.039 141.043 220.433 141.024 219.83 140.965C218.772 140.851 217.925 140.57 217.621 140.013C217.005 138.929 215.279 137.548 213.821 136.521C213.745 134.416 213.684 132.513 213.684 132.513L221.774 133.77Z" fill="black"/>
<path d="M220.267 102.444C220.062 104.048 220.022 105.67 220.149 107.282C223.87 110.363 223.175 116.853 223.175 116.853C223.175 116.853 226.04 130.001 225.426 131.191C224.813 132.382 226.816 139.695 226.816 139.695C225.108 140.02 223.38 140.219 221.644 140.292C221.039 140.313 220.433 140.294 219.83 140.235C218.772 140.121 217.925 139.84 217.621 139.283C216.477 137.272 211.526 134.272 211.526 134.272C211.526 134.272 208.39 136.16 205.469 137.878C204.536 138.428 203.625 138.96 202.845 139.407C202.211 139.744 201.512 139.937 200.795 139.971C197.322 140.23 192.695 138.046 193.432 137.272C194.333 136.326 198.792 119.73 198.792 119.73C198.792 119.73 201.041 109.459 203.004 108.022C203.349 107.761 203.605 107.4 203.741 106.989C204.413 105.113 203.289 102.106 203.289 102.106C203.289 102.106 196.949 94.2605 197.234 93.807C197.519 93.3535 197.521 90.933 197.521 90.933C197.521 90.933 198.299 87.1125 198.748 85.2638C199.197 83.4152 202.43 82.9617 203.37 83.1268C204.31 83.292 206.436 83.8663 207.334 83.1268C208.232 82.3874 209.749 83.4152 209.749 83.4152L213.475 84.4455L216.826 82.4736C216.826 82.4736 220.183 82.6462 220.471 83.0972C220.758 83.5483 225.176 84.4135 225.176 84.4135C227.424 85.9318 227.343 93.1637 227.343 93.1637C227.343 93.1637 221.943 97.8863 220.839 100.312C220.553 100.993 220.36 101.71 220.267 102.444Z" fill="#575A89"/>
<path d="M226.121 92.1631L227.348 93.149L228.617 104.611L229.884 116.114C229.884 116.114 230.375 117.265 230.785 117.142C231.194 117.019 231.153 123.96 231.153 123.96C231.153 123.96 226.455 121.058 224.771 124.911L223.46 115.621C223.46 115.621 221.781 106.131 221.823 105.392C221.865 104.652 220.964 96.6417 220.964 96.6417L226.121 92.1631Z" fill="#575A89"/>
<path d="M198.14 92.6978L197.239 93.8069C197.239 93.8069 197.322 98.5715 196.625 99.7226C195.928 100.874 198.549 107.61 199.531 107.198C200.513 106.787 202.722 96.2718 202.722 96.1485C202.722 96.0253 198.14 92.6978 198.14 92.6978Z" fill="#575A89"/>
<path d="M198.058 99.4761C198.058 99.4761 195.194 102.392 195.398 103.79C195.602 105.187 198.343 109.577 202.27 107.218C202.27 107.218 205.913 100.339 198.058 99.4761Z" fill="#575A89"/>
<path opacity="0.1" d="M209.786 186.823C209.072 186.85 205.012 186.823 205.012 186.823C204.953 186.761 204.897 186.695 204.845 186.626C205.883 186.271 208.127 185.739 209.786 186.823Z" fill="black"/>
<path opacity="0.1" d="M221.398 186.823C220.684 186.85 216.624 186.823 216.624 186.823C216.565 186.761 216.509 186.695 216.458 186.626C217.491 186.271 219.734 185.739 221.398 186.823Z" fill="black"/>
<path opacity="0.1" d="M205.758 114.571C205.132 120.6 205.339 132.564 205.469 137.878C204.536 138.428 203.625 138.96 202.845 139.407C202.211 139.744 201.512 139.937 200.795 139.971C200.535 138.364 204.138 121.857 205.758 114.571Z" fill="black"/>
<path opacity="0.1" d="M206.525 111.15C206.507 111.236 206.21 112.547 205.758 114.571C205.935 112.843 206.181 111.603 206.525 111.15Z" fill="black"/>
<path opacity="0.1" d="M216.49 110.499C216.49 110.499 219.968 132.436 209.668 135.147C209.666 135.138 216.794 134.051 216.49 110.499Z" fill="black"/>
<path opacity="0.1" d="M221.644 140.292C221.039 140.313 220.433 140.294 219.83 140.235L217.052 110.24C218.824 111.404 220.944 132.69 221.644 140.292Z" fill="black"/>
<path opacity="0.1" d="M209.185 73.6865C209.369 73.6718 209.555 73.691 209.732 73.7432C209.993 73.8735 210.227 74.0506 210.424 74.2657C210.744 74.5343 211.127 74.7171 211.537 74.7968C211.946 74.8766 212.369 74.8507 212.766 74.7217C213.046 74.5961 213.343 74.513 213.647 74.4752C214.116 74.4752 214.521 74.8203 214.764 75.2147C215.007 75.6091 215.132 76.0774 215.341 76.4989C215.549 76.9204 215.883 77.3197 216.342 77.4232C216.562 77.4318 216.779 77.4819 216.98 77.5711C217.104 77.6719 217.199 77.8037 217.255 77.9531C217.638 78.7838 217.943 79.7648 218.76 80.1715C219.061 80.3114 219.388 80.383 219.72 80.381C220.057 80.4058 220.394 80.3448 220.701 80.2035C221.004 80.0341 221.253 79.7842 221.423 79.4813C221.934 78.6334 221.992 77.5834 221.872 76.5999C221.722 75.3593 221.282 74.1718 220.589 73.1344C219.857 72.0851 218.862 71.2496 217.704 70.713C216.546 70.1765 215.268 69.9582 213.998 70.0804C213.555 70.1305 213.116 70.2128 212.685 70.3269C211.124 70.7459 209.592 71.5297 208.645 72.8435C208.416 73.1714 208.164 73.4828 207.891 73.7752C208.321 73.7333 208.753 73.6963 209.185 73.6865Z" fill="black"/>
<path d="M209.185 73.4399C209.369 73.4252 209.555 73.4444 209.732 73.4966C209.993 73.627 210.227 73.8041 210.424 74.0191C210.744 74.2878 211.127 74.4705 211.537 74.5502C211.946 74.63 212.369 74.6041 212.766 74.4751C213.046 74.3495 213.343 74.2664 213.647 74.2286C214.116 74.2286 214.521 74.5737 214.764 74.9681C215.007 75.3625 215.132 75.8308 215.341 76.2523C215.549 76.6738 215.883 77.0731 216.342 77.1766C216.562 77.1852 216.779 77.2354 216.98 77.3245C217.104 77.4253 217.199 77.5571 217.255 77.7065C217.638 78.5372 217.943 79.5182 218.76 79.9249C219.061 80.0648 219.388 80.1364 219.72 80.1344C220.057 80.1593 220.394 80.0982 220.701 79.9569C221.004 79.7875 221.253 79.5376 221.423 79.2347C221.934 78.3868 221.992 77.3368 221.872 76.3533C221.722 75.1127 221.282 73.9252 220.589 72.8878C219.857 71.8385 218.862 71.003 217.704 70.4664C216.546 69.9299 215.268 69.7116 213.998 69.8338C213.555 69.8839 213.116 69.9662 212.685 70.0803C211.124 70.4993 209.592 71.2832 208.645 72.5969C208.416 72.9249 208.164 73.2362 207.891 73.5286C208.321 73.4867 208.753 73.4498 209.185 73.4399Z" fill="#3F3D56"/>
<path opacity="0.1" d="M202.926 87.2334C202.926 87.2334 203.213 89.5356 202.231 90.1099C201.25 90.6842 202.926 87.2334 202.926 87.2334Z" fill="black"/>
<path opacity="0.1" d="M223.747 105.064C223.747 105.064 226.079 101.613 226.407 102.599C226.736 103.585 223.747 105.064 223.747 105.064Z" fill="black"/>
<path opacity="0.1" d="M223.912 106.213C223.912 106.213 226.211 103.378 226.432 104.487C226.653 105.597 223.912 106.213 223.912 106.213Z" fill="black"/>
<path opacity="0.1" d="M217.157 102.838C216.323 102.85 215.509 102.581 214.845 102.074H214.644C213.955 102.706 213.051 103.048 212.118 103.028C211.633 103.039 211.151 102.952 210.701 102.77C210.25 102.589 209.842 102.318 209.499 101.973H209.231C208.525 102.551 207.637 102.859 206.726 102.842C205.815 102.826 204.939 102.485 204.254 101.882L203.294 101.865C203.294 101.865 204.418 104.872 203.746 106.748L220.149 107.041C220.022 105.428 220.062 103.807 220.267 102.202V102.18L219.366 102.163C218.718 102.614 217.945 102.85 217.157 102.838Z" fill="black"/>
<path opacity="0.1" d="M217.157 103.331C216.323 103.343 215.509 103.074 214.845 102.567H214.644C213.955 103.199 213.051 103.54 212.118 103.521C211.633 103.532 211.151 103.444 210.701 103.263C210.25 103.082 209.842 102.811 209.499 102.466H209.231C208.525 103.044 207.637 103.352 206.726 103.335C205.815 103.318 204.939 102.978 204.254 102.375L203.294 102.357C203.294 102.357 204.418 105.365 203.746 107.24L220.149 107.534C220.022 105.921 220.062 104.3 220.267 102.695V102.673L219.366 102.656C218.718 103.107 217.945 103.343 217.157 103.331Z" fill="black"/>
<path d="M217.157 103.085C216.323 103.097 215.509 102.828 214.845 102.321H214.644C213.955 102.953 213.051 103.294 212.118 103.275C211.633 103.286 211.151 103.198 210.701 103.017C210.25 102.836 209.842 102.564 209.499 102.22H209.231C208.525 102.798 207.637 103.106 206.726 103.089C205.815 103.072 204.939 102.732 204.254 102.129L203.294 102.111C203.294 102.111 204.418 105.118 203.746 106.994L220.149 107.288C220.022 105.675 220.062 104.053 220.267 102.449V102.427L219.366 102.41C218.718 102.861 217.945 103.097 217.157 103.085Z" fill="#3F3D56"/>
<path opacity="0.1" d="M216.428 86.6489C216.428 86.6489 219.881 86.8708 219.903 87.3637C219.925 87.8567 216.428 86.6489 216.428 86.6489Z" fill="black"/>
<path opacity="0.1" d="M208.038 84.5469C208.038 84.5469 204.585 84.7687 204.563 85.2617C204.541 85.7547 208.038 84.5469 208.038 84.5469Z" fill="black"/>
<path opacity="0.1" d="M221.236 94.6256C221.202 94.601 221.168 94.5813 221.133 94.5591C222.017 95.3577 221.87 97.1028 220.785 98.5423C219.7 99.9817 218.053 100.581 217.052 99.9349C217.083 99.962 217.11 99.9916 217.145 100.019C218.127 100.773 219.845 100.181 220.979 98.6926C222.113 97.2039 222.223 95.3823 221.236 94.6256Z" fill="black"/>
<path opacity="0.1" d="M202.266 98.3573C201.392 96.7749 201.505 95.0273 202.494 94.3643C202.457 94.3815 202.418 94.3963 202.381 94.416C201.296 95.0224 201.154 96.839 202.052 98.4756C202.95 100.112 204.57 100.94 205.655 100.344C205.691 100.323 205.726 100.3 205.758 100.275C204.676 100.768 203.139 99.9397 202.266 98.3573Z" fill="black"/>
<path opacity="0.1" d="M203.434 85.0125L203.117 85.5055L202.31 85.0741L202.734 84.4185C203.015 84.5518 203.256 84.7566 203.434 85.0125Z" fill="black"/>
<path d="M198.304 103.255C198.304 103.255 199.023 99.8584 198.059 98.7788C197.094 97.6992 197.403 92.0399 198.876 92.1631C200.349 92.2864 202.558 96.7625 202.19 97.709C201.821 98.6555 200.43 103.501 200.43 103.501L198.304 103.255Z" fill="#FBBEBE"/>
<path opacity="0.1" d="M221.398 78.7494C221.229 79.0522 220.979 79.3021 220.677 79.4716C220.37 79.6129 220.032 79.6739 219.695 79.6491C219.364 79.651 219.036 79.5795 218.735 79.4396C217.918 79.0304 217.614 78.0494 217.231 77.2212C217.182 77.0718 217.096 76.9376 216.98 76.8318C216.782 76.741 216.568 76.6883 216.35 76.6765C215.891 76.5729 215.559 76.1712 215.348 75.7521C215.137 75.3331 215.012 74.8697 214.771 74.468C214.531 74.0662 214.123 73.7137 213.654 73.7285C213.349 73.7691 213.052 73.8564 212.773 73.9873C212.376 74.1153 211.953 74.1404 211.544 74.0602C211.134 73.9801 210.752 73.7973 210.432 73.5289C210.235 73.3138 210 73.1367 209.74 73.0063C209.562 72.9541 209.377 72.9349 209.192 72.9496C208.91 72.9496 208.63 72.9767 208.348 72.9989C208.208 73.183 208.058 73.3591 207.899 73.5264C208.328 73.4894 208.76 73.4524 209.192 73.4426C209.377 73.4279 209.562 73.4471 209.74 73.4993C210 73.6297 210.235 73.8067 210.432 74.0218C210.752 74.2903 211.134 74.473 211.544 74.5532C211.953 74.6334 212.376 74.6083 212.773 74.4803C213.052 74.3494 213.349 74.2621 213.654 74.2215C214.123 74.2215 214.528 74.5666 214.771 74.9609C215.014 75.3553 215.139 75.8236 215.348 76.2451C215.557 76.6666 215.891 77.0659 216.35 77.1694C216.568 77.1813 216.782 77.2339 216.98 77.3247C217.104 77.4255 217.199 77.5573 217.255 77.7068C217.638 78.5374 217.942 79.5184 218.76 79.9251C219.06 80.0651 219.388 80.1366 219.72 80.1346C220.056 80.1595 220.394 80.0984 220.701 79.9572C221.003 79.7877 221.253 79.5378 221.423 79.235C221.804 78.5382 221.975 77.7451 221.914 76.9525C221.895 77.5855 221.718 78.2035 221.398 78.7494Z" fill="black"/>
<path d="M199.391 105.949C200.611 105.949 201.6 105.276 201.6 104.445C201.6 103.615 200.611 102.942 199.391 102.942C198.171 102.942 197.182 103.615 197.182 104.445C197.182 105.276 198.171 105.949 199.391 105.949Z" fill="#575A89"/>
<path d="M127.386 188.139C169.206 188.139 203.107 154.095 203.107 112.099C203.107 70.1026 169.206 36.0581 127.386 36.0581C85.5664 36.0581 51.6648 70.1026 51.6648 112.099C51.6648 154.095 85.5664 188.139 127.386 188.139Z" fill="#E90900"/>
<path d="M167.117 150.311C167.117 162.315 148.325 151.337 128.179 151.337C108.032 151.337 87.655 161.861 87.655 149.858C87.655 143.013 94.1496 133.494 103.467 126.58C110.487 121.369 119.107 117.637 127.766 117.637C136.671 117.637 145.395 121.677 152.353 127.223C161.135 134.216 167.117 143.612 167.117 150.311Z" fill="#444053"/>
<path d="M152.351 127.218C141.642 125.599 122.273 123.624 103.467 126.575C110.487 121.364 119.107 117.632 127.767 117.632C136.669 117.632 145.392 121.672 152.351 127.218Z" fill="#F6F8FB"/>
<path opacity="0.05" d="M87.655 58.4219C87.655 58.4219 64.8454 73.0655 65.0319 95.9713C65.2184 118.877 87.655 58.4219 87.655 58.4219Z" fill="black"/>
<path d="M203.078 17.064C203.078 17.064 182.411 15.8143 184.848 30.3569C184.848 30.3569 184.358 32.9253 186.684 34.0936C186.684 34.0936 186.721 33.0165 188.803 33.3813C189.544 33.5059 190.298 33.5423 191.049 33.4897C192.062 33.4205 193.026 33.0206 193.793 32.351C193.793 32.351 199.602 29.9428 201.863 20.4063C201.863 20.4063 203.535 18.326 203.468 17.7936L199.98 19.2873C199.98 19.2873 201.171 21.8137 200.226 23.9138C200.226 23.9138 200.113 19.3809 199.443 19.4771C199.308 19.4993 197.632 20.3521 197.632 20.3521C197.632 20.3521 199.681 24.7543 198.122 27.9512C198.122 27.9512 198.709 22.5285 196.979 20.6701L194.524 22.1095C194.524 22.1095 196.92 26.6547 195.295 30.3643C195.295 30.3643 195.712 24.6754 194.009 22.4595L191.782 24.2022C191.782 24.2022 194.033 28.6833 192.661 31.7594C192.661 31.7594 192.482 25.1364 191.301 24.636C191.301 24.636 189.355 26.3614 189.058 27.0688C189.058 27.0688 190.599 30.3199 189.645 32.0355C189.645 32.0355 189.058 27.6234 188.577 27.5987C188.577 27.5987 186.638 30.522 186.434 32.5284C186.434 32.5284 186.52 29.546 188.106 27.3202C188.106 27.3202 186.23 27.6431 185.138 28.8657C185.138 28.8657 185.44 26.7977 188.574 26.6177C188.574 26.6177 190.177 24.3994 190.607 24.2663C190.607 24.2663 187.477 24.0025 185.58 24.848C185.58 24.848 187.249 22.8983 191.179 23.7832L193.388 21.9838C193.388 21.9838 189.269 21.4169 187.521 22.043C187.521 22.043 189.532 20.3176 193.979 21.5747L196.372 20.1377C196.372 20.1377 192.86 19.3785 190.766 19.6447C190.766 19.6447 192.975 18.4492 197.072 19.7457L198.79 18.9742C198.79 18.9742 196.215 18.4665 195.462 18.3876C194.708 18.3087 194.669 18.0968 194.669 18.0968C196.304 17.8298 197.981 18.0252 199.512 18.6612C199.512 18.6612 203.139 17.2932 203.078 17.064Z" fill="#E90900"/>
<path d="M181.881 10.5987C181.881 10.5987 172.554 10.0318 173.644 16.6031C173.644 16.6031 173.425 17.764 174.473 18.2915C174.473 18.2915 174.488 17.7985 175.431 17.9711C175.766 18.0264 176.106 18.0429 176.444 18.0204C176.903 17.9875 177.338 17.8068 177.686 17.5052C177.686 17.5052 180.31 16.4157 181.331 12.1072C181.331 12.1072 182.087 11.1681 182.068 10.9265L180.492 11.6019C180.492 11.6019 181.032 12.7431 180.607 13.6921C180.607 13.6921 180.556 11.6438 180.254 11.6931C180.192 11.6931 179.434 12.0875 179.434 12.0875C179.434 12.0875 180.362 14.0766 179.662 15.521C179.662 15.521 179.927 13.0709 179.147 12.2304L178.037 12.8811C178.037 12.8811 179.12 14.9368 178.386 16.6129C178.386 16.6129 178.572 14.0421 177.804 13.0414L176.798 13.8276C176.798 13.8276 177.814 15.8513 177.195 17.2415C177.195 17.2415 177.114 14.2491 176.579 14.0224C176.579 14.0224 175.701 14.8013 175.566 15.1217C175.566 15.1217 176.263 16.6006 175.831 17.3672C175.831 17.3672 175.566 15.3731 175.34 15.3657C175.34 15.3657 174.464 16.6844 174.373 17.5841C174.415 16.7468 174.675 15.9353 175.126 15.2301C174.621 15.3261 174.155 15.5686 173.786 15.9277C173.786 15.9277 173.921 14.9935 175.342 14.9122C175.342 14.9122 176.066 13.9115 176.26 13.8498C176.26 13.8498 174.846 13.7315 173.99 14.1136C173.99 14.1136 174.743 13.2312 176.52 13.6206L177.502 12.8097C177.502 12.8097 175.642 12.5632 174.851 12.8343C174.851 12.8343 175.76 12.0554 177.77 12.6248L178.85 11.9741C178.85 11.9741 177.264 11.6315 176.317 11.7547C176.317 11.7547 177.316 11.2149 179.166 11.8015L179.94 11.4515C179.94 11.4515 178.776 11.2223 178.437 11.1878C178.099 11.1533 178.077 11.0572 178.077 11.0572C178.813 10.9341 179.57 11.0194 180.261 11.3036C180.261 11.3036 181.908 10.7022 181.881 10.5987Z" fill="#E90900"/>
<path opacity="0.1" d="M263.39 179.936C267.041 179.936 270 179.434 270 178.815C270 178.195 267.041 177.693 263.39 177.693C259.739 177.693 256.78 178.195 256.78 178.815C256.78 179.434 259.739 179.936 263.39 179.936Z" fill="#E90900"/>
<path opacity="0.1" d="M11.4796 198.593C15.1302 198.593 18.0896 198.091 18.0896 197.471C18.0896 196.852 15.1302 196.35 11.4796 196.35C7.82901 196.35 4.86963 196.852 4.86963 197.471C4.86963 198.091 7.82901 198.593 11.4796 198.593Z" fill="#E90900"/>
<path opacity="0.1" d="M49.8509 200C53.5015 200 56.4609 199.498 56.4609 198.878C56.4609 198.259 53.5015 197.757 49.8509 197.757C46.2004 197.757 43.241 198.259 43.241 198.878C43.241 199.498 46.2004 200 49.8509 200Z" fill="#E90900"/>
<path d="M248.923 192.509C254.374 192.509 258.793 191.759 258.793 190.833C258.793 189.908 254.374 189.157 248.923 189.157C243.472 189.157 239.054 189.908 239.054 190.833C239.054 191.759 243.472 192.509 248.923 192.509Z" fill="#E90900"/>
<path d="M253.003 188.095C253.453 187.725 253.782 187.228 253.945 186.668C254.065 186.103 253.825 185.423 253.287 185.216C252.684 184.984 252.038 185.406 251.55 185.829C251.061 186.253 250.499 186.737 249.858 186.648C250.188 186.348 250.434 185.968 250.574 185.544C250.713 185.12 250.741 184.667 250.654 184.23C250.626 184.048 250.549 183.878 250.433 183.737C250.096 183.377 249.49 183.53 249.088 183.813C247.811 184.715 247.455 186.456 247.448 188.023C247.32 187.459 247.428 186.87 247.426 186.298C247.424 185.726 247.264 185.065 246.778 184.762C246.476 184.6 246.138 184.521 245.796 184.53C245.222 184.508 244.584 184.565 244.191 184.986C243.7 185.512 243.83 186.389 244.255 186.958C244.679 187.528 245.322 187.897 245.914 188.294C246.39 188.579 246.796 188.967 247.102 189.431C247.138 189.496 247.167 189.564 247.19 189.635H250.786C251.591 189.224 252.336 188.706 253.003 188.095Z" fill="#E90900"/>
<path d="M14.5651 167.427C14.5651 167.427 15.9126 169.197 13.9417 171.864C11.9707 174.531 10.3458 176.794 10.9963 178.46C10.9963 178.46 13.9687 173.496 16.3962 173.424C18.8237 173.353 17.2258 170.412 14.5651 167.427Z" fill="#E90900"/>
<path opacity="0.1" d="M14.565 167.427C14.6821 167.598 14.7746 167.785 14.84 167.982C17.2012 170.767 18.4579 173.368 16.1899 173.432C14.0741 173.493 11.5264 177.289 10.9299 178.248C10.9508 178.322 10.9754 178.395 11.0036 178.467C11.0036 178.467 13.976 173.503 16.4035 173.432C18.831 173.36 17.2257 170.412 14.565 167.427Z" fill="black"/>
<path d="M17.0723 169.683C17.0723 170.306 17.0008 170.811 16.9146 170.811C16.8283 170.811 16.7593 170.318 16.7593 169.683C16.7593 169.047 16.8455 169.352 16.9343 169.352C17.023 169.352 17.0723 169.059 17.0723 169.683Z" fill="#FFD037"/>
<path d="M17.92 170.427C17.3752 170.725 16.9016 170.905 16.8599 170.828C16.8181 170.752 17.2279 170.451 17.7727 170.153C18.3175 169.855 18.1016 170.072 18.1433 170.153C18.185 170.234 18.4745 170.128 17.92 170.427Z" fill="#FFD037"/>
<path d="M7.44216 167.427C7.44216 167.427 6.09464 169.197 8.06315 171.864C10.0317 174.531 11.659 176.794 11.0086 178.46C11.0086 178.46 8.0337 173.496 5.60865 173.424C3.1836 173.353 4.77903 170.412 7.44216 167.427Z" fill="#E90900"/>
<path opacity="0.1" d="M7.44206 167.427C7.32397 167.598 7.23135 167.784 7.16716 167.982C4.80593 170.767 3.54677 173.368 5.81718 173.432C7.93051 173.493 10.4807 177.289 11.0747 178.248C11.0547 178.322 11.0309 178.395 11.0035 178.467C11.0035 178.467 8.02869 173.503 5.60364 173.432C3.17859 173.36 4.77893 170.412 7.44206 167.427Z" fill="black"/>
<path d="M4.93604 169.683C4.93604 170.306 5.00505 170.811 5.09132 170.811C5.17759 170.811 5.24661 170.318 5.24661 169.683C5.24661 169.047 5.16034 169.352 5.07407 169.352C4.9878 169.352 4.93604 169.059 4.93604 169.683Z" fill="#FFD037"/>
<path d="M4.07446 170.427C4.61923 170.725 5.0953 170.905 5.13701 170.828C5.17873 170.752 4.76892 170.451 4.22415 170.153C3.67937 169.855 3.89287 170.072 3.85361 170.153C3.81434 170.234 3.52968 170.128 4.07446 170.427Z" fill="#FFD037"/>
<path d="M5.36548 178.236C5.36548 178.236 9.13559 178.12 10.2745 177.306C11.4134 176.493 16.0745 175.524 16.3567 176.813C16.639 178.102 22.0217 183.296 17.7656 183.33C13.5095 183.365 7.87643 182.662 6.74245 181.97C5.60847 181.277 5.36548 178.236 5.36548 178.236Z" fill="#A8A8A8"/>
<path opacity="0.2" d="M17.8368 182.889C13.5807 182.924 7.94761 182.221 6.81363 181.528C5.94965 181.001 5.60602 179.105 5.49066 178.23H5.36548C5.36548 178.23 5.61093 181.284 6.73755 181.977C7.86416 182.67 13.5046 183.372 17.7607 183.338C18.988 183.338 19.4126 182.887 19.3905 182.238C19.2187 182.635 18.7523 182.882 17.8368 182.889Z" fill="black"/>
<path d="M100.465 102.128C101.906 102.047 108.688 101.534 112.995 99.0669C113.687 98.6581 114.469 98.427 115.271 98.394C116.64 98.3545 118.216 98.9288 117.207 102.143C115.573 107.4 106.081 113.316 100.19 112.988C94.5253 112.673 87.8048 110.38 83.3671 102.32C82.9419 101.545 82.7325 100.669 82.7608 99.7841C82.8124 98.1573 83.4015 96.1189 86.4426 98.3915C90.5514 101.46 98.3469 102.042 99.9104 102.128C100.095 102.138 100.28 102.138 100.465 102.128Z" fill="#444053"/>
<path d="M154.955 102.128C156.396 102.047 163.178 101.534 167.485 99.0669C168.177 98.6581 168.959 98.427 169.761 98.394C171.13 98.3545 172.706 98.9288 171.697 102.143C170.063 107.4 160.571 113.316 154.68 112.988C149.015 112.673 142.295 110.38 137.857 102.32C137.432 101.545 137.222 100.669 137.251 99.7841C137.302 98.1573 137.891 96.1189 140.933 98.3915C145.041 101.46 152.837 102.042 154.4 102.128C154.585 102.138 154.77 102.138 154.955 102.128Z" fill="#444053"/>
</g>
<defs>
<linearGradient id="paint0_linear_1_3987" x1="218.976" y1="186.833" x2="218.976" y2="65.0594" gradientUnits="userSpaceOnUse">
<stop stop-color="#808080" stop-opacity="0.25"/>
<stop offset="0.54" stop-color="#808080" stop-opacity="0.12"/>
<stop offset="1" stop-color="#808080" stop-opacity="0.1"/>
</linearGradient>
<clipPath id="clip0_1_3987">
<rect width="270" height="200" fill="white"/>
</clipPath>
</defs>
</svg>
