<svg width="250" height="196" viewBox="0 0 250 196" fill="none" xmlns="http://www.w3.org/2000/svg">
<g opacity="0.7">
<path d="M135.735 83.0593C135.735 83.0593 153.874 77.474 160.222 80.1697C166.569 82.8655 162.115 89.9008 162.115 89.9008L135.735 83.0593Z" fill="#FF4A4A"/>
<path d="M160.882 107.896V85.8567C156.463 85.1532 152 84.7583 147.526 84.6749C139.231 84.5567 131.586 86.3779 125.103 88.8928V107.894L160.882 107.896Z" fill="#FF8468"/>
<path d="M162.531 85.78C160.793 85.5177 159.589 85.3865 157.866 85.2529C157.817 86.9677 159.886 90.7307 155.515 96.284C151.343 101.583 138.996 103.867 133.094 99.5494C128.071 95.8751 131.689 88.0125 131.925 86.6676C128.914 87.1202 125.693 88.3103 122.959 89.5902L124.267 185.659L163.839 186.368L162.531 85.78Z" fill="#D6DAE5"/>
<path d="M199.308 100.459C189.369 89.9742 167.301 85.3131 167.301 85.3131C167.301 85.3131 163.856 79.6593 156.71 78.5566C160.733 83.9859 159.341 93.2112 158.037 97.4657C150.519 121.999 148.41 147.486 145.076 184.748L190.306 186.367C190.306 186.367 202.373 103.692 199.308 100.459Z" fill="#B30700"/>
<path opacity="0.4" d="M162.427 185.369L164.156 81.9012C162.018 80.1409 159.447 78.9859 156.71 78.5566C160.733 83.9859 159.341 93.2112 158.037 97.4657C154.737 108.233 152.476 119.184 150.701 131.232L149.809 184.919L162.427 185.369Z" fill="#302641"/>
<path opacity="0.4" d="M189.226 93.1909C184.99 90.9455 180.496 89.2106 176.684 87.9448L175.048 185.821L187.67 186.273L189.226 93.1909Z" fill="#302641"/>
<path opacity="0.4" d="M158.037 97.4645C157.782 98.2972 157.533 99.1324 157.29 99.9699L199.442 100.672C199.409 100.595 199.364 100.525 199.308 100.463C193.375 94.1991 183.121 90.0202 175.819 87.6648L159.353 87.3906C159.499 91.2753 158.754 95.1197 158.037 97.4645Z" fill="#302641"/>
<path opacity="0.4" d="M147.06 162.865C146.676 166.912 146.289 171.11 145.901 175.46L191.743 176.223C192.242 172.665 192.836 168.363 193.474 163.638L147.06 162.865Z" fill="#302641"/>
<path opacity="0.4" d="M154.159 112.221C153.246 116.316 152.442 120.493 151.716 124.794L198.186 125.568C198.681 120.945 199.094 116.656 199.379 112.974L154.159 112.221Z" fill="#302641"/>
<path opacity="0.4" d="M149.808 137.683C149.268 141.831 148.768 146.119 148.292 150.579L195.098 151.359C195.647 147.112 196.193 142.755 196.712 138.464L149.808 137.683Z" fill="#302641"/>
<path d="M131.785 82.8193C126.005 83.1455 118.837 89.9882 118.837 89.9882C117.227 90.7092 114.986 91.7409 113.562 92.5055C106.463 96.3193 101.81 100.384 100.783 101.803C98.6398 104.768 101.276 186.367 101.276 186.367L130.876 184.516C131.045 163.834 131.17 155.599 130.626 146.925C129.338 130.674 124.931 114.408 124.278 97.0272C124.031 90.4409 132.088 86.6201 132.088 86.6201C132.088 86.6201 132.094 84.195 131.785 82.8193Z" fill="#FF5F5C"/>
<path d="M127.283 96.6102C127.036 90.0227 132.093 86.6203 132.093 86.6203C132.093 86.6203 132.093 84.1952 131.785 82.8195C126.004 83.1457 118.837 89.9873 118.837 89.9885C118.34 90.4612 116.919 89.94 116.368 89.8065C115.936 89.7013 115.626 89.6516 115.26 89.4106C114.933 89.1955 114.831 88.7617 114.409 88.6495C114.179 88.588 113.936 88.6636 113.716 88.7546C113.072 89.0234 112.496 89.4329 112.031 89.953C111.934 89.3881 111.304 89.0513 110.729 89.0572C110.154 89.0631 109.62 89.3196 109.087 89.5299C108.099 89.9128 107.229 89.6363 106.21 89.6398C105.05 89.658 103.89 89.6016 102.737 89.4708C99.254 89.033 95.8933 87.9052 92.8521 86.1535C89.7898 84.3866 87.4161 81.6838 83.9928 80.5375C76.6813 78.0828 67.4422 76.2935 60.4324 80.7915C55.1183 84.2011 51.9802 90.4021 51.9707 96.6634C51.9707 101.067 53.522 105.343 56.2365 108.801C58.9509 112.259 63.3232 115.685 68.6006 118.662C77.6788 123.784 89.4005 127.525 99.74 127.525C100.005 152.027 101.278 186.365 101.278 186.365L130.876 184.516C131.045 163.834 131.169 155.6 130.626 146.925C129.338 130.674 127.937 113.99 127.283 96.6102Z" fill="#FF5F5C"/>
<path d="M127.283 96.6102C127.036 90.0227 132.093 86.6203 132.093 86.6203C132.093 86.6203 132.093 84.1952 131.785 82.8195C126.004 83.1457 118.837 89.9873 118.837 89.9885C118.34 90.4612 116.919 89.94 116.368 89.8065C115.936 89.7013 115.626 89.6516 115.26 89.4106C114.933 89.1955 114.831 88.7617 114.409 88.6495C114.179 88.588 113.936 88.6636 113.716 88.7546C113.072 89.0234 112.496 89.4329 112.031 89.953C111.934 89.3881 111.304 89.0513 110.729 89.0572C110.154 89.0631 109.62 89.3196 109.087 89.5299C108.099 89.9128 107.229 89.6363 106.21 89.6398C105.05 89.658 103.89 89.6016 102.737 89.4708C99.254 89.033 95.8933 87.9052 92.8521 86.1535C89.7898 84.3866 87.4161 81.6838 83.9928 80.5375C76.6813 78.0828 67.4422 76.2935 60.4324 80.7915C55.1183 84.2011 51.9802 90.4021 51.9707 96.6634C51.9707 101.067 53.522 105.343 56.2365 108.801C58.9509 112.259 63.3232 115.685 68.6006 118.662C77.6788 123.784 89.4005 127.525 99.74 127.525C100.005 152.027 101.278 186.365 101.278 186.365L130.876 184.516C131.045 163.834 131.169 155.6 130.626 146.925C129.338 130.674 127.937 113.99 127.283 96.6102Z" fill="#B30700"/>
<path opacity="0.4" d="M62.2454 79.7905C61.6199 80.085 61.014 80.4194 60.4314 80.7915C55.1173 84.2011 51.9792 90.4021 51.9697 96.6634C51.9697 101.067 53.521 105.343 56.2355 108.801C57.8164 110.81 59.9759 112.827 62.5507 114.748L62.2454 79.7905Z" fill="#302641"/>
<path opacity="0.4" d="M87.8351 82.5877C86.6519 81.7604 85.4153 81.01 83.9954 80.5349C81.2501 79.6154 78.2363 78.7893 75.1704 78.3521L75.5514 122.079C79.6367 123.831 83.875 125.202 88.2126 126.176L87.8351 82.5877Z" fill="#302641"/>
<path opacity="0.4" d="M130.626 146.925C129.335 130.67 127.935 113.99 127.283 96.61C127.036 90.0225 132.094 86.6201 132.094 86.6201C132.094 86.6201 132.094 84.195 131.785 82.8193C129.818 82.9304 127.692 83.7967 125.74 84.8899L126.611 184.783L130.871 184.516C131.045 163.829 131.169 155.599 130.626 146.925Z" fill="#302641"/>
<path opacity="0.4" d="M113.991 185.573L113.148 89.0439C112.731 89.2871 112.354 89.5937 112.031 89.9528C111.934 89.3879 111.304 89.051 110.729 89.0569C110.154 89.0629 109.621 89.3193 109.087 89.5297C108.099 89.9126 107.229 89.636 106.21 89.6396C105.05 89.6578 103.89 89.6013 102.737 89.4706C101.993 89.3784 101.252 89.2508 100.519 89.0936L101.367 186.363L113.991 185.573Z" fill="#302641"/>
<path opacity="0.4" d="M100.673 168.292L131.005 168.027C131.032 162.931 131.027 158.927 130.961 155.416L100.314 155.682C100.429 160.14 100.554 164.418 100.673 168.292Z" fill="#302641"/>
<path opacity="0.4" d="M101.082 180.901C101.2 184.328 101.276 186.367 101.276 186.367L130.876 184.516C130.888 183.177 130.899 181.885 130.909 180.641L101.082 180.901Z" fill="#302641"/>
<path opacity="0.4" d="M60.4324 80.7914C56.1513 83.5379 53.2841 88.0962 52.3257 93.0374L127.894 92.3827C129.196 88.576 132.093 86.6237 132.093 86.6237C132.093 86.6237 132.093 84.1986 131.785 82.8229C126.004 83.1491 118.837 89.9907 118.837 89.9919C118.34 90.4646 116.919 89.9434 116.368 89.8099C115.936 89.7047 115.626 89.655 115.26 89.414C114.933 89.1989 114.83 88.7651 114.409 88.6529C114.179 88.5914 113.936 88.667 113.716 88.758C113.072 89.0268 112.496 89.4363 112.031 89.9564C111.934 89.3915 111.304 89.0547 110.729 89.0606C110.154 89.0665 109.62 89.323 109.087 89.5333C108.099 89.9162 107.229 89.6397 106.21 89.6432C105.05 89.6614 103.89 89.605 102.737 89.4742C99.254 89.0364 95.8933 87.9086 92.8521 86.1569C89.7909 84.39 87.4161 81.6872 83.9928 80.5409C83.613 80.4132 83.2261 80.2879 82.8356 80.165L61.1672 80.3541C60.9211 80.4889 60.675 80.6354 60.4324 80.7914Z" fill="#302641"/>
<path opacity="0.4" d="M99.7769 130.462C99.8325 134.615 99.9129 138.986 100.014 143.381L130.328 143.116C129.987 138.845 129.648 134.541 129.312 130.205L99.7769 130.462Z" fill="#302641"/>
<path opacity="0.4" d="M54.0369 105.328C54.6505 106.557 55.3875 107.721 56.2366 108.801C58.6895 111.926 62.5317 115.049 67.1666 117.826L128.382 117.293C128.106 113.129 127.859 108.927 127.642 104.687L54.0369 105.328Z" fill="#302641"/>
<path opacity="0.4" d="M117.415 90.083C115.956 93.3153 113.91 99.1547 114.763 105.121L114.845 105.695L115.425 105.649C115.504 105.649 124.245 107.024 128.476 118.735C128.425 118.423 128.404 118.106 128.415 117.79C128.341 116.701 128.27 115.61 128.202 114.517C126.722 110.559 122.813 107.515 120.881 106.223C118.73 104.786 116.842 104.476 115.92 104.419C115.265 98.6028 117.488 92.8367 118.833 89.9873C118.546 90.2556 117.965 90.2036 117.415 90.083Z" fill="white"/>
<path opacity="0.4" d="M161.776 109.349C165.702 107.498 169.293 107.67 169.327 107.672L169.884 107.703L169.973 107.153C171.748 96.1468 170.127 89.0973 168.802 85.5424L167.374 85.3237C168.624 88.3894 170.535 95.2936 168.835 106.431C166.228 106.499 163.664 107.102 161.302 108.204C158.77 109.386 155.762 111.529 153.476 115.39C153.069 117.36 152.682 119.35 152.317 121.361C153.898 115.607 157.07 111.566 161.776 109.349Z" fill="white"/>
<path opacity="0.4" d="M99.6124 127.527C99.7792 122.244 100.124 117.481 100.128 117.419L98.8953 117.289C98.8953 117.351 98.5403 122.155 98.3723 127.504C98.7876 127.517 99.2006 127.525 99.6124 127.527Z" fill="white"/>
<path opacity="0.4" d="M194.642 118.395L193.406 118.426C193.406 118.51 193.558 124.474 193.612 130.717C194.02 130.814 194.433 130.888 194.849 130.938C194.799 124.599 194.643 118.48 194.642 118.395Z" fill="white"/>
<path opacity="0.4" d="M88.6526 85.6797C88.1865 84.9437 87.6584 84.2486 87.0741 83.6021C83.8698 80.0566 79.0373 78.0121 73.8154 77.979H73.6864C63.4818 77.979 54.484 85.5166 53.5977 94.8341C53.3865 96.9238 53.6182 99.0345 54.278 101.029C54.9377 103.023 56.0106 104.856 57.4269 106.409C60.6312 109.954 65.4638 111.999 70.6868 112.031H70.8158C81.0204 112.031 90.017 104.493 90.9033 95.1745C91.1109 93.0658 90.8726 90.9371 90.2039 88.9262C92.0475 91.3076 93.6142 95.1355 93.0355 101.126L94.2662 101.244C95.1406 92.1963 91.3659 87.7042 88.6526 85.6797ZM89.6726 95.0587C88.8443 103.76 80.4004 110.797 70.8158 110.797H70.6974C65.8211 110.767 61.3199 108.866 58.3475 105.583C57.0465 104.156 56.061 102.471 55.4553 100.639C54.8496 98.8059 54.6372 96.8664 54.8319 94.9464C55.6602 86.2458 64.1053 79.2093 73.6888 79.2093H73.8071C78.6835 79.24 83.1847 81.1404 86.1571 84.4246C86.3784 84.6693 86.5866 84.9234 86.789 85.1798L86.434 85.7235C86.4624 85.7424 86.5215 85.7766 86.6091 85.8239C86.9963 86.0373 87.3702 86.2741 87.7285 86.533C89.2893 89.0874 89.972 92.0811 89.6726 95.0587Z" fill="white"/>
<path d="M141.901 60.5079C134.842 60.6828 129.819 63.3903 130.561 67.7169L132.433 90.8215C133.176 95.1493 140.065 96.0215 147.122 95.849C154.18 95.6764 158.967 91.7303 158.225 87.4025L155.049 68.4C154.305 64.0734 148.958 60.3329 141.901 60.5079Z" fill="#FF8468"/>
<path opacity="0.4" d="M125.648 139.971L125.638 139.49L106.27 140.081L106.294 140.599C106.546 145.834 107.219 158.105 108.03 158.964C108.842 159.823 115.164 162.364 116.423 162.864L116.62 162.942L116.816 162.851C119.293 161.705 125.099 158.923 125.573 157.87C126.012 156.858 125.742 143.91 125.648 139.971ZM124.67 140.508C124.692 141.479 124.713 142.535 124.734 143.627L107.476 144.218C107.416 143.154 107.358 142.09 107.307 141.027L124.67 140.508ZM124.661 157.495C124.244 158.086 120.297 160.156 116.615 161.868C113.607 160.665 109.338 158.824 108.776 158.293C108.405 157.565 107.91 151.649 107.53 145.208L124.747 144.617C124.841 150.349 124.876 156.722 124.661 157.501V157.495Z" fill="white"/>
<path opacity="0.4" d="M178.076 139.641L156.285 139.544L156.249 140.001C155.607 148.421 154.909 158.579 155.229 159.203C155.335 159.404 155.652 160.014 166.494 163.033L166.697 163.086L166.887 162.981C168.286 162.218 175.302 158.398 176.036 157.111C176.523 156.258 177.177 149.701 177.617 145.21H177.643L177.702 144.146C177.856 142.374 177.982 140.837 178.04 140.121L178.076 139.641ZM175.16 156.564C174.776 157.236 170.552 159.852 166.621 162C161.956 160.7 156.937 159.095 156.154 158.612C156.053 157.571 156.465 150.958 156.894 144.886L176.609 144.974C176.12 150.324 175.512 155.914 175.16 156.564ZM156.964 143.918C157.052 142.703 157.14 141.49 157.216 140.517L176.992 140.606C176.911 141.577 176.807 142.792 176.697 144.006L156.964 143.918Z" fill="white"/>
<path d="M184.865 159.562C184.865 159.562 179.268 144.186 177.125 128.874C174.982 113.561 179.675 89.8098 193.184 95.7674C212.019 104.073 224.61 165.15 216.202 176.958C210.935 184.357 201.141 185.733 197.312 183.918C191.659 181.242 188.178 171.703 184.865 159.562Z" fill="#B30700"/>
<path opacity="0.4" d="M180.101 102.357C176.836 109.538 175.959 120.476 177.131 128.874C179.273 144.187 184.87 159.562 184.87 159.562C188.184 171.703 191.665 181.243 197.317 183.923C198.487 184.477 200.214 184.733 202.196 184.611L180.101 102.357Z" fill="#302641"/>
<path opacity="0.4" d="M193.184 95.7675C192.749 95.5753 192.303 95.4083 191.848 95.2676L214.373 179.128C215.041 178.46 215.653 177.738 216.202 176.969C224.61 165.15 212.019 104.073 193.184 95.7675Z" fill="#302641"/>
<path opacity="0.4" d="M178.345 135.984L212.584 126.809C211.27 122.592 209.709 118.455 207.908 114.421L176.643 122.799C176.687 124.832 176.848 126.86 177.123 128.874C177.458 131.265 177.877 133.651 178.345 135.984Z" fill="#302641"/>
<path opacity="0.4" d="M177.983 108.801L201.1 102.606C198.63 99.3888 195.976 96.9979 193.185 95.7677C185.104 92.2045 180.179 99.2706 177.983 108.801Z" fill="#302641"/>
<path opacity="0.4" d="M181.463 148.789C183.273 155.191 184.865 159.562 184.865 159.562C185.003 160.068 185.142 160.569 185.28 161.064L218.127 152.263C217.636 148.185 216.903 143.884 215.959 139.544L181.463 148.789Z" fill="#302641"/>
<path opacity="0.4" d="M189.449 173.587C191.617 178.708 194.116 182.409 197.308 183.923C198.008 184.236 198.75 184.44 199.511 184.53L211.858 181.221C213.541 180.066 215.01 178.626 216.198 176.967C217.783 174.74 218.621 170.765 218.813 165.722L189.449 173.587Z" fill="#302641"/>
<g opacity="0.4">
<path d="M178.422 132.969C178.108 133.068 177.948 133.145 177.64 133.252C177.64 133.252 181.019 148.173 183.963 158.78C184.041 159.059 185.116 158.618 185.116 158.618L178.422 132.969Z" fill="white"/>
</g>
<path opacity="0.4" d="M213.635 155.498C210.236 151.716 205.197 149.435 199.812 149.242C196.069 149.106 192.358 149.974 189.066 151.756C192.95 148.35 200.5 144.012 211.246 148.03L211.594 147.106C202.766 143.805 196.065 145.976 191.998 148.377C187.646 150.949 185.371 154.24 185.227 154.447C181.773 157.528 179.487 161.739 179.147 166.439C178.819 170.97 180.342 175.362 183.437 178.804C186.835 182.586 191.874 184.867 197.26 185.06C197.513 185.068 197.766 185.073 198.02 185.073C208.378 185.073 217.229 177.491 217.925 167.862C218.253 163.331 216.728 158.94 213.635 155.498ZM216.938 167.789C216.262 177.125 207.442 184.43 197.295 184.069C192.176 183.886 187.394 181.726 184.173 178.141C181.259 174.901 179.825 170.769 180.134 166.509C180.793 157.391 189.204 150.214 199.051 150.214C199.288 150.214 199.534 150.214 199.777 150.227C204.896 150.41 209.678 152.57 212.899 156.155C215.811 159.398 217.246 163.528 216.938 167.791V167.789Z" fill="white"/>
<path d="M90.5603 164.946C90.5603 164.946 101.938 158.029 105.647 158.446C109.357 158.864 124.032 163.222 124.032 163.222C124.032 163.222 153.134 165.527 171.024 159.516C188.914 153.505 201.609 147.66 209.853 156.717C218.097 165.775 217.031 180.019 198.191 182.325C179.351 184.631 126.918 181.83 126.918 181.83C126.918 181.83 102.762 184.712 100.454 183.721C98.1451 182.729 97.5677 181.251 97.5677 181.251C97.5677 181.251 93.0333 182.486 92.0441 180.51C91.0549 178.534 91.6323 177.546 91.6323 177.546C91.6323 177.546 87.5097 174.828 90.0656 170.876C90.0656 170.87 88.17 168.647 90.5603 164.946Z" fill="#FF9477"/>
<path opacity="0.6" d="M209.853 156.708C201.609 147.651 188.909 153.496 171.024 159.507C153.138 165.517 124.032 163.213 124.032 163.213C124.032 163.213 109.359 158.848 105.647 158.437C101.935 158.026 90.5603 164.937 90.5603 164.937C88.17 168.642 90.0656 170.865 90.0656 170.865C87.5097 174.817 91.6323 177.535 91.6323 177.535C91.6323 177.535 91.0549 178.523 92.0441 180.499C93.0333 182.475 97.5677 181.24 97.5677 181.24C97.5677 181.24 98.1451 182.722 100.454 183.71C102.762 184.698 126.918 181.82 126.918 181.82C126.918 181.82 179.351 184.619 198.191 182.315C217.031 180.01 218.097 165.766 209.853 156.708ZM108.945 182.192C108.286 183.427 101.899 183.355 100.866 183.385C99.8325 183.416 98.228 181.287 98.228 181.287L104.111 178.568L103.669 177.827C103.669 177.827 96.8873 181.165 95.1775 181.327C93.4676 181.489 91.4726 180.052 92.4192 177.416L101.218 172.907L100.971 172.044C100.971 172.044 92.3328 176.963 91.9246 176.922C91.5164 176.881 88.8327 174.699 90.5224 171.241L99.5225 166.383L99.2207 165.517L90.4822 170.293C90.4822 170.293 88.4623 168.894 90.8111 165.27C90.8111 165.27 102.024 159.095 102.807 159.589C103.591 160.083 104.227 163.135 104.109 164.242C104.109 164.242 105.686 166.588 105.522 168.771C105.522 168.771 108.118 172.229 107.459 175.399C107.461 175.399 109.604 180.957 108.945 182.192ZM208.122 165.718C203.092 176.455 153.051 174.74 149.424 173.093C145.797 171.446 147.693 165.079 147.693 165.079C156.923 165.382 180.34 158.106 189.985 155.143C199.63 152.181 213.152 154.982 208.122 165.718Z" fill="#FF8468"/>
<path d="M142.815 183.111C141.769 175.221 143.417 167.045 144.168 163.965C144.198 163.853 144.262 163.752 144.35 163.677C144.438 163.601 144.547 163.553 144.663 163.54L144.899 163.493L144.747 163.324C144.541 163.161 144.287 163.073 144.025 163.074H136.807C136.603 163.068 136.403 163.13 136.24 163.252C136.077 163.373 135.96 163.546 135.907 163.743C135.016 167.713 133.734 175.267 134.606 183.11L142.815 183.111Z" fill="#B30700"/>
<path d="M140.593 175.631H136.13C134.582 175.631 133.302 174.489 133.304 172.305L134.269 167.75C134.44 166.332 135.846 165.168 137.394 165.168L141.89 164.253C143.96 164.337 144.535 166.331 144.363 167.75L143.723 173.049C143.547 174.469 142.14 175.631 140.593 175.631Z" fill="#B30700"/>
<path d="M140.283 174.697H135.82C134.273 174.697 133.147 173.534 133.318 172.113L133.958 166.815C134.13 165.397 135.537 164.233 137.085 164.233H141.547C143.095 164.233 144.22 165.395 144.048 166.815L143.408 172.113C143.238 173.534 141.831 174.697 140.283 174.697Z" fill="#5F5A55"/>
<path opacity="0.06" d="M140.024 173.849H136.284C134.982 173.849 134.043 172.875 134.187 171.685L134.723 167.244C134.867 166.054 136.046 165.079 137.343 165.079H141.084C142.386 165.079 143.324 166.054 143.181 167.244L142.644 171.685C142.501 172.875 141.322 173.849 140.024 173.849Z" fill="white"/>
<path d="M204.402 146.865L207.383 182.206L226.189 182.358L229.356 146.865H204.402Z" fill="#E6E6E6"/>
<path d="M227.308 172.073L229.127 151.708L204.63 151.702L206.349 172.068L227.308 172.073Z" fill="#B30700"/>
<path opacity="0.07" d="M229.122 149.465L229.322 147.337H204.434L204.623 149.465H229.122Z" fill="black"/>
<path d="M228.91 145.789H204.88L205.684 141.622C205.758 141.237 205.964 140.89 206.266 140.64C206.568 140.39 206.948 140.252 207.34 140.25H226.722C227.079 140.249 227.423 140.374 227.695 140.604C227.967 140.834 228.148 141.153 228.205 141.504L228.91 145.789Z" fill="#563428"/>
<path opacity="0.18" d="M205.216 144.043L204.88 145.788H228.91L228.623 144.043H205.216Z" fill="black"/>
<path d="M230.254 147.437H203.439C203.369 147.437 203.3 147.422 203.236 147.393C203.172 147.364 203.116 147.322 203.07 147.269C203.024 147.216 202.99 147.154 202.97 147.087C202.95 147.02 202.945 146.949 202.955 146.88L203.182 145.285C203.199 145.168 203.257 145.062 203.346 144.985C203.435 144.908 203.548 144.865 203.666 144.865H230.073C230.193 144.866 230.309 144.91 230.399 144.99C230.488 145.07 230.545 145.18 230.559 145.299L230.741 146.894C230.748 146.963 230.742 147.032 230.721 147.097C230.7 147.163 230.665 147.223 230.619 147.274C230.573 147.326 230.517 147.367 230.454 147.395C230.391 147.423 230.323 147.437 230.254 147.437Z" fill="#563428"/>
<path d="M156.525 179.499L101.976 178.975C101.567 178.972 101.174 179.132 100.883 179.419C100.592 179.707 100.427 180.097 100.425 180.506C100.422 180.914 100.583 181.307 100.87 181.597C101.158 181.888 101.549 182.052 101.958 182.054H156.638C157.485 182.054 158.126 181.687 158.131 180.84C158.136 179.992 157.374 179.504 156.525 179.499Z" fill="url(#paint0_linear_1_4750)"/>
<path d="M110.287 179.684L107.423 179.666C107.233 179.665 107.051 179.739 106.916 179.873C106.781 180.006 106.704 180.187 106.703 180.377C106.702 180.567 106.776 180.749 106.91 180.884C107.043 181.019 107.225 181.095 107.415 181.096L110.278 181.113C110.468 181.114 110.651 181.039 110.785 180.906C110.92 180.773 110.997 180.592 110.998 180.402C110.999 180.213 110.925 180.031 110.791 179.896C110.658 179.761 110.476 179.685 110.287 179.684Z" fill="#3B3B3B"/>
<path d="M117.056 179.719L114.193 179.703C114.003 179.702 113.821 179.776 113.686 179.909C113.55 180.042 113.474 180.224 113.473 180.414C113.472 180.603 113.546 180.785 113.68 180.92C113.813 181.055 113.995 181.132 114.185 181.133L117.048 181.149C117.238 181.15 117.421 181.076 117.556 180.943C117.691 180.809 117.767 180.628 117.768 180.438C117.769 180.249 117.695 180.066 117.561 179.932C117.428 179.797 117.246 179.72 117.056 179.719Z" fill="#3B3B3B"/>
<path d="M130.295 180.514C130.295 180.325 130.221 180.144 130.088 180.009C129.955 179.875 129.774 179.798 129.585 179.796L123.253 179.759C123.159 179.759 123.066 179.777 122.979 179.812C122.892 179.847 122.813 179.9 122.746 179.966C122.611 180.099 122.535 180.28 122.534 180.47C122.533 180.659 122.607 180.841 122.741 180.976C122.874 181.111 123.055 181.187 123.245 181.188L129.577 181.226C129.766 181.227 129.948 181.152 130.083 181.02C130.218 180.887 130.295 180.706 130.297 180.517L130.295 180.514Z" fill="#3B3B3B"/>
<path d="M78.7 129.092C78.4777 128.644 78.1348 128.267 77.7097 128.004C77.2847 127.741 76.7945 127.601 76.2944 127.601L4.1742 127.533C3.7177 127.532 3.26868 127.648 2.86953 127.87C2.47038 128.091 2.13426 128.41 1.89291 128.797C1.65157 129.184 1.51296 129.626 1.49017 130.082C1.46738 130.537 1.56116 130.991 1.76266 131.4L25.9917 180.498C26.2139 180.947 26.5577 181.325 26.9839 181.588C27.4102 181.852 27.9019 181.991 28.4032 181.99L101.018 182.057C101.475 182.058 101.924 181.942 102.323 181.721C102.722 181.5 103.058 181.181 103.299 180.794C103.541 180.407 103.679 179.965 103.702 179.509C103.724 179.054 103.63 178.6 103.428 178.191L78.7 129.092Z" fill="url(#paint1_linear_1_4750)"/>
<path d="M77.7085 129.09C77.4863 128.643 77.1433 128.266 76.7183 128.003C76.2932 127.74 75.803 127.601 75.3029 127.601L2.68692 127.533C2.2304 127.532 1.78134 127.648 1.38216 127.87C0.982983 128.091 0.646877 128.41 0.405605 128.797C0.164334 129.184 0.0258661 129.626 0.00328654 130.082C-0.019293 130.537 0.0747617 130.991 0.276563 131.4L24.5044 180.498C24.726 180.947 25.0686 181.324 25.4937 181.589C25.9187 181.853 26.4093 181.994 26.91 181.994L99.526 182.062C99.9825 182.062 100.432 181.946 100.831 181.725C101.23 181.504 101.566 181.185 101.807 180.798C102.049 180.41 102.187 179.968 102.21 179.513C102.232 179.058 102.138 178.604 101.936 178.195L77.7085 129.09Z" fill="url(#paint2_linear_1_4750)"/>
<path d="M3.33643 188.645V194.448C3.33643 194.86 3.50011 195.254 3.79148 195.545C4.08285 195.836 4.47803 196 4.89008 196H248.529C248.919 195.999 249.293 195.845 249.569 195.569C249.844 195.294 250 194.92 250 194.531V188.563C250 188.173 249.844 187.8 249.569 187.525C249.293 187.249 248.919 187.095 248.529 187.095H4.89008C4.68611 187.095 4.4841 187.135 4.29561 187.212C4.10712 187.29 3.93584 187.404 3.79155 187.548C3.64727 187.692 3.53281 187.863 3.45471 188.052C3.37662 188.24 3.33643 188.442 3.33643 188.645Z" fill="#D6A98C"/>
<path opacity="0.1" d="M3.33643 188.645V194.448C3.33643 194.86 3.50011 195.254 3.79148 195.545C4.08285 195.836 4.47803 196 4.89008 196H248.529C248.919 195.999 249.293 195.845 249.569 195.569C249.844 195.294 250 194.92 250 194.531V188.563C250 188.173 249.844 187.8 249.569 187.525C249.293 187.249 248.919 187.095 248.529 187.095H4.89008C4.68611 187.095 4.4841 187.135 4.29561 187.212C4.10712 187.29 3.93584 187.404 3.79155 187.548C3.64727 187.692 3.53281 187.863 3.45471 188.052C3.37662 188.24 3.33643 188.442 3.33643 188.645Z" fill="black"/>
<path d="M3.33644 183.251V190.933C3.33644 191.136 3.37662 191.338 3.4547 191.526C3.53278 191.715 3.64722 191.886 3.79149 192.03C3.93576 192.174 4.10704 192.288 4.29554 192.366C4.48403 192.444 4.68607 192.484 4.89009 192.484H248.529C248.919 192.484 249.293 192.329 249.569 192.054C249.844 191.778 250 191.405 250 191.015V183.162C250 182.773 249.844 182.399 249.569 182.124C249.293 181.849 248.919 181.694 248.529 181.694H4.89009C4.68562 181.694 4.48313 181.734 4.29425 181.813C4.10538 181.891 3.93383 182.006 3.78946 182.15C3.6451 182.295 3.53077 182.466 3.45302 182.655C3.37528 182.844 3.33566 183.047 3.33644 183.251Z" fill="#D6A98C"/>
<path d="M226.322 181.7H4.89008C4.68611 181.7 4.4841 181.74 4.29561 181.818C4.10712 181.896 3.93584 182.01 3.79155 182.154C3.64727 182.298 3.53281 182.469 3.45471 182.657C3.37662 182.845 3.33643 183.047 3.33643 183.251V190.933C3.33643 191.344 3.50011 191.739 3.79148 192.03C4.08285 192.321 4.47803 192.484 4.89008 192.484H226.322C226.774 192.483 227.206 192.303 227.526 191.984C227.845 191.666 228.025 191.233 228.026 190.782V183.395C228.023 182.945 227.843 182.515 227.524 182.197C227.204 181.88 226.773 181.701 226.322 181.7Z" fill="#E9C5A6"/>
<path d="M115.65 49.2467C118.336 46.6892 108.008 36.5386 108.008 36.5386C108.008 36.5386 75.9716 61.5376 64.4038 77.4295C54.5221 91.0145 54.4239 104.201 64.612 106.395C89.1901 111.683 93.8025 70.0467 115.65 49.2467Z" fill="#FF9A77"/>
<path opacity="0.07" d="M96.1537 48.0942C96.1537 48.0942 73.3257 67.8684 66.1053 79.0484C58.8849 90.2284 76.2508 93.7219 81.0491 87.9439C85.8473 82.166 98.964 58.6348 103.225 52.9727C107.486 47.3106 103.471 41.5126 96.1537 48.0942Z" fill="white"/>
<path d="M149.038 65.8086C149.039 65.8011 149.039 65.7936 149.038 65.7861C149.039 65.7936 149.039 65.8011 149.038 65.8086Z" fill="#7C302A"/>
<path d="M116.012 49.719C113.129 50.6479 111.813 54.8363 113.071 59.0743C114.329 63.3123 117.686 65.9927 120.566 65.0638C123.446 64.1349 124.764 59.9453 123.507 55.7085C122.249 51.4717 118.893 48.7901 116.012 49.719Z" fill="#FF8768"/>
<path d="M166.349 54.9084C166.439 44.6171 165.006 31.5911 162.95 23.9164C161.383 13.9418 133.259 9.07512 124.89 22.7145C122.212 29.0467 117.846 40.8672 116.349 52.624C116.349 52.4987 116.349 52.4231 116.349 52.4231C116.349 52.4231 108.512 83.6715 136.381 85.7728C164.25 87.8741 167.44 73.2077 166.351 54.9061L166.349 54.9084Z" fill="#FF9A77"/>
<g opacity="0.4">
<path d="M136.072 59.3238C136.256 53.5451 131.92 48.7183 126.389 48.5427C120.857 48.3671 116.223 52.9094 116.039 58.6881C115.856 64.4668 120.191 69.2937 125.723 69.4692C131.255 69.6448 135.888 65.1025 136.072 59.3238Z" fill="#FF9A77"/>
<path d="M136.003 59.3214C136.186 53.5812 131.88 48.7864 126.385 48.6121C120.89 48.4377 116.288 52.9497 116.106 58.6899C115.923 64.4301 120.229 69.2249 125.724 69.3992C131.218 69.5736 135.821 65.0616 136.003 59.3214Z" fill="#FF9976"/>
<path d="M126.262 48.6829C120.803 48.58 116.285 53.1206 116.172 58.8229C116.058 64.5252 120.39 69.2312 125.85 69.334C131.309 69.4368 135.826 64.8962 135.941 59.194C136.056 53.4917 131.725 48.7857 126.262 48.6829Z" fill="#FF9876"/>
<path d="M135.868 59.3159C136.049 53.654 131.801 48.9246 126.381 48.7526C120.96 48.5806 116.421 53.0311 116.24 58.693C116.06 64.3549 120.308 69.0843 125.728 69.2563C131.148 69.4283 135.688 64.9778 135.868 59.3159Z" fill="#FE9775"/>
<path d="M126.261 48.8245C120.876 48.7228 116.421 53.1972 116.309 58.825C116.196 64.4528 120.47 69.0915 125.854 69.1919C131.238 69.2924 135.695 64.8192 135.807 59.1914C135.919 53.5636 131.647 48.9249 126.261 48.8245Z" fill="#FE9674"/>
<path d="M135.734 59.3128C135.911 53.7291 131.722 49.0652 126.377 48.8956C121.032 48.7259 116.555 53.1148 116.378 58.6985C116.2 64.2821 120.389 68.9461 125.734 69.1157C131.079 69.2854 135.556 64.8964 135.734 59.3128Z" fill="#FE9574"/>
<path d="M135.664 59.3096C135.84 53.7651 131.68 49.1338 126.373 48.9653C121.065 48.7969 116.619 53.1551 116.443 58.6996C116.266 64.2441 120.426 68.8753 125.734 69.0438C131.042 69.2122 135.487 64.8541 135.664 59.3096Z" fill="#FE9473"/>
<path d="M135.598 59.3088C135.773 53.8034 131.642 49.2048 126.372 49.0376C121.101 48.8703 116.686 53.1977 116.511 58.703C116.336 64.2084 120.467 68.807 125.737 68.9742C131.008 69.1415 135.422 64.8141 135.598 59.3088Z" fill="#FE9372"/>
<path d="M135.53 59.3063C135.704 53.8394 131.603 49.273 126.369 49.1069C121.136 48.9409 116.753 53.238 116.579 58.7049C116.405 64.1717 120.506 68.7382 125.739 68.9042C130.973 69.0703 135.356 64.7732 135.53 59.3063Z" fill="#FD9272"/>
<path d="M135.459 59.302C135.632 53.8743 131.56 49.3406 126.365 49.1757C121.169 49.0108 116.818 53.2772 116.645 58.7049C116.472 64.1327 120.544 68.6664 125.739 68.8313C130.935 68.9961 135.287 64.7298 135.459 59.302Z" fill="#FD9171"/>
<path d="M135.392 59.3007C135.563 53.9122 131.521 49.4111 126.362 49.2474C121.204 49.0837 116.884 53.3193 116.712 58.7079C116.541 64.0965 120.583 68.5975 125.742 68.7613C130.9 68.925 135.22 64.6893 135.392 59.3007Z" fill="#FD9070"/>
<path d="M135.327 59.3C135.497 53.9505 131.484 49.4822 126.363 49.3197C121.242 49.1572 116.952 53.362 116.782 58.7114C116.612 64.0609 120.625 68.5292 125.746 68.6917C130.867 68.8542 135.157 64.6494 135.327 59.3Z" fill="#FD8F70"/>
<path d="M135.261 59.2977C135.43 53.9874 131.445 49.5518 126.362 49.3904C121.278 49.2291 117.02 53.4032 116.851 58.7135C116.682 64.0238 120.666 68.4594 125.75 68.6207C130.834 68.7821 135.092 64.608 135.261 59.2977Z" fill="#FD8E6F"/>
<path d="M135.188 59.2944C135.356 54.0232 131.401 49.6203 126.356 49.4602C121.31 49.3 117.083 53.4433 116.916 58.7145C116.748 63.9857 120.703 68.3886 125.748 68.5487C130.794 68.7089 135.021 64.5656 135.188 59.2944Z" fill="#FD8D6E"/>
<path d="M135.123 59.2936C135.29 54.0616 131.364 49.6914 126.356 49.5324C121.347 49.3734 117.152 53.486 116.985 58.718C116.819 63.95 120.744 68.3203 125.753 68.4792C130.762 68.6382 134.957 64.5256 135.123 59.2936Z" fill="#FC8C6E"/>
<path d="M135.055 59.2902C135.22 54.0967 131.324 49.7586 126.353 49.6008C121.381 49.443 117.217 53.5253 117.052 58.7188C116.887 63.9124 120.783 68.2505 125.754 68.4082C130.726 68.566 134.89 64.4837 135.055 59.2902Z" fill="#FC8B6D"/>
<path d="M134.985 59.287C135.149 54.1326 131.282 49.8272 126.348 49.6706C121.414 49.514 117.281 53.5655 117.117 58.7199C116.953 63.8743 120.82 68.1797 125.754 68.3363C130.688 68.4929 134.821 64.4413 134.985 59.287Z" fill="#FC8A6C"/>
<path d="M134.693 59.0623C134.847 53.9445 131 49.6767 126.101 49.5299C121.201 49.3831 117.105 53.4129 116.951 58.5307C116.797 63.6485 120.645 67.9164 125.544 68.0632C130.443 68.21 134.54 64.1801 134.693 59.0623Z" fill="#FC896C"/>
<path d="M134.851 59.2838C135.013 54.2077 131.205 49.9677 126.346 49.8135C121.487 49.6593 117.417 53.6493 117.255 58.7254C117.094 63.8015 120.902 68.0415 125.761 68.1957C130.62 68.3499 134.69 64.3599 134.851 59.2838Z" fill="#FC886B"/>
<path d="M134.558 59.0593C134.71 54.0198 130.922 49.8173 126.097 49.6727C121.273 49.5282 117.24 53.4963 117.088 58.5358C116.937 63.5753 120.725 67.7778 125.549 67.9224C130.373 68.0669 134.407 64.0988 134.558 59.0593Z" fill="#FB876A"/>
<path d="M134.714 59.2784C134.873 54.2805 131.123 50.1059 126.339 49.9541C121.554 49.8022 117.547 53.7307 117.388 58.7285C117.229 63.7263 120.978 67.9009 125.763 68.0528C130.547 68.2046 134.555 64.2762 134.714 59.2784Z" fill="#FB8669"/>
<path d="M134.647 59.2761C134.804 54.3174 131.084 50.1755 126.337 50.0248C121.589 49.8742 117.613 53.7718 117.455 58.7305C117.297 63.6892 121.018 67.8311 125.765 67.9818C130.513 68.1324 134.489 64.2348 134.647 59.2761Z" fill="#FB8569"/>
<path d="M134.352 59.0521C134.5 54.1294 130.801 50.0244 126.089 49.8832C121.377 49.742 117.437 53.6181 117.289 58.5408C117.142 63.4635 120.841 67.5685 125.553 67.7097C130.265 67.8509 134.205 63.9747 134.352 59.0521Z" fill="#FB8468"/>
<path d="M134.51 59.2708C134.665 54.3898 131.003 50.3127 126.331 50.1644C121.659 50.0162 117.745 53.8528 117.59 58.7339C117.435 63.6149 121.096 67.692 125.769 67.8403C130.441 67.9885 134.354 64.1519 134.51 59.2708Z" fill="#FB8367"/>
<path d="M134.446 59.271C134.6 54.4291 130.967 50.3847 126.332 50.2376C121.697 50.0905 117.815 53.8964 117.661 58.7383C117.507 63.5802 121.139 67.6246 125.774 67.7717C130.409 67.9188 134.291 64.1129 134.446 59.271Z" fill="#FA8267"/>
<path d="M134.149 59.0447C134.293 54.2395 130.681 50.2324 126.081 50.0946C121.481 49.9567 117.635 53.7404 117.491 58.5455C117.346 63.3507 120.958 67.3578 125.558 67.4957C130.158 67.6335 134.005 63.8499 134.149 59.0447Z" fill="#FA8166"/>
<path d="M134.311 59.2665C134.463 54.5029 130.888 50.5239 126.328 50.3792C121.767 50.2344 117.947 53.9788 117.796 58.7424C117.644 63.506 121.219 67.485 125.779 67.6297C130.34 67.7745 134.159 64.0301 134.311 59.2665Z" fill="#FA8065"/>
<path d="M134.24 59.2632C134.39 54.5387 130.846 50.5924 126.323 50.4489C121.8 50.3054 118.012 54.019 117.862 58.7434C117.712 63.4679 121.256 67.4142 125.779 67.5577C130.301 67.7013 134.09 63.9877 134.24 59.2632Z" fill="#FA7F65"/>
<path d="M133.944 59.0377C134.085 54.35 130.561 50.4409 126.074 50.3064C121.586 50.1719 117.834 53.863 117.693 58.5507C117.552 63.2384 121.076 67.1476 125.564 67.282C130.051 67.4165 133.803 63.7254 133.944 59.0377Z" fill="#FA7E64"/>
<path d="M134.105 59.259C134.253 54.6121 130.767 50.7307 126.319 50.5895C121.87 50.4484 118.145 54.1009 117.997 58.7478C117.849 63.3946 121.335 67.2761 125.783 67.4172C130.231 67.5584 133.957 63.9058 134.105 59.259Z" fill="#FA7D63"/>
<path d="M133.809 59.0335C133.948 54.4235 130.483 50.5791 126.069 50.4469C121.656 50.3147 117.966 53.9446 117.828 58.5547C117.689 63.1647 121.155 67.009 125.568 67.1413C129.981 67.2735 133.671 63.6435 133.809 59.0335Z" fill="#F97C63"/>
<path d="M133.742 59.0324C133.879 54.4616 130.444 50.6499 126.068 50.5188C121.693 50.3877 118.035 53.9868 117.898 58.5577C117.76 63.1286 121.196 66.9403 125.571 67.0714C129.947 67.2024 133.605 63.6033 133.742 59.0324Z" fill="#F97B62"/>
<path d="M133.902 59.2526C134.046 54.7232 130.648 50.9399 126.312 50.8023C121.976 50.6647 118.344 54.2249 118.2 58.7543C118.056 63.2837 121.454 67.0671 125.79 67.2047C130.126 67.3423 133.758 63.782 133.902 59.2526Z" fill="#F97A61"/>
<path d="M133.606 59.0285C133.741 54.5359 130.364 50.7896 126.063 50.6607C121.762 50.5318 118.166 54.0693 118.031 58.5618C117.897 63.0544 121.274 66.8008 125.574 66.9296C129.875 67.0585 133.471 63.521 133.606 59.0285Z" fill="#F97961"/>
<path d="M133.764 59.2472C133.906 54.796 130.566 51.078 126.305 50.9428C122.044 50.8076 118.474 54.3063 118.333 58.7574C118.191 63.2085 121.531 66.9265 125.792 67.0618C130.053 67.197 133.623 63.6983 133.764 59.2472Z" fill="#F97860"/>
<path d="M133.697 59.2449C133.837 54.8329 130.527 51.1476 126.303 51.0136C122.079 50.8795 118.541 54.3474 118.4 58.7594C118.26 63.1714 121.57 66.8567 125.794 66.9908C130.019 67.1248 133.557 63.6569 133.697 59.2449Z" fill="#F8775F"/>
<path d="M133.629 59.2438C133.769 54.8703 130.488 51.2172 126.302 51.0844C122.115 50.9515 118.609 54.3892 118.47 58.7627C118.331 63.1362 121.611 66.7893 125.798 66.9222C129.984 67.0551 133.49 63.6173 133.629 59.2438Z" fill="#F8765F"/>
<path d="M133.561 59.2406C133.699 54.9062 130.447 51.2858 126.298 51.1541C122.149 51.0225 118.674 54.4294 118.536 58.7638C118.398 63.0981 121.65 66.7186 125.799 66.8502C129.948 66.9819 133.423 63.575 133.561 59.2406Z" fill="#F8755E"/>
<path d="M133.495 59.2398C133.631 54.9446 130.409 51.3569 126.297 51.2264C122.185 51.0959 118.741 54.472 118.605 58.7673C118.468 63.0625 121.69 66.6502 125.802 66.7807C129.914 66.9112 133.358 63.535 133.495 59.2398Z" fill="#F8755D"/>
<path d="M133.426 59.2361C133.562 54.98 130.368 51.425 126.294 51.2957C122.219 51.1664 118.806 54.5118 118.671 58.7678C118.536 63.0239 121.729 66.5789 125.803 66.7083C129.878 66.8376 133.291 63.4922 133.426 59.2361Z" fill="#F8745D"/>
<path d="M133.358 59.2343C133.492 55.0173 130.328 51.495 126.291 51.3669C122.255 51.2388 118.874 54.5534 118.74 58.7703C118.605 62.9873 121.769 66.5096 125.806 66.6377C129.842 66.7658 133.223 63.4512 133.358 59.2343Z" fill="#F7735C"/>
<path d="M133.289 59.231C133.422 55.0532 130.287 51.5636 126.288 51.4367C122.288 51.3097 118.939 54.5936 118.806 58.7714C118.673 62.9492 121.807 66.4388 125.807 66.5658C129.806 66.6927 133.156 63.4088 133.289 59.231Z" fill="#F7725B"/>
<path d="M133.222 59.2286C133.353 55.0893 130.248 51.6318 126.286 51.506C122.324 51.3803 119.005 54.6339 118.873 58.7732C118.742 62.9125 121.847 66.37 125.809 66.4957C129.771 66.6215 133.09 63.3679 133.222 59.2286Z" fill="#F7715B"/>
<path d="M133.158 59.2287C133.288 55.1286 130.212 51.7038 126.287 51.5792C122.362 51.4547 119.075 54.6775 118.944 58.7777C118.814 62.8778 121.89 66.3026 125.815 66.4272C129.74 66.5518 133.027 63.3289 133.158 59.2287Z" fill="#F7705A"/>
<path d="M133.084 59.2245C133.213 55.1635 130.167 51.7714 126.28 51.648C122.393 51.5246 119.137 54.7167 119.008 58.7777C118.879 62.8388 121.925 66.2309 125.812 66.3542C129.699 66.4776 132.955 63.2855 133.084 59.2245Z" fill="#F76F59"/>
<path d="M133.017 59.2222C133.145 55.2004 130.128 51.8409 126.278 51.7188C122.428 51.5966 119.203 54.7579 119.075 58.7798C118.947 62.8016 121.965 66.1611 125.815 66.2832C129.664 66.4054 132.889 63.2441 133.017 59.2222Z" fill="#F66E59"/>
<path d="M132.951 59.2214C133.077 55.2387 130.089 51.912 126.277 51.791C122.464 51.67 119.271 54.8005 119.144 58.7833C119.017 62.766 122.005 66.0927 125.818 66.2137C129.631 66.3347 132.824 63.2042 132.951 59.2214Z" fill="#F66D58"/>
<path d="M132.883 59.2182C133.009 55.2746 130.05 51.9806 126.275 51.8608C122.499 51.7409 119.337 54.8407 119.212 58.7843C119.086 62.7279 122.045 66.0219 125.82 66.1418C129.596 66.2616 132.758 63.1618 132.883 59.2182Z" fill="#F66C57"/>
<path d="M132.815 59.2159C132.939 55.3115 130.009 52.0502 126.271 51.9315C122.533 51.8129 119.402 54.8819 119.278 58.7863C119.153 62.6908 122.083 65.9521 125.821 66.0708C129.559 66.1894 132.691 63.1204 132.815 59.2159Z" fill="#F66B57"/>
<path d="M132.77 59.2275C132.894 55.3616 129.994 52.1319 126.294 52.0138C122.594 51.8957 119.494 54.934 119.37 58.7999C119.246 62.6658 122.146 65.8955 125.846 66.0136C129.546 66.1317 132.646 63.0934 132.77 59.2275Z" fill="#F66A56"/>
<path d="M132.681 59.2126C132.803 55.3858 129.932 52.1893 126.269 52.0731C122.606 51.9568 119.538 54.9648 119.416 58.7916C119.294 62.6185 122.165 65.8149 125.828 65.9312C129.491 66.0474 132.559 63.0394 132.681 59.2126Z" fill="#F66955"/>
<path d="M132.636 59.223C132.757 55.4353 129.916 52.271 126.29 52.1553C122.665 52.0396 119.627 55.0163 119.506 58.804C119.385 62.5916 122.226 65.7559 125.852 65.8716C129.477 65.9873 132.515 63.0106 132.636 59.223Z" fill="#F56855"/>
<path d="M132.568 59.2212C132.688 55.4727 129.876 52.3411 126.287 52.2266C122.699 52.112 119.692 55.058 119.572 58.8065C119.452 62.555 122.264 65.6866 125.853 65.8011C129.441 65.9156 132.448 62.9697 132.568 59.2212Z" fill="#F56754"/>
<path d="M132.475 59.2048C132.593 55.4954 129.81 52.397 126.26 52.2844C122.709 52.1717 119.735 55.0874 119.617 58.7968C119.499 62.5061 122.282 65.6045 125.832 65.7172C129.383 65.8299 132.357 62.9142 132.475 59.2048Z" fill="#F56653"/>
<path d="M132.178 58.9825C132.288 55.3104 129.528 52.2482 126.012 52.1429C122.497 52.0376 119.558 54.929 119.448 58.6011C119.337 62.2732 122.098 65.3354 125.613 65.4407C129.128 65.546 132.067 62.6546 132.178 58.9825Z" fill="#F56553"/>
<path d="M132.364 59.2147C132.48 55.5837 129.757 52.5502 126.28 52.4393C122.804 52.3283 119.892 55.182 119.776 58.813C119.66 62.4441 122.383 65.4776 125.86 65.5885C129.336 65.6995 132.248 62.8458 132.364 59.2147Z" fill="#F56452"/>
<path d="M132.298 59.2137C132.413 55.6211 129.718 52.6198 126.279 52.5101C122.84 52.4003 119.959 55.2237 119.844 58.8163C119.729 62.4089 122.424 65.4103 125.863 65.52C129.302 65.6297 132.183 62.8063 132.298 59.2137Z" fill="#F46351"/>
<path d="M132.229 59.21C132.343 55.6565 129.677 52.6879 126.276 52.5793C122.874 52.4708 120.024 55.2634 119.91 58.8169C119.797 62.3703 122.462 65.339 125.864 65.4475C129.266 65.5561 132.116 62.7634 132.229 59.21Z" fill="#F46250"/>
<path d="M132.16 59.2081C132.272 55.6938 129.636 52.7579 126.272 52.6506C122.908 52.5432 120.09 55.3051 119.978 58.8194C119.866 62.3337 122.501 65.2696 125.865 65.377C129.229 65.4843 132.047 62.7224 132.16 59.2081Z" fill="#F46150"/>
<path d="M126.184 52.7139C122.857 52.6513 120.102 55.4191 120.031 58.8948C119.96 62.3706 122.604 65.24 125.931 65.3027C129.258 65.3653 132.013 62.5975 132.084 59.1218C132.155 55.646 129.513 52.7766 126.184 52.7139Z" fill="#F4604F"/>
<path d="M131.772 58.9703C131.875 55.5326 129.291 52.6658 126 52.5672C122.709 52.4686 119.957 55.1755 119.854 58.6132C119.75 62.051 122.335 64.9178 125.626 65.0164C128.917 65.115 131.669 62.4081 131.772 58.9703Z" fill="#F45F4E"/>
<path d="M126.182 52.856C122.929 52.7946 120.237 55.4997 120.169 58.8975C120.1 62.2952 122.683 65.0997 125.936 65.1611C129.189 65.2226 131.882 62.5174 131.949 59.1196C132.017 55.7219 129.435 52.9163 126.182 52.856Z" fill="#F35E4E"/>
<path d="M126.181 52.9268C122.965 52.8654 120.304 55.5398 120.236 58.8985C120.169 62.2573 122.721 65.0298 125.938 65.0901C129.156 65.1504 131.815 62.4771 131.882 59.1172C131.95 55.7573 129.396 52.9871 126.181 52.9268Z" fill="#F35D4D"/>
<path d="M131.821 59.1974C131.928 55.8782 129.438 53.1052 126.261 53.0038C123.084 52.9025 120.422 55.5111 120.316 58.8303C120.21 62.1495 122.7 64.9225 125.877 65.0239C129.054 65.1253 131.715 62.5167 131.821 59.1974Z" fill="#F35C4C"/>
<path d="M126.178 53.0674C123.037 53.0083 120.437 55.6201 120.372 58.902C120.307 62.1839 122.8 64.8903 125.941 64.9494C129.081 65.0085 131.681 62.3955 131.746 59.1148C131.811 55.834 129.319 53.1265 126.178 53.0674Z" fill="#F35B4C"/>
<path d="M126.176 53.1382C123.073 53.0803 120.505 55.6614 120.44 58.9031C120.375 62.1448 122.838 64.8193 125.942 64.8784C129.046 64.9374 131.614 62.3552 131.679 59.1134C131.744 55.8717 129.28 53.1961 126.176 53.1382Z" fill="#F35A4B"/>
<path d="M126.175 53.209C123.109 53.1511 120.571 55.7014 120.507 58.9042C120.443 62.1069 122.874 64.7494 125.943 64.8073C129.013 64.8653 131.547 62.3149 131.611 59.1122C131.675 55.9094 129.241 53.2645 126.175 53.209Z" fill="#F3594A"/>
<path d="M126.174 53.2797C123.145 53.223 120.638 55.7415 120.576 58.9052C120.513 62.0689 122.916 64.6796 125.945 64.7363C128.975 64.793 131.48 62.2746 131.544 59.1108C131.607 55.9471 129.202 53.3365 126.174 53.2797Z" fill="#F2584A"/>
<path d="M126.172 53.351C123.18 53.2943 120.705 55.7821 120.643 58.9056C120.582 62.0291 122.955 64.6091 125.947 64.6646C128.938 64.7202 131.414 62.2336 131.475 59.1101C131.537 55.9865 129.163 53.4066 126.172 53.351Z" fill="#F25749"/>
<path d="M126.17 53.4208C123.212 53.3664 120.772 55.8223 120.711 58.908C120.649 61.9937 122.994 64.5394 125.948 64.5949C128.901 64.6505 131.346 62.1946 131.408 59.1089C131.469 56.0232 129.125 53.4764 126.17 53.4208Z" fill="#F25648"/>
<path d="M126.169 53.4916C123.252 53.4373 120.844 55.8624 120.778 58.9091C120.712 61.9558 123.026 64.4636 125.949 64.5251C128.872 64.5865 131.28 62.1544 131.34 59.1076C131.4 56.0609 129.086 53.5472 126.169 53.4916Z" fill="#F25548"/>
<path d="M126.168 53.5624C123.289 53.5081 120.906 55.9024 120.843 58.9102C120.78 61.9179 123.069 64.3997 125.948 64.4541C128.827 64.5084 131.21 62.1141 131.273 59.1063C131.335 56.0986 129.047 53.6192 126.168 53.5624Z" fill="#F25447"/>
<path d="M126.167 53.6332C123.327 53.58 120.973 55.9425 120.914 58.9112C120.855 61.8799 123.11 64.3299 125.951 64.383C128.793 64.4362 131.145 62.0726 131.205 59.105C131.266 56.1375 129.008 53.6864 126.167 53.6332Z" fill="#F15346"/>
<path d="M126.164 53.704C123.361 53.6508 121.04 55.9837 120.982 58.9123C120.924 61.8408 123.149 64.2588 125.951 64.312C128.753 64.3652 131.076 62.0323 131.134 59.1037C131.192 56.1752 128.969 53.756 126.164 53.704Z" fill="#F15246"/>
<path d="M126.163 53.7753C123.397 53.7233 121.107 56.0207 121.049 58.9138C120.991 61.8069 123.187 64.1895 125.955 64.2415C128.723 64.2935 131.011 61.996 131.069 59.1029C131.127 56.2098 128.931 53.8273 126.163 53.7753Z" fill="#F15145"/>
</g>
<g opacity="0.4">
<path d="M164.091 59.5801C164.123 53.7986 159.262 49.0845 153.233 49.0509C147.205 49.0172 142.292 53.6768 142.259 59.4584C142.227 65.2399 147.088 69.954 153.116 69.9876C159.145 70.0213 164.058 65.3617 164.091 59.5801Z" fill="#FF9A77"/>
<path d="M164.018 59.5794C164.05 53.8371 159.222 49.1549 153.234 49.1215C147.246 49.0881 142.366 53.7161 142.334 59.4585C142.301 65.2008 147.13 69.883 153.118 69.9164C159.106 69.9498 163.986 65.3218 164.018 59.5794Z" fill="#FF9976"/>
<path d="M163.946 59.58C163.978 53.8761 159.183 49.2253 153.235 49.1922C147.288 49.159 142.44 53.756 142.408 59.4598C142.376 65.1637 147.172 69.8145 153.12 69.8477C159.067 69.8808 163.914 65.2838 163.946 59.58Z" fill="#FF9876"/>
<path d="M163.87 59.5788C163.902 53.9141 159.14 49.2952 153.233 49.2623C147.327 49.2293 142.513 53.7948 142.482 59.4595C142.45 65.1242 147.212 69.743 153.119 69.776C159.025 69.8089 163.839 65.2435 163.87 59.5788Z" fill="#FE9775"/>
<path d="M163.797 59.5785C163.829 53.953 159.099 49.3661 153.233 49.3334C147.367 49.3006 142.586 53.8345 142.555 59.46C142.524 65.0856 147.253 69.6725 153.119 69.7052C158.985 69.738 163.766 65.2041 163.797 59.5785Z" fill="#FE9674"/>
<path d="M164.52 59.9529C164.576 54.3664 159.899 49.7906 154.073 49.7324C148.248 49.6742 143.48 54.1558 143.424 59.7422C143.368 65.3287 148.045 69.9046 153.871 69.9628C159.696 70.021 164.464 65.5394 164.52 59.9529Z" fill="#FE9574"/>
<path d="M163.651 59.5786C163.682 54.0314 159.019 49.5083 153.234 49.476C147.45 49.4438 142.736 53.9145 142.705 59.4617C142.674 65.009 147.338 69.532 153.122 69.5643C158.906 69.5965 163.62 65.1258 163.651 59.5786Z" fill="#FE9473"/>
<path d="M163.575 59.5769C163.605 54.0688 158.974 49.5777 153.231 49.5457C147.487 49.5136 142.806 53.9528 142.775 59.4609C142.744 64.9689 147.375 69.4601 153.119 69.4921C158.863 69.5241 163.544 65.0849 163.575 59.5769Z" fill="#FE9372"/>
<path d="M163.501 59.5767C163.532 54.1078 158.933 49.6486 153.23 49.6168C147.527 49.5849 142.879 53.9926 142.848 59.4615C142.818 64.9304 147.416 69.3896 153.119 69.4214C158.822 69.4532 163.471 65.0456 163.501 59.5767Z" fill="#FD9272"/>
<path d="M163.425 59.5752C163.456 54.1449 158.89 49.7171 153.229 49.6855C147.567 49.6539 142.952 54.0305 142.922 59.4609C142.891 64.8913 147.457 69.3191 153.119 69.3506C158.78 69.3822 163.395 65.0056 163.425 59.5752Z" fill="#FD9171"/>
<path d="M163.353 59.576C163.384 54.1848 158.851 49.7889 153.23 49.7575C147.608 49.7262 143.027 54.0712 142.996 59.4624C142.966 64.8537 147.499 69.2495 153.12 69.2809C158.742 69.3123 163.323 64.9672 163.353 59.576Z" fill="#FD9070"/>
<path d="M164.077 59.9494C164.131 54.5973 159.65 50.2133 154.069 50.1576C148.488 50.1018 143.92 54.3954 143.867 59.7476C143.813 65.0997 148.294 69.4837 153.875 69.5394C159.456 69.5951 164.024 65.3016 164.077 59.9494Z" fill="#FD8F70"/>
<path d="M163.206 59.5751C163.236 54.2622 158.769 49.9302 153.23 49.8993C147.69 49.8684 143.175 54.1502 143.145 59.4631C143.116 64.776 147.582 69.1081 153.122 69.139C158.662 69.1699 163.177 64.888 163.206 59.5751Z" fill="#FD8E6F"/>
<path d="M163.134 59.5758C163.164 54.3021 158.73 50.002 153.231 49.9713C147.731 49.9406 143.249 54.191 143.22 59.4647C143.19 64.7385 147.624 69.0385 153.124 69.0692C158.623 69.0999 163.105 64.8495 163.134 59.5758Z" fill="#FD8D6E"/>
<path d="M163.06 59.5741C163.089 54.3395 158.688 50.0714 153.229 50.0409C147.77 50.0105 143.322 54.2293 143.292 59.4638C143.263 64.6984 147.664 68.9666 153.123 68.997C158.582 69.0275 163.031 64.8087 163.06 59.5741Z" fill="#FC8C6E"/>
<path d="M162.984 59.5739C163.013 54.3785 158.645 50.1422 153.227 50.112C147.81 50.0818 143.395 54.269 143.366 59.4644C143.337 64.6599 147.705 68.8961 153.122 68.9263C158.54 68.9565 162.955 64.7693 162.984 59.5739Z" fill="#FC8B6D"/>
<path d="M162.908 59.572C162.937 54.4151 158.602 50.2103 153.225 50.1803C147.848 50.1503 143.465 54.3065 143.436 59.4634C143.408 64.6203 147.743 68.8251 153.12 68.8551C158.497 68.8851 162.88 64.7289 162.908 59.572Z" fill="#FC8A6C"/>
<path d="M162.837 59.5727C162.866 54.455 158.563 50.2821 153.227 50.2524C147.89 50.2226 143.541 54.3472 143.512 59.4649C143.484 64.5827 147.787 68.7556 153.123 68.7853C158.46 68.8151 162.809 64.6905 162.837 59.5727Z" fill="#FC896C"/>
<path d="M162.762 59.5715C162.79 54.4929 158.52 50.352 153.225 50.3225C147.93 50.2929 143.614 54.386 143.586 59.4646C143.557 64.5431 147.827 68.6841 153.122 68.7136C158.418 68.7432 162.733 64.6501 162.762 59.5715Z" fill="#FC886B"/>
<path d="M162.691 59.5718C162.719 54.5324 158.482 50.4233 153.227 50.394C147.972 50.3647 143.69 54.4262 143.661 59.4656C143.633 64.5051 147.87 68.6141 153.125 68.6434C158.38 68.6727 162.663 64.6112 162.691 59.5718Z" fill="#FB876A"/>
<path d="M162.617 59.5716C162.645 54.5713 158.441 50.4942 153.227 50.4651C148.012 50.4361 143.763 54.466 143.735 59.4662C143.707 64.4665 147.911 68.5436 153.125 68.5727C158.34 68.6018 162.589 64.5718 162.617 59.5716Z" fill="#FB8669"/>
<path d="M162.542 59.5713C162.569 54.6102 158.398 50.5651 153.225 50.5362C148.052 50.5074 143.836 54.5057 143.808 59.4668C143.78 64.4279 147.951 68.4731 153.125 68.502C158.298 68.5308 162.514 64.5324 162.542 59.5713Z" fill="#FB8569"/>
<path d="M162.471 59.5706C162.498 54.6487 158.36 50.6355 153.227 50.6068C148.094 50.5782 143.911 54.545 143.884 59.4669C143.856 64.3889 147.995 68.4021 153.127 68.4307C158.26 68.4594 162.443 64.4926 162.471 59.5706Z" fill="#FB8468"/>
<path d="M162.396 59.5707C162.423 54.6872 158.318 50.7054 153.225 50.677C148.133 50.6486 143.983 54.5844 143.956 59.4678C143.929 64.3512 148.034 68.3331 153.127 68.3615C158.219 68.3899 162.369 64.4541 162.396 59.5707Z" fill="#FB8367"/>
<path d="M162.319 59.569C162.346 54.7247 158.274 50.7748 153.223 50.7466C148.172 50.7185 144.055 54.6227 144.028 59.4669C144.001 64.3112 148.074 68.2611 153.124 68.2893C158.175 68.3175 162.292 64.4132 162.319 59.569Z" fill="#FA8267"/>
<path d="M162.245 59.5683C162.272 54.7632 158.232 50.8452 153.221 50.8173C148.211 50.7893 144.127 54.662 144.1 59.4671C144.074 64.2722 148.113 68.1901 153.124 68.2181C158.134 68.246 162.218 64.3734 162.245 59.5683Z" fill="#FA8166"/>
<path d="M162.172 59.5681C162.199 54.8021 158.192 50.9161 153.222 50.8884C148.252 50.8606 144.201 54.7017 144.175 59.4677C144.148 64.2336 148.155 68.1196 153.125 68.1474C158.095 68.1751 162.146 64.334 162.172 59.5681Z" fill="#FA8065"/>
<path d="M162.098 59.5678C162.124 54.841 158.15 50.9869 153.222 50.9594C148.293 50.9319 144.276 54.7415 144.25 59.4682C144.223 64.195 148.197 68.0491 153.126 68.0766C158.055 68.1041 162.072 64.2946 162.098 59.5678Z" fill="#FA7F65"/>
<path d="M162.025 59.5671C162.051 54.8795 158.109 51.0573 153.221 51.03C148.333 51.0028 144.349 54.7807 144.323 59.4684C144.297 64.156 148.238 67.9782 153.126 68.0054C158.014 68.0327 161.998 64.2547 162.025 59.5671Z" fill="#FA7E64"/>
<path d="M161.954 59.5681C161.98 54.919 158.071 51.1282 153.223 51.1012C148.376 51.0742 144.425 54.8211 144.399 59.4702C144.373 64.1193 148.281 67.9101 153.129 67.9371C157.977 67.9642 161.928 64.2172 161.954 59.5681Z" fill="#FA7D63"/>
<path d="M161.878 59.5674C161.904 54.9575 158.028 51.1986 153.222 51.1718C148.415 51.145 144.498 54.8604 144.472 59.4703C144.446 64.0803 148.322 67.8391 153.128 67.8659C157.935 67.8927 161.852 64.1774 161.878 59.5674Z" fill="#F97C63"/>
<path d="M161.805 59.5672C161.831 54.9964 157.988 51.2695 153.222 51.2429C148.456 51.2163 144.572 54.9001 144.546 59.4709C144.521 64.0417 148.364 67.7686 153.13 67.7952C157.896 67.8218 161.78 64.138 161.805 59.5672Z" fill="#F97B62"/>
<path d="M161.726 59.5645C161.752 55.0329 157.941 51.3379 153.216 51.3116C148.49 51.2852 144.639 54.9374 144.614 59.4691C144.588 64.0007 148.399 67.6957 153.124 67.722C157.85 67.7484 161.701 64.0962 161.726 59.5645Z" fill="#F97A61"/>
<path d="M161.654 59.5653C161.679 55.0728 157.902 51.4098 153.218 51.3836C148.534 51.3575 144.716 54.9782 144.691 59.4706C144.666 63.9631 148.443 67.6262 153.127 67.6523C157.811 67.6784 161.629 64.0577 161.654 59.5653Z" fill="#F97961"/>
<path d="M161.581 59.5645C161.606 55.1112 157.862 51.4801 153.218 51.4542C148.574 51.4283 144.789 55.0174 144.764 59.4707C144.739 63.924 148.484 67.5552 153.128 67.5811C157.771 67.607 161.556 64.0179 161.581 59.5645Z" fill="#F97860"/>
<path d="M161.51 59.5658C161.534 55.1517 157.823 51.5525 153.22 51.5268C148.616 51.5011 144.865 55.0587 144.84 59.4728C144.815 63.887 148.527 67.4861 153.13 67.5118C157.733 67.5375 161.485 63.9799 161.51 59.5658Z" fill="#F8775F"/>
<path d="M161.432 59.5624C161.456 55.1868 157.778 51.619 153.215 51.5936C148.653 51.5681 144.935 55.0946 144.911 59.4703C144.886 63.8459 148.565 67.4137 153.127 67.4391C157.689 67.4646 161.407 63.9381 161.432 59.5624Z" fill="#F8765F"/>
<path d="M161.361 59.5632C161.385 55.2267 157.739 51.6909 153.217 51.6656C148.696 51.6404 145.011 55.1354 144.987 59.4718C144.962 63.8083 148.608 67.3442 153.13 67.3694C157.651 67.3946 161.336 63.8997 161.361 59.5632Z" fill="#F8755E"/>
<path d="M161.286 59.563C161.31 55.2656 157.697 51.7617 153.216 51.7367C148.735 51.7117 145.083 55.1751 145.059 59.4724C145.035 63.7697 148.648 67.2737 153.129 67.2987C157.61 67.3237 161.262 63.8603 161.286 59.563Z" fill="#F8755D"/>
<path d="M161.214 59.5637C161.238 55.3055 157.658 51.8336 153.218 51.8088C148.778 51.784 145.16 55.2159 145.136 59.474C145.112 63.7322 148.692 67.2042 153.132 67.2289C157.572 67.2537 161.19 63.8219 161.214 59.5637Z" fill="#F8745D"/>
<path d="M161.142 59.5635C161.165 55.3445 157.618 51.9044 153.219 51.8799C148.819 51.8553 145.234 55.2556 145.21 59.4746C145.187 63.6936 148.734 67.1337 153.133 67.1582C157.533 67.1827 161.118 63.7825 161.142 59.5635Z" fill="#F7735C"/>
<path d="M161.062 59.5608C161.086 55.381 157.571 51.9729 153.212 51.9485C148.854 51.9242 145.301 55.2929 145.278 59.4728C145.254 63.6526 148.769 67.0607 153.128 67.085C157.487 67.1094 161.039 63.7406 161.062 59.5608Z" fill="#F7725B"/>
<path d="M160.992 59.5615C161.015 55.4209 157.533 52.0447 153.216 52.0206C148.898 51.9965 145.379 55.3337 145.356 59.4743C145.333 63.615 148.814 66.9912 153.132 67.0153C157.45 67.0394 160.968 63.7022 160.992 59.5615Z" fill="#F7715B"/>
<path d="M161.712 59.9237C161.753 55.8215 158.319 52.4614 154.042 52.4187C149.765 52.3759 146.264 55.6668 146.223 59.769C146.182 63.8713 149.616 67.2314 153.893 67.2741C158.17 67.3168 161.671 64.026 161.712 59.9237Z" fill="#F7705A"/>
<path d="M160.845 59.5604C160.868 55.4974 157.451 52.1845 153.215 52.1609C148.978 52.1373 145.525 55.4118 145.503 59.4748C145.48 63.5378 148.896 66.8507 153.133 66.8743C157.369 66.898 160.822 63.6234 160.845 59.5604Z" fill="#F76F59"/>
<path d="M160.767 59.5592C160.789 55.5354 157.406 52.2544 153.211 52.231C149.015 52.2076 145.596 55.4506 145.573 59.4744C145.551 63.4983 148.934 66.7792 153.129 66.8026C157.325 66.826 160.744 63.583 160.767 59.5592Z" fill="#F66E59"/>
<path d="M160.696 59.56C160.718 55.5753 157.368 52.3263 153.213 52.3031C149.058 52.2799 145.672 55.4913 145.649 59.476C145.627 63.4607 148.977 66.7097 153.132 66.7329C157.287 66.7561 160.673 63.5446 160.696 59.56Z" fill="#F66D58"/>
<path d="M160.622 59.5592C160.644 55.6137 157.327 52.3967 153.212 52.3737C149.098 52.3507 145.745 55.5306 145.723 59.4761C145.701 63.4216 149.018 66.6387 153.132 66.6617C157.247 66.6846 160.6 63.5048 160.622 59.5592Z" fill="#F66C57"/>
<path d="M160.551 59.56C160.573 55.6536 157.289 52.4685 153.216 52.4458C149.142 52.423 145.823 55.5713 145.801 59.4777C145.779 63.384 149.063 66.5692 153.137 66.5919C157.21 66.6146 160.53 63.4663 160.551 59.56Z" fill="#F66B57"/>
<path d="M160.473 59.5573C160.495 55.6901 157.243 52.5369 153.21 52.5144C149.178 52.4919 145.891 55.6087 145.869 59.4759C145.848 63.343 149.099 66.4963 153.132 66.5188C157.165 66.5413 160.452 63.4245 160.473 59.5573Z" fill="#F66A56"/>
<path d="M160.399 59.5569C160.42 55.7282 157.201 52.6064 153.209 52.5841C149.217 52.5619 145.963 55.6476 145.942 59.4762C145.92 63.3049 149.139 66.4267 153.131 66.449C157.124 66.4713 160.377 63.3856 160.399 59.5569Z" fill="#F66955"/>
<path d="M160.326 59.5576C160.348 55.7681 157.162 52.6782 153.211 52.6562C149.26 52.6342 146.04 55.6883 146.018 59.4778C145.997 63.2673 149.183 66.3572 153.134 66.3793C157.085 66.4013 160.305 63.3471 160.326 59.5576Z" fill="#F56855"/>
<path d="M160.252 59.5559C160.273 55.8056 157.12 52.7476 153.209 52.7258C149.299 52.704 146.111 55.7266 146.09 59.4769C146.069 63.2273 149.223 66.2853 153.133 66.3071C157.044 66.3289 160.231 63.3063 160.252 59.5559Z" fill="#F56754"/>
<path d="M160.177 59.5557C160.198 55.8445 157.078 52.8185 153.208 52.7969C149.338 52.7753 146.184 55.7664 146.163 59.4775C146.142 63.1887 149.263 66.2148 153.133 66.2364C157.003 66.2579 160.157 63.2669 160.177 59.5557Z" fill="#F56653"/>
<path d="M160.103 59.555C160.123 55.883 157.036 52.8889 153.207 52.8675C149.378 52.8462 146.258 55.8056 146.237 59.4777C146.217 63.1497 149.304 66.1438 153.133 66.1651C156.962 66.1865 160.082 63.227 160.103 59.555Z" fill="#F56553"/>
<path d="M160.033 59.5557C160.053 55.9229 156.999 52.9607 153.21 52.9396C149.422 52.9185 146.334 55.8463 146.314 59.4792C146.294 63.1121 149.348 66.0743 153.137 66.0954C156.925 66.1165 160.013 63.1886 160.033 59.5557Z" fill="#F56452"/>
<path d="M159.957 59.5555C159.977 55.9618 156.956 53.0316 153.208 53.0107C149.46 52.9898 146.405 55.8861 146.385 59.4798C146.365 63.0735 149.387 66.0038 153.135 66.0247C156.883 66.0456 159.937 63.1492 159.957 59.5555Z" fill="#F46351"/>
<path d="M159.879 59.5531C159.899 55.9979 156.91 53.0991 153.204 53.0784C149.497 53.0577 146.476 55.923 146.456 59.4782C146.436 63.0335 149.425 65.9323 153.132 65.953C156.838 65.9736 159.859 63.1083 159.879 59.5531Z" fill="#F46250"/>
<path d="M160.603 59.9116C160.639 56.3955 157.695 53.5155 154.029 53.4789C150.363 53.4423 147.362 56.2629 147.327 59.779C147.292 63.2951 150.235 66.1752 153.901 66.2118C157.568 66.2484 160.568 63.4277 160.603 59.9116Z" fill="#F46150"/>
<path d="M159.734 59.5532C159.753 56.0763 156.83 53.2413 153.204 53.2211C149.578 53.2009 146.623 56.0031 146.604 59.4799C146.585 62.9568 149.508 65.7918 153.134 65.812C156.759 65.8322 159.714 63.0301 159.734 59.5532Z" fill="#F4604F"/>
<path d="M159.663 59.5539C159.682 56.1162 156.792 53.3132 153.207 53.2932C149.623 53.2732 146.701 56.0438 146.682 59.4815C146.663 62.9192 149.553 65.7223 153.138 65.7423C156.722 65.7623 159.644 62.9916 159.663 59.5539Z" fill="#F45F4E"/>
<path d="M159.584 59.5512C159.603 56.1527 156.746 53.3816 153.202 53.3618C149.658 53.3421 146.77 56.0811 146.751 59.4797C146.732 62.8782 149.589 65.6493 153.133 65.6691C156.677 65.6889 159.565 62.9498 159.584 59.5512Z" fill="#F35E4E"/>
<path d="M159.513 59.552C159.531 56.1926 156.706 53.4534 153.203 53.4339C149.7 53.4143 146.844 56.1218 146.826 59.4812C146.807 62.8406 149.632 65.5798 153.135 65.5994C156.638 65.6189 159.494 62.9114 159.513 59.552Z" fill="#F35D4D"/>
<path d="M159.438 59.5516C159.456 56.2307 156.665 53.5229 153.202 53.5036C149.74 53.4843 146.918 56.1607 146.9 59.4816C146.881 62.8025 149.673 65.5103 153.135 65.5296C156.597 65.5489 159.419 62.8725 159.438 59.5516Z" fill="#F35C4C"/>
<path d="M159.368 59.5523C159.386 56.2706 156.627 53.5948 153.206 53.5757C149.784 53.5566 146.995 56.2015 146.977 59.4832C146.958 62.7649 149.717 65.4408 153.139 65.4599C156.561 65.4789 159.35 62.834 159.368 59.5523Z" fill="#F35B4C"/>
<path d="M159.291 59.5496C159.309 56.3071 156.583 53.6632 153.202 53.6443C149.821 53.6255 147.065 56.2388 147.047 59.4813C147.029 62.7239 149.755 65.3678 153.136 65.3867C156.517 65.4056 159.273 62.7922 159.291 59.5496Z" fill="#F35A4B"/>
<path d="M159.214 59.5489C159.232 56.3455 156.539 53.7335 153.199 53.7149C149.859 53.6963 147.137 56.278 147.119 59.4815C147.101 62.6849 149.794 65.2968 153.134 65.3155C156.474 65.3341 159.196 62.7523 159.214 59.5489Z" fill="#F3594A"/>
<path d="M159.143 59.5487C159.161 56.3845 156.501 53.8044 153.201 53.786C149.901 53.7676 147.212 56.3178 147.195 59.482C147.177 62.6463 149.837 65.2263 153.137 65.2448C156.436 65.2632 159.126 62.7129 159.143 59.5487Z" fill="#F2584A"/>
<path d="M159.069 59.5485C159.086 56.4234 156.458 53.8753 153.199 53.8571C149.94 53.8389 147.284 56.3576 147.267 59.4827C147.249 62.6077 149.877 65.1559 153.136 65.174C156.395 65.1922 159.051 62.6736 159.069 59.5485Z" fill="#F25749"/>
<path d="M158.994 59.5478C159.011 56.4618 156.417 53.9457 153.199 53.9277C149.981 53.9098 147.359 56.3968 147.341 59.4828C147.324 62.5687 149.919 65.0849 153.136 65.1028C156.354 65.1208 158.977 62.6337 158.994 59.5478Z" fill="#F25648"/>
<path d="M159.715 59.9012C159.745 56.8537 157.194 54.3576 154.017 54.3258C150.839 54.2941 148.239 56.7388 148.208 59.7863C148.178 62.8337 150.729 65.3299 153.906 65.3617C157.084 65.3934 159.684 62.9487 159.715 59.9012Z" fill="#F25548"/>
<path d="M153.281 54.0719C150.145 54.0128 147.554 56.4036 147.493 59.4113C147.433 62.4191 149.927 64.9044 153.063 64.9659C156.199 65.0273 158.79 62.6342 158.85 59.6264C158.911 56.6187 156.416 54.131 153.281 54.0719Z" fill="#F25447"/>
<path d="M158.774 59.5479C158.791 56.5788 156.295 54.1578 153.199 54.1406C150.103 54.1233 147.58 56.5162 147.564 59.4853C147.547 62.4544 150.043 64.8753 153.139 64.8926C156.234 64.9099 158.757 62.5169 158.774 59.5479Z" fill="#F15346"/>
<path d="M158.699 59.5462C158.716 56.6162 156.252 54.2272 153.197 54.2102C150.142 54.1932 147.652 56.5545 147.636 59.4844C147.619 62.4144 150.083 64.8034 153.138 64.8204C156.193 64.8375 158.683 62.4761 158.699 59.5462Z" fill="#F15246"/>
<path d="M158.619 59.5435C158.635 56.6527 156.204 54.2957 153.19 54.2789C150.175 54.262 147.718 56.5918 147.702 59.4826C147.686 62.3734 150.117 64.7304 153.131 64.7472C156.146 64.7641 158.603 62.4343 158.619 59.5435Z" fill="#F15145"/>
</g>
<path d="M175.03 59.1357C176.362 54.92 175.103 50.7649 172.217 49.8549C169.331 48.945 165.911 51.6248 164.579 55.8405C163.246 60.0562 164.506 64.2113 167.392 65.1212C170.278 66.0312 173.697 63.3513 175.03 59.1357Z" fill="#FF9A77"/>
<path d="M172.618 59.806C169.839 61.5527 166.9 60.9606 164.782 59.2151C164.812 62.7452 164.01 69.4366 158.893 76.2333C154.784 81.6886 145.975 83.4424 139.442 83.1528C123.857 82.4697 119.791 77.6822 116.632 71.2377C118.779 78.2967 124.128 84.8558 136.381 85.78C159.084 87.4913 165.406 78.0734 166.383 64.6255C166.644 64.8063 166.926 64.9543 167.223 65.0663C170.063 66.1063 173.524 63.5571 174.944 59.3711C175.297 58.3419 175.498 57.2671 175.543 56.1802C175.008 57.6853 173.976 58.9639 172.618 59.806Z" fill="#FF8768"/>
<path d="M167.604 57.4849L170.207 57.8749C170.207 53.7669 173.272 52.4219 173.272 52.4219C168.333 50.6008 167.604 57.4849 167.604 57.4849Z" fill="#FF8768"/>
<path d="M150.506 65.1006C150.506 65.0931 150.506 65.0856 150.506 65.0781C150.506 65.0781 150.503 65.0829 150.506 65.1006Z" fill="#7C302A"/>
<path d="M143.398 9.8077C114.508 11.5592 118.527 43.5522 118.527 43.5522C120.302 34.0551 126.313 22.2972 130.863 22.0892C130.863 22.0892 134.794 25.338 140.707 25.4904C145.995 25.6275 153.352 21.8268 153.352 21.8268C158.63 21.7334 164.575 38.0827 165.207 51.2364C165.351 54.2453 167.986 50.7873 167.986 50.7873C167.986 50.7873 171.708 8.0917 143.398 9.8077Z" fill="#563428"/>
<path d="M158.479 12.382C150.012 -0.680665 122.165 2.94279 122.165 2.94279C119.384 17.6966 129.703 21.0825 129.703 21.0825C129.703 21.0825 153.818 16.9284 157.449 19.519C161.081 22.1095 168.082 42.8008 168.082 42.8008C168.082 42.8008 174.362 21.2823 169.865 13.3286C166.565 7.48807 158.479 12.382 158.479 12.382Z" fill="#563428"/>
<path d="M132.947 0C133.036 1.95709 134.712 3.95318 134.712 3.95318C134.712 3.95318 163.781 23.9153 158.479 12.3819C153.176 0.848547 132.947 0 132.947 0Z" fill="#563428"/>
<path d="M163.23 8.44873C161.586 8.69337 161.195 9.46628 161.195 9.46628C162.391 7.31655 161.592 4.375 161.592 4.375C158.374 6.19146 158.679 8.74773 158.679 8.74773C157.126 5.45164 152.289 4.40455 152.289 4.40455C152.431 7.12273 155.317 9.90946 155.473 9.99455L157.958 13.8307L163.164 13.0425L162.675 10.719C163.535 9.51946 163.23 8.44873 163.23 8.44873Z" fill="#563428"/>
<path d="M122.883 14.1865C114.382 16.7168 116.651 50.4932 116.651 50.4932C118.426 40.9961 126.313 22.2973 130.863 22.0893C130.863 22.0893 126.666 19.5567 122.883 14.1865Z" fill="#472A21"/>
<path opacity="0.12" d="M155.916 12.1185C155.933 12.1197 155.962 12.1161 155.916 12.1185V12.1185Z" fill="white"/>
<path opacity="0.11" d="M166.595 10.6894C165.554 10.849 164.456 11.1007 163.322 11.3524C160.618 11.9516 157.774 12.3475 155.009 11.961C151.796 11.512 148.982 10.0607 146.135 8.6035C144.697 7.86723 143.264 7.11913 141.781 6.47623C138.608 5.09704 134.863 3.73913 131.354 3.83486C129.617 3.88213 127.913 4.40213 126.312 5.0474C124.962 5.59071 123.734 6.39975 122.703 7.42641C122.348 7.78009 122.02 8.15972 121.721 8.56214C121.759 9.6317 121.893 10.6957 122.122 11.7412C122.232 11.6514 122.346 11.5604 122.469 11.467C123.139 10.9828 123.862 10.5768 124.624 10.2569C125.54 9.87209 126.511 9.63283 127.502 9.54777C131.677 9.25114 135.548 10.9459 139.302 12.5212C140.841 13.1665 142.406 13.9158 144.063 14.613C145.751 15.3558 147.479 16.0075 149.237 16.5654C152.273 17.5109 155.982 17.8099 159.082 16.9684C159.501 16.8502 159.911 16.7604 160.318 16.6387C161.765 16.1706 163.172 15.5852 164.524 14.8884C165.735 14.275 166.773 13.7149 167.684 13.2941C168.235 13.0243 168.808 12.799 169.396 12.6205C168.708 11.6782 167.721 10.9973 166.595 10.6894Z" fill="#FC901E"/>
<path d="M136.43 55.3673C136.43 55.3673 132.354 52.3489 130.856 57.5584C129.358 62.7678 139.751 65.9599 142.661 60.5294C145.572 55.099 138.195 44.855 138.195 44.855C138.195 44.855 139.613 51.1375 136.43 55.3673Z" fill="#FF9A77"/>
<path opacity="0.2" d="M136.43 55.3669C136.43 55.3669 132.471 52.5305 130.965 57.2058C133.095 57.7452 135.27 58.0948 137.462 58.2506C138.738 55.2747 139.19 52.0436 139.356 48.5537C139.07 48.5537 138.786 48.5537 138.501 48.5396C138.481 50.6337 138.066 53.1924 136.43 55.3669Z" fill="white"/>
<path d="M165.181 50.7639C163.724 65.266 148.996 67.099 148.862 66.8709C152.42 70.4163 149.69 76.3018 145.157 74.3317C143.626 73.6663 142.091 72.1158 138.791 72.0366C135.36 71.9551 133.49 73.4678 132.585 73.9712C128.878 76.0311 124.386 72.5649 128.878 65.9609C128.878 65.9609 123.859 64.8972 122.328 64.0475C119.41 62.4367 117.975 59.1288 117.27 56.0241C116.981 54.7406 116.794 53.4367 116.709 52.1241C116.676 51.6443 116.535 50.9636 116.654 50.4873C113.085 64.6325 110.545 87.5385 140.383 87.2289C170.22 86.9192 166.716 64.2319 166.716 64.2319C165.31 59.2079 167.986 50.7828 167.986 50.7828L165.181 50.7639Z" fill="#563428"/>
<path d="M146.588 69.5738C144.931 68.3814 142.091 66.4018 138.288 66.4455C134.446 66.507 131.333 68.6567 129.881 69.939C129.733 70.0692 129.613 70.2285 129.53 70.4069C129.446 70.5853 129.4 70.7789 129.395 70.9758C129.389 71.1728 129.424 71.3687 129.498 71.5514C129.572 71.7341 129.682 71.8997 129.823 72.0379L129.941 72.1561C130.184 72.3965 130.505 72.542 130.846 72.5661C131.187 72.5901 131.525 72.4912 131.799 72.2873C133.033 71.3702 135.401 69.9638 138.36 69.9154C141.296 69.8634 143.631 71.1114 144.868 71.9564C145.15 72.1527 145.493 72.2424 145.835 72.2093C146.177 72.1761 146.496 72.0224 146.734 71.7755L146.782 71.7259C146.924 71.5781 147.032 71.4017 147.1 71.2085C147.168 71.0152 147.194 70.8097 147.175 70.6057C147.157 70.4018 147.095 70.2041 146.994 70.0261C146.892 69.8481 146.754 69.6939 146.588 69.5738Z" fill="#FF755C"/>
<path d="M137.396 60.5046C137.396 60.5046 133.985 59.0332 128.841 62.0114C124.905 64.2899 123.407 69.2607 123.407 69.2607C123.407 69.2607 128.85 70.3976 138.007 67.1948C147.118 71.5345 154.306 69.6199 154.306 69.6199C154.306 69.6199 150.951 58.7011 137.396 60.5046Z" fill="#563428"/>
<path d="M130.741 59.0151C131.314 63.3051 140.035 65.4312 142.662 60.529C142.82 60.2268 142.948 59.9102 143.046 59.5836C138.934 60.4274 134.663 60.1461 130.741 59.0151Z" fill="#FF8768"/>
<path opacity="0.16" d="M138.804 73.9713C136.863 73.9606 135.285 74.8884 135.279 76.043C135.273 77.1976 136.841 78.1431 138.782 78.1537C140.722 78.1644 142.301 77.2366 142.307 76.082C142.313 74.9274 140.742 73.9819 138.804 73.9713Z" fill="black"/>
<path opacity="0.53" d="M141.656 35.3008C140.972 35.1353 139.289 39.6806 139.393 41.8965C139.393 41.8965 138.554 37.4623 138.018 37.5805C137.482 37.6987 138.221 43.5369 139.221 43.9848C140.22 44.4327 142.341 35.4615 141.656 35.3008Z" fill="#FF8768"/>
<path opacity="0.7" d="M122.901 44.1491C121.277 47.7407 121.689 50.4127 121.689 50.4127C121.689 50.4127 125.419 53.7218 126.963 53.8554C128.429 53.983 133.263 52.4608 133.263 52.4608C137.005 46.079 135.813 41.3777 135.813 41.3777C132.438 40.3023 122.901 44.1491 122.901 44.1491Z" fill="#FF8768"/>
<path opacity="0.7" d="M147.715 43.2559L145.752 39.6147C142.995 45.8784 146.85 52.1302 146.85 52.1302H159.156C159.156 52.1302 161.48 49.1875 159.211 45.6243C157.321 42.6615 147.715 43.2559 147.715 43.2559Z" fill="#FF8768"/>
<path d="M125.167 43.1066C123.392 43.7731 122.833 44.9207 122.833 44.9207C129.795 46.2691 134.101 45.5116 135.349 43.9658C136.804 42.1682 135.149 38.9702 135.149 38.9702C132.042 41.9413 128.775 41.7546 125.167 43.1066Z" fill="#472A21"/>
<path d="M156.823 43.6542C153.215 42.3022 148.859 42.5847 145.752 39.6147C145.752 39.6147 144.096 42.8116 145.552 44.6091C146.801 46.1455 152.245 46.9728 159.206 45.6196C159.206 45.6196 158.601 44.3207 156.823 43.6542Z" fill="#472A21"/>
<path opacity="0.12" d="M150.667 13.6584C150.684 13.6584 150.715 13.6536 150.667 13.6584V13.6584Z" fill="white"/>
<path opacity="0.2" d="M153.174 24.6646C153.174 24.6646 153.504 24.5819 153.444 23.5218C153.383 22.4617 143.684 20.3711 143.684 20.3711L120.857 33.4987C119.271 38.3383 117.749 43.8987 116.802 49.5561C116.533 49.5829 116.268 49.638 116.012 49.7204C113.856 50.4153 112.58 52.9349 112.595 55.9332C120.642 48.9688 129.516 45.5226 133.338 40.1547C135.066 37.7261 148.77 40.6428 151.607 39.5839C154.445 38.525 154.281 35.262 154.281 35.262C154.281 35.262 155.803 33.1915 156.15 32.4327C156.497 31.674 156.198 30.4556 156.198 30.4556C156.198 30.4556 157.928 28.9476 157.647 28.0919C157.101 26.422 153.174 24.6646 153.174 24.6646Z" fill="#5C0000"/>
<path d="M155.563 26.8118C154.471 25.9397 151.457 24.5439 151.457 24.5439C151.457 24.5439 152.811 22.8894 152.113 21.9262C151.414 20.963 140.93 17.3892 139.009 17.3029C137.087 17.2167 125.295 18.6987 123.722 19.4834C122.149 20.2681 106.28 38.5107 106.28 38.5107L114.157 50.5002C114.157 50.5002 114.813 50.4199 115.696 49.1825C116.578 47.9451 119.009 48.3623 123.072 45.9195C127.136 43.4767 130.54 38.0675 132.943 37.3265C135.347 36.5855 147.268 38.591 150.501 37.3265C153.734 36.0619 152.335 34.054 152.335 34.054C153.078 33.924 154.868 32.9644 154.912 31.8298C154.927 31.5069 154.854 31.186 154.7 30.9015C154.546 30.6171 154.318 30.3799 154.039 30.2155C156 29.7782 156.654 27.684 155.563 26.8118Z" fill="#FF9A77"/>
<path d="M155.563 26.8119C154.471 25.9397 151.457 24.544 151.457 24.544C151.457 24.544 152.811 22.8895 152.113 21.9263C151.414 20.9631 140.93 17.3893 139.009 17.303C137.422 17.2309 129.1 18.2296 125.365 19.0226L138.804 17.5937C145.851 18.4659 149.927 21.1392 151.033 21.8388C152.14 22.5385 151.27 23.5265 150.858 23.5844C150.446 23.6423 141.425 19.6288 140.842 19.513C140.258 19.3972 129.137 20.1524 129.137 20.1524L129.492 20.8508C129.492 20.8508 139.799 20.3852 140.555 20.4431C141.311 20.501 154.163 25.9173 154.881 27.0743C155.6 28.2313 154.645 28.9936 153.892 29.1673C153.14 29.341 141.139 24.3987 140.148 24.1658C139.158 23.933 130.889 24.1658 130.889 24.1658L131.007 25.3287C131.007 25.3287 139.102 25.2708 139.626 25.3287C140.151 25.3867 153.311 29.575 154.011 30.8549C154.71 32.1348 153.486 33.1807 152.613 33.2387C151.74 33.2966 142.597 30.0407 141.315 29.9237C140.034 29.8067 130.134 29.5171 130.134 29.5171L129.805 30.4472C129.805 30.4472 150.574 33.5294 151.04 33.8993C151.507 34.2692 151.623 34.7514 151.04 35.6236C150.458 36.4958 130.774 33.0649 130.774 33.0649C128.27 38.1302 122.456 45.5355 119.899 47.5659C120.995 47.0971 122.053 46.5463 123.066 45.9184C127.127 43.4756 130.534 38.0664 132.937 37.3254C135.341 36.5844 147.262 38.5899 150.495 37.3254C153.728 36.0608 152.329 34.0529 152.329 34.0529C153.072 33.9229 154.862 32.9633 154.906 31.8287C154.921 31.5058 154.848 31.1849 154.694 30.9004C154.54 30.616 154.312 30.3788 154.033 30.2144C156 29.7783 156.654 27.6841 155.563 26.8119Z" fill="#FF8768"/>
<path d="M127.15 52.9407C123.057 52.6571 121.683 49.9365 121.683 49.9365C121.683 49.9365 121.379 55.211 126.614 55.4379C133.101 55.718 134.401 50.1102 134.401 50.1102C134.401 50.1102 131.41 53.2338 127.15 52.9407Z" fill="#3E1208"/>
<path d="M151.968 53.3471C146.843 52.5281 145.533 49.1221 145.533 49.1221C145.533 49.1221 145.06 55.0843 151.232 55.7958C157.286 56.4931 159.435 51.6039 159.435 51.6039C159.435 51.6039 155.725 53.9486 151.968 53.3471Z" fill="#3E1208"/>
</g>
<defs>
<linearGradient id="paint0_linear_1_4750" x1="199.471" y1="176.368" x2="99.2241" y2="182.311" gradientUnits="userSpaceOnUse">
<stop stop-color="#A4B1BA"/>
<stop offset="1" stop-color="#494F53"/>
</linearGradient>
<linearGradient id="paint1_linear_1_4750" x1="48.1109" y1="143.153" x2="67.8539" y2="194.549" gradientUnits="userSpaceOnUse">
<stop stop-color="#A4B1BA"/>
<stop offset="1" stop-color="#494F53"/>
</linearGradient>
<linearGradient id="paint2_linear_1_4750" x1="21.216" y1="124.24" x2="90.6057" y2="195.339" gradientUnits="userSpaceOnUse">
<stop stop-color="#A4B1BA"/>
<stop offset="1" stop-color="#494F53"/>
</linearGradient>
</defs>
</svg>
