<svg width="72" height="66" viewBox="0 0 72 66" fill="none" xmlns="http://www.w3.org/2000/svg">
<path d="M25 22.5L27.3333 20.1667M27.3333 20.1667L35.5 12L43.6667 20.1667M27.3333 20.1667V31.8333C27.3333 32.1428 27.4562 32.4395 27.675 32.6583C27.8938 32.8771 28.1906 33 28.5 33H32C32.3094 33 32.6062 32.8771 32.825 32.6583C33.0437 32.4395 33.1667 32.1428 33.1667 31.8333V27.1667C33.1667 26.8572 33.2896 26.5605 33.5084 26.3417C33.7272 26.1229 34.0239 26 34.3333 26H36.6667C36.9761 26 37.2728 26.1229 37.4916 26.3417C37.7104 26.5605 37.8333 26.8572 37.8333 27.1667V31.8333C37.8333 32.1428 37.9562 32.4395 38.175 32.6583C38.3938 32.8771 38.6906 33 39 33H42.5C42.8094 33 43.1062 32.8771 43.325 32.6583C43.5438 32.4395 43.6667 32.1428 43.6667 31.8333V20.1667M43.6667 20.1667L46 22.5" stroke="#9B9B9B" stroke-linecap="round" stroke-linejoin="round"/>
<path d="M17.08 48V39.6H18.22V43.188H22.36V39.6H23.5V48H22.36V44.172H18.22V48H17.08ZM28.1601 48.144C27.5681 48.144 27.0361 48.008 26.5641 47.736C26.0921 47.456 25.7201 47.072 25.4481 46.584C25.1841 46.088 25.0521 45.52 25.0521 44.88C25.0521 44.208 25.1881 43.628 25.4601 43.14C25.7321 42.652 26.1041 42.276 26.5761 42.012C27.0481 41.748 27.5761 41.616 28.1601 41.616C28.7441 41.616 29.2681 41.748 29.7321 42.012C30.2041 42.276 30.5761 42.652 30.8481 43.14C31.1281 43.62 31.2681 44.192 31.2681 44.856C31.2681 45.52 31.1321 46.1 30.8601 46.596C30.5881 47.084 30.2161 47.464 29.7441 47.736C29.2801 48.008 28.7521 48.144 28.1601 48.144ZM28.1601 47.184C28.7921 47.184 29.2841 46.972 29.6361 46.548C29.9881 46.116 30.1641 45.56 30.1641 44.88C30.1641 44.464 30.0761 44.084 29.9001 43.74C29.7241 43.388 29.4841 43.108 29.1801 42.9C28.8841 42.684 28.5441 42.576 28.1601 42.576C27.5281 42.576 27.0361 42.784 26.6841 43.2C26.3321 43.616 26.1561 44.168 26.1561 44.856C26.1561 45.272 26.2441 45.66 26.4201 46.02C26.5961 46.372 26.8321 46.656 27.1281 46.872C27.4321 47.08 27.7761 47.184 28.1601 47.184ZM32.698 48V41.76H33.742V42.804C33.966 42.468 34.25 42.188 34.594 41.964C34.938 41.732 35.33 41.616 35.77 41.616C36.266 41.616 36.67 41.736 36.982 41.976C37.302 42.216 37.526 42.536 37.654 42.936C37.902 42.568 38.194 42.256 38.53 42C38.874 41.744 39.298 41.616 39.802 41.616C40.482 41.616 40.986 41.832 41.314 42.264C41.65 42.688 41.818 43.244 41.818 43.932V48H40.738V44.016C40.738 43.584 40.638 43.236 40.438 42.972C40.238 42.7 39.962 42.564 39.61 42.564C39.25 42.564 38.914 42.7 38.602 42.972C38.298 43.236 38.03 43.548 37.798 43.908V48H36.718V44.016C36.718 43.584 36.618 43.236 36.418 42.972C36.218 42.7 35.942 42.564 35.59 42.564C35.238 42.564 34.906 42.696 34.594 42.96C34.282 43.216 34.01 43.52 33.778 43.872V48H32.698ZM46.1685 48.144C45.2725 48.144 44.5605 47.86 44.0325 47.292C43.5125 46.716 43.2525 45.912 43.2525 44.88C43.2525 44.256 43.3685 43.7 43.6005 43.212C43.8405 42.716 44.1725 42.328 44.5965 42.048C45.0205 41.76 45.5125 41.616 46.0725 41.616C46.6725 41.616 47.1685 41.748 47.5605 42.012C47.9605 42.268 48.2605 42.616 48.4605 43.056C48.6605 43.496 48.7605 43.98 48.7605 44.508C48.7605 44.788 48.7485 45.06 48.7245 45.324H44.3565C44.4285 45.908 44.6325 46.364 44.9685 46.692C45.3045 47.02 45.7485 47.184 46.3005 47.184C46.6605 47.184 46.9845 47.148 47.2725 47.076C47.5605 46.996 47.8365 46.896 48.1005 46.776L48.3525 47.7C48.0645 47.828 47.7405 47.932 47.3805 48.012C47.0205 48.1 46.6165 48.144 46.1685 48.144ZM44.3445 44.448H47.7645C47.7645 43.84 47.6125 43.372 47.3085 43.044C47.0045 42.716 46.5845 42.552 46.0485 42.552C45.5845 42.552 45.2005 42.716 44.8965 43.044C44.5925 43.364 44.4085 43.832 44.3445 44.448Z" fill="#9B9B9B"/>
</svg>
