<svg width="15" height="15" viewBox="0 0 15 15" fill="none" xmlns="http://www.w3.org/2000/svg">
<path d="M7.5 0C5.51088 0 3.60322 0.790176 2.1967 2.1967C0.790176 3.60322 0 5.51088 0 7.5C0 9.48912 0.790176 11.3968 2.1967 12.8033C3.60322 14.2098 5.51088 15 7.5 15C7.63816 15 7.77434 15 7.91053 14.9882C9.75361 14.8871 11.4947 14.1099 12.8005 12.8053C14.1064 11.5007 14.8853 9.76041 14.9882 7.91743C14.9961 7.77928 15 7.64013 15 7.5C15 5.51088 14.2098 3.60322 12.8033 2.1967C11.3968 0.790176 9.48912 0 7.5 0V0ZM7.84638 9.73125L5.97138 11.5688C5.86415 11.673 5.73743 11.7551 5.59845 11.8104C5.45948 11.8657 5.31097 11.8931 5.16142 11.891C5.01186 11.8889 4.86419 11.8573 4.72682 11.7982C4.58946 11.739 4.46511 11.6533 4.36086 11.5461L3.89112 11.0655L3.38388 10.5484C3.27923 10.4415 3.19664 10.3151 3.14085 10.1763C3.08505 10.0376 3.05714 9.88917 3.05869 9.73962C3.06025 9.59006 3.09125 9.44228 3.14993 9.30471C3.2086 9.16714 3.2938 9.04247 3.40066 8.93783L5.27566 7.1023C5.43678 6.94507 5.6409 6.83913 5.86221 6.79785C6.08353 6.75657 6.31211 6.78182 6.51908 6.8704C6.55405 6.88535 6.58478 6.90872 6.60855 6.93842C6.63231 6.96811 6.64838 7.00322 6.65531 7.04062C6.66224 7.07801 6.65983 7.11654 6.64829 7.15279C6.63674 7.18903 6.61643 7.22186 6.58914 7.24836L6.40362 7.43092C6.37555 7.4589 6.34067 7.47907 6.30243 7.48945C6.26418 7.49984 6.22389 7.50007 6.18553 7.49013C5.86086 7.40526 5.88947 7.47632 3.88816 9.43816C3.84626 9.47898 3.81296 9.52778 3.79023 9.58168C3.76749 9.63557 3.75578 9.69348 3.75578 9.75197C3.75578 9.81047 3.76749 9.86837 3.79023 9.92227C3.81296 9.97617 3.84626 10.025 3.88816 10.0658L4.38158 10.572L4.85822 11.0586C4.89847 11.0999 4.94648 11.1328 4.9995 11.1555C5.05251 11.1782 5.10948 11.1902 5.16715 11.1909C5.22482 11.1915 5.28205 11.1808 5.33555 11.1593C5.38906 11.1377 5.43779 11.1059 5.47895 11.0655C7.47434 9.11151 7.55132 9.1352 7.47632 8.81546C7.46682 8.7763 7.46765 8.73534 7.47872 8.6966C7.48979 8.65785 7.51072 8.62264 7.53947 8.59441L7.725 8.41086C7.75238 8.38396 7.78645 8.36488 7.82368 8.35559L8.14638 9.20329C8.0961 9.40322 7.9924 9.58572 7.84638 9.73125ZM7.63421 7.85625L6.74605 8.73059C6.7133 8.76273 6.67451 8.78805 6.63192 8.80511C6.58933 8.82217 6.54378 8.83063 6.4979 8.82998C6.45203 8.82934 6.40673 8.81962 6.36463 8.80137C6.32254 8.78313 6.28447 8.75672 6.25263 8.72368C6.24991 8.72171 6.24785 8.71896 6.24671 8.71579C6.18503 8.64953 6.15165 8.56182 6.15367 8.47131C6.1557 8.38081 6.19298 8.29468 6.25757 8.23125L7.36776 7.14572L8.25592 6.27237C8.31596 6.21322 8.39555 6.17806 8.4797 6.17352C8.56386 6.16898 8.64677 6.19536 8.71283 6.2477C8.72599 6.25587 8.73795 6.26583 8.74836 6.2773C8.81297 6.34317 8.84916 6.43175 8.84916 6.52401C8.84916 6.61628 8.81297 6.70486 8.74836 6.77072L7.63421 7.85625ZM11.5993 6.05921L9.72434 7.89474C9.56352 8.05045 9.36047 8.15545 9.14045 8.19668C8.92042 8.23791 8.69313 8.21356 8.48684 8.12665C8.45179 8.11166 8.42097 8.08826 8.39712 8.05852C8.37327 8.02878 8.35711 7.99362 8.35009 7.95615C8.34306 7.91868 8.34538 7.88006 8.35684 7.8437C8.3683 7.80734 8.38855 7.77437 8.41579 7.7477L8.60033 7.56513C8.62865 7.53691 8.66386 7.51659 8.70247 7.5062C8.74108 7.49581 8.78174 7.49572 8.82039 7.50592C9.14408 7.59079 9.11645 7.51974 11.1168 5.55789C11.1585 5.51685 11.1916 5.46792 11.2142 5.41396C11.2368 5.36 11.2484 5.30209 11.2484 5.24359C11.2484 5.18509 11.2368 5.12717 11.2142 5.07321C11.1916 5.01925 11.1585 4.97032 11.1168 4.92928L10.5819 4.38454L10.1447 3.93651C10.1044 3.89527 10.0564 3.8624 10.0033 3.83978C9.95027 3.81715 9.89327 3.80522 9.8356 3.80467C9.77794 3.80412 9.72073 3.81496 9.66726 3.83657C9.61379 3.85818 9.56511 3.89013 9.52401 3.93059C7.53849 5.87368 7.45164 5.86086 7.52664 6.18059C7.53619 6.22021 7.5354 6.26163 7.52434 6.30085C7.51328 6.34008 7.49233 6.37581 7.46349 6.40461L7.27796 6.58421C7.25029 6.61114 7.21639 6.63081 7.17928 6.64145C7.1244 6.65724 7.06561 6.65204 7.01435 6.62686C6.96309 6.60169 6.92303 6.55834 6.90197 6.50526C6.80924 6.2788 6.79329 6.02817 6.85658 5.79178C6.90859 5.59303 7.01325 5.412 7.15954 5.26776L9.03454 3.43125C9.25092 3.22118 9.54162 3.10524 9.84318 3.10875C10.1447 3.11227 10.4327 3.23494 10.6441 3.45L11.0743 3.89112L11.6211 4.4477C11.7254 4.55486 11.8076 4.68154 11.863 4.82048C11.9183 4.95942 11.9458 5.1079 11.9438 5.25746C11.9418 5.40701 11.9103 5.55471 11.8512 5.6921C11.7921 5.8295 11.7065 5.95391 11.5993 6.05822V6.05921Z" fill="#A3A3A3"/>
</svg>
