<svg width="72" height="66" viewBox="0 0 72 66" fill="none" xmlns="http://www.w3.org/2000/svg">
<g filter="url(#filter0_d_267_951)">
<path d="M20.08 47.9969V39.5969H21.22V46.9769H25.072V47.9969H20.08ZM26.0829 47.9969V41.7569H27.1629V47.9969H26.0829ZM26.6229 40.6889C26.4149 40.6889 26.2349 40.6129 26.0829 40.4609C25.9389 40.3089 25.8669 40.1329 25.8669 39.9329C25.8669 39.7009 25.9349 39.5169 26.0709 39.3809C26.2069 39.2449 26.3909 39.1769 26.6229 39.1769C26.8309 39.1769 27.0069 39.2529 27.1509 39.4049C27.3029 39.5489 27.3789 39.7249 27.3789 39.9329C27.3789 40.1569 27.3109 40.3409 27.1749 40.4849C27.0389 40.6209 26.8549 40.6889 26.6229 40.6889ZM31.8849 48.1409C31.5249 48.1409 31.1849 48.0769 30.8649 47.9489C30.5529 47.8129 30.2929 47.6569 30.0849 47.4809V47.9969H29.0769V39.1169H30.1569V42.4049C30.3169 42.2209 30.5489 42.0449 30.8529 41.8769C31.1649 41.7009 31.5329 41.6129 31.9569 41.6129C32.4369 41.6129 32.8849 41.7409 33.3009 41.9969C33.7249 42.2449 34.0649 42.6089 34.3209 43.0889C34.5769 43.5609 34.7049 44.1369 34.7049 44.8169C34.7049 45.3129 34.6249 45.7649 34.4649 46.1729C34.3049 46.5809 34.0889 46.9329 33.8169 47.2289C33.5529 47.5169 33.2529 47.7409 32.9169 47.9009C32.5809 48.0609 32.2369 48.1409 31.8849 48.1409ZM31.5969 47.1809C31.9889 47.1809 32.3329 47.0849 32.6289 46.8929C32.9329 46.7009 33.1689 46.4289 33.3369 46.0769C33.5129 45.7249 33.6009 45.3169 33.6009 44.8529C33.6009 44.3729 33.5129 43.9609 33.3369 43.6169C33.1689 43.2729 32.9409 43.0089 32.6529 42.8249C32.3729 42.6409 32.0609 42.5489 31.7169 42.5489C31.3729 42.5489 31.0609 42.6369 30.7809 42.8129C30.5089 42.9809 30.3009 43.1649 30.1569 43.3649V46.7009C30.3409 46.8449 30.5569 46.9609 30.8049 47.0489C31.0529 47.1369 31.3169 47.1809 31.5969 47.1809ZM36.1959 47.9969V41.7569H37.2399V43.1129C37.3439 42.8489 37.4839 42.6049 37.6599 42.3809C37.8359 42.1489 38.0559 41.9649 38.3199 41.8289C38.5839 41.6849 38.8919 41.6129 39.2439 41.6129C39.3639 41.6129 39.4839 41.6209 39.6039 41.6369C39.7239 41.6449 39.8239 41.6609 39.9039 41.6849L39.5799 42.8009C39.4279 42.7369 39.2479 42.7049 39.0399 42.7049C38.7439 42.7049 38.4599 42.7889 38.1879 42.9569C37.9239 43.1249 37.7039 43.3849 37.5279 43.7369C37.3599 44.0889 37.2759 44.5369 37.2759 45.0809V47.9969H36.1959ZM43.0076 48.1409C42.4876 48.1409 42.0156 48.0089 41.5916 47.7449C41.1676 47.4809 40.8276 47.1089 40.5716 46.6289C40.3236 46.1409 40.1996 45.5689 40.1996 44.9129C40.1996 44.2889 40.3236 43.7289 40.5716 43.2329C40.8276 42.7369 41.1756 42.3449 41.6156 42.0569C42.0636 41.7609 42.5756 41.6129 43.1516 41.6129C43.5116 41.6129 43.8356 41.6769 44.1236 41.8049C44.4196 41.9249 44.6756 42.0769 44.8916 42.2609V41.7569H45.8756V46.4849C45.8756 46.7889 45.9476 46.9889 46.0916 47.0849C46.2436 47.1729 46.4076 47.2169 46.5836 47.2169L46.3556 48.0569C45.5876 48.0569 45.1236 47.7449 44.9636 47.1209C44.7796 47.3769 44.5276 47.6129 44.2076 47.8289C43.8956 48.0369 43.4956 48.1409 43.0076 48.1409ZM43.2476 47.1809C43.5516 47.1809 43.8396 47.1089 44.1116 46.9649C44.3836 46.8129 44.6116 46.6249 44.7956 46.4009V43.0529C44.5796 42.9009 44.3396 42.7809 44.0756 42.6929C43.8196 42.5969 43.5476 42.5489 43.2596 42.5489C42.8756 42.5489 42.5356 42.6489 42.2396 42.8489C41.9516 43.0409 41.7236 43.3129 41.5556 43.6649C41.3876 44.0089 41.3036 44.4129 41.3036 44.8769C41.3036 45.3249 41.3876 45.7249 41.5556 46.0769C41.7236 46.4209 41.9556 46.6929 42.2516 46.8929C42.5476 47.0849 42.8796 47.1809 43.2476 47.1809ZM48.0198 47.9969V41.7569H49.0638V43.1129C49.1678 42.8489 49.3078 42.6049 49.4838 42.3809C49.6598 42.1489 49.8798 41.9649 50.1438 41.8289C50.4078 41.6849 50.7158 41.6129 51.0678 41.6129C51.1878 41.6129 51.3078 41.6209 51.4278 41.6369C51.5478 41.6449 51.6478 41.6609 51.7278 41.6849L51.4038 42.8009C51.2518 42.7369 51.0718 42.7049 50.8638 42.7049C50.5678 42.7049 50.2838 42.7889 50.0118 42.9569C49.7478 43.1249 49.5278 43.3849 49.3518 43.7369C49.1838 44.0889 49.0998 44.5369 49.0998 45.0809V47.9969H48.0198ZM52.9628 50.7809C52.7228 50.7809 52.5108 50.7569 52.3268 50.7089C52.1508 50.6609 52.0108 50.6049 51.9068 50.5409L52.1468 49.6409C52.2428 49.6969 52.3628 49.7449 52.5068 49.7849C52.6508 49.8249 52.8108 49.8449 52.9868 49.8449C53.3228 49.8449 53.6228 49.7369 53.8868 49.5209C54.1508 49.3049 54.4028 48.8809 54.6428 48.2489L54.9188 47.5289H54.3428L51.9068 42.0449L52.8668 41.6129L55.1948 46.8089L57.0068 41.6609L58.0028 42.0449L55.7108 48.3089C55.4788 48.9489 55.2268 49.4489 54.9548 49.8089C54.6828 50.1689 54.3828 50.4209 54.0548 50.5649C53.7268 50.7089 53.3628 50.7809 52.9628 50.7809Z" fill="#9B9B9B"/>
<path fill-rule="evenodd" clip-rule="evenodd" d="M27.1667 14.3337C26.5223 14.3337 26 14.8562 26 15.5006V31.8365C26 32.481 26.5223 33.0034 27.1667 33.0034H43.5C44.1444 33.0034 44.6667 32.481 44.6667 31.8365H27.1667V14.3337Z" fill="#9B9B9B"/>
<path fill-rule="evenodd" clip-rule="evenodd" d="M45.833 13.1669H29.4997V29.5028H45.833V13.1669ZM29.4997 12C28.8553 12 28.333 12.5224 28.333 13.1669V29.5028C28.333 30.1473 28.8553 30.6697 29.4997 30.6697H45.833C46.4774 30.6697 46.9997 30.1473 46.9997 29.5028V13.1669C46.9997 12.5224 46.4774 12 45.833 12H29.4997Z" fill="#9B9B9B"/>
<path fill-rule="evenodd" clip-rule="evenodd" d="M34.167 16.6674V26.0022L41.7503 21.3348L34.167 16.6674ZM35.3337 18.7555V23.914L39.5243 21.3348L35.3337 18.7555Z" fill="#9B9B9B"/>
</g>
<defs>
<filter id="filter0_d_267_951" x="16.0801" y="12" width="45.9229" height="46.781" filterUnits="userSpaceOnUse" color-interpolation-filters="sRGB">
<feFlood flood-opacity="0" result="BackgroundImageFix"/>
<feColorMatrix in="SourceAlpha" type="matrix" values="0 0 0 0 0 0 0 0 0 0 0 0 0 0 0 0 0 0 127 0" result="hardAlpha"/>
<feOffset dy="4"/>
<feGaussianBlur stdDeviation="2"/>
<feComposite in2="hardAlpha" operator="out"/>
<feColorMatrix type="matrix" values="0 0 0 0 0 0 0 0 0 0 0 0 0 0 0 0 0 0 0.25 0"/>
<feBlend mode="normal" in2="BackgroundImageFix" result="effect1_dropShadow_267_951"/>
<feBlend mode="normal" in="SourceGraphic" in2="effect1_dropShadow_267_951" result="shape"/>
</filter>
</defs>
</svg>
