<svg width="122" height="101" viewBox="0 0 122 101" fill="none" xmlns="http://www.w3.org/2000/svg">
<path d="M57.806 25.4483C56.9362 25.2712 56.1349 24.8519 55.4953 24.2393C54.8557 23.6267 54.4041 22.846 54.1932 21.988C53.4739 19.008 55.392 18.1715 53.4739 16.8613C51.5559 15.551 50.8465 13.401 52.3967 11.1366C53.9469 8.87218 63.7835 -0.0775357 73.2555 0.876578C82.7276 1.83069 86.5637 17.933 87.2829 22.7036C88.0022 27.4741 85.6047 31.4115 86.4422 33.8131C87.2797 36.2147 93.8779 45.2494 92.0781 49.4384C90.2783 53.6273 87.1516 60.293 88.8397 63.5115C90.5279 66.73 84.8985 73.4121 79.4892 75.5589C75.3706 77.1926 67.7411 77.8265 63.7835 70.5498C59.8259 63.273 59.8423 48.9613 59.3496 41.0899C58.857 33.2184 59.2281 30.2352 59.2281 28.0884C59.2281 25.9417 57.806 25.4483 57.806 25.4483Z" fill="#263238" stroke="#263238" stroke-width="0.3" stroke-linecap="round" stroke-linejoin="round"/>
<path d="M70.2832 6.94775C70.2832 6.94775 73.9715 19.0898 84.3303 25.3014" stroke="#595959" stroke-width="0.3" stroke-linecap="round" stroke-linejoin="round"/>
<path d="M70.7068 4.12451C70.7068 4.12451 76.8091 11.7476 80.5007 17.2534C84.1923 22.7591 85.91 26.1508 85.91 26.1508" stroke="#595959" stroke-width="0.3" stroke-linecap="round" stroke-linejoin="round"/>
<path d="M75.8174 3.55908C75.8174 3.55908 86.4619 16.9722 86.4619 25.1606" stroke="#595959" stroke-width="0.3" stroke-linecap="round" stroke-linejoin="round"/>
<path d="M66.5915 5.53613C66.5915 5.53613 54.2457 10.4897 53.8187 12.313C53.3918 14.1362 55.5233 15.2766 55.5233 15.2766" stroke="#595959" stroke-width="0.3" stroke-linecap="round" stroke-linejoin="round"/>
<path d="M67.1597 3.69971C67.1597 3.69971 56.7976 6.24183 53.96 10.0518" stroke="#595959" stroke-width="0.3" stroke-linecap="round" stroke-linejoin="round"/>
<path d="M78.228 24.4551C78.228 24.4551 82.4977 27.1377 83.1972 30.2451C83.8968 33.3525 80.3596 35.4731 81.9196 38.4335C83.4797 41.3939 88.7314 42.2467 88.7314 46.9062" stroke="#595959" stroke-width="0.3" stroke-linecap="round" stroke-linejoin="round"/>
<path d="M63.3204 37.4954C63.3204 37.4954 61.8818 38.3286 57.5662 39.2827C53.2506 40.2368 50.495 39.1651 48.8167 41.4295C47.1384 43.6939 42.4615 53.4768 40.1822 57.1756C37.9028 60.8744 32.6282 66.3573 31.7907 69.102C30.9532 71.8468 31.6724 74.5882 34.5495 74.1111C37.4266 73.6341 41.2627 68.625 43.9 65.6417C46.5374 62.6585 47.7362 61.3482 47.7362 61.3482C47.7362 61.3482 48.3372 66.2495 48.5769 68.625C48.8167 71.0005 43.4205 100.47 43.4205 100.47H79.5056C79.5056 100.47 73.7514 70.409 73.9912 69.4582C74.2309 68.5074 81.6634 55.5059 81.6634 55.5059C81.6634 55.5059 87.5391 66.8344 88.4981 68.8635C89.4571 70.8926 90.8957 72.7845 93.6545 73.0361C96.4134 73.2877 95.9306 69.5791 95.3328 67.1938C94.7351 64.8085 90.2946 55.983 88.866 52.6403C87.4373 49.2976 87.0694 47.739 84.5503 44.5271C82.0312 41.3151 75.1998 39.6258 73.7613 39.0409C72.3227 38.456 69.9252 37.4921 69.9252 37.4921C69.9252 37.4921 65.7179 35.8257 63.3204 37.4954Z" fill="#C74F4A"/>
<g opacity="0.2">
<path d="M73.3539 53.4048L74.1947 51.2744L74.1028 51.2417L73.262 53.3689L73.3539 53.4048Z" fill="black"/>
<path d="M74.8056 51.5164L74.7136 51.4805L73.8728 53.6076L73.9648 53.6436L74.8056 51.5164Z" fill="black"/>
<path d="M89.5655 60.7505L89.49 60.8126L90.1928 61.6687H90.3209L89.5655 60.7505Z" fill="black"/>
<path d="M89.999 60.4005L91.0434 61.6683H91.1682L90.0746 60.3384L89.999 60.4005Z" fill="black"/>
<path d="M87.5129 61.5181L87.4209 61.5507L87.4636 61.6684H87.5687L87.5129 61.5181Z" fill="black"/>
<path d="M88.0383 61.3286L88.1631 61.6684H88.2682L88.1336 61.2959L88.0383 61.3286Z" fill="black"/>
<path d="M84.7145 60.5541L84.6192 60.5312L84.501 60.9952L84.57 61.1259L84.7145 60.5541Z" fill="black"/>
<path d="M85.3517 60.7175L85.2564 60.6914L85.0068 61.6684H85.1086L85.3517 60.7175Z" fill="black"/>
<path d="M77.6992 60.3844L77.6039 60.355L77.2295 61.6685H77.3313L77.6992 60.3844Z" fill="black"/>
<path d="M78.0144 61.6685L78.3297 60.5608L78.2345 60.5347L77.9126 61.6685H78.0144Z" fill="black"/>
<path d="M74.3196 60.6326L74.6316 61.6684H74.7334L74.4148 60.6064L74.3196 60.6326Z" fill="black"/>
<path d="M75.0422 60.417L74.9502 60.4464L75.318 61.6685H75.4199L75.0422 60.417Z" fill="black"/>
<path d="M77.7287 55.5485L78.8717 53.5651L78.7863 53.5161L77.6433 55.4995L77.7287 55.5485Z" fill="black"/>
<path d="M79.3582 53.844L78.2153 55.8286L78.3008 55.8773L79.4437 53.8927L79.3582 53.844Z" fill="black"/>
<path d="M91.0007 57.8846L91.3587 58.0349L91.293 57.9042L91.0401 57.7964L91.0007 57.8846Z" fill="black"/>
<path d="M83.6603 48.8078L84.8033 46.8244L84.7179 46.7754L83.575 48.762L83.6603 48.8078Z" fill="black"/>
<path d="M83.0921 48.4841L84.2318 46.5007L84.1464 46.4517L83.0034 48.435L83.0921 48.4841Z" fill="black"/>
<path d="M78.8919 46.5444L78.8157 46.6064L80.2715 48.3767L80.3478 48.3146L78.8919 46.5444Z" fill="black"/>
<path d="M79.4014 46.1274L79.3252 46.1895L80.781 47.9597L80.8573 47.8976L79.4014 46.1274Z" fill="black"/>
<path d="M76.3458 47.1401L76.2532 47.1733L77.0338 49.3247L77.1265 49.2914L76.3458 47.1401Z" fill="black"/>
<path d="M76.9643 46.9135L76.8716 46.9468L77.6519 49.0983L77.7445 49.065L76.9643 46.9135Z" fill="black"/>
<path d="M83.23 57.365L83.8934 59.5575L83.9854 59.5281L83.3252 57.3389L83.23 57.365Z" fill="black"/>
<path d="M86.5866 58.2607L88.8627 57.9405L88.8495 57.8457L86.5735 58.1627L86.5866 58.2607Z" fill="black"/>
<path d="M88.9416 58.4927L86.6655 58.8096L86.6787 58.9076L88.9547 58.5874L88.9416 58.4927Z" fill="black"/>
<path d="M88.3403 56.1204L88.4389 56.14L88.9512 53.9115L88.856 53.8887L88.3403 56.1204Z" fill="black"/>
<path d="M89.0795 56.2869L89.559 54.2022L89.49 54.0552L88.981 56.264L89.0795 56.2869Z" fill="black"/>
<path d="M81.427 54.8491L81.5124 54.9014L82.7407 52.9703L82.6586 52.918L81.427 54.8491Z" fill="black"/>
<path d="M83.2957 53.3198L83.2136 53.2676L81.9819 55.1987L82.0673 55.251L83.2957 53.3198Z" fill="black"/>
<path d="M81.1216 51.0033L81.1577 51.0915L83.2663 50.1799L83.2268 50.0884L81.1216 51.0033Z" fill="black"/>
<path d="M81.3843 51.6014L81.4204 51.6929L83.529 50.778L83.4895 50.6865L81.3843 51.6014Z" fill="black"/>
<path d="M79.3927 49.7595L78.7671 51.9604L78.8619 51.9871L79.4875 49.7862L79.3927 49.7595Z" fill="black"/>
<path d="M78.7574 49.5823L78.1318 51.7832L78.2267 51.8099L78.8523 49.6089L78.7574 49.5823Z" fill="black"/>
<path d="M86.488 48.6832L87.1482 50.8725L87.2434 50.8463L86.58 48.6538L86.488 48.6832Z" fill="black"/>
<path d="M85.8574 48.8694L86.5209 51.0619L86.6128 51.0325L85.9527 48.8433L85.8574 48.8694Z" fill="black"/>
<path d="M80.8259 44.6284L80.8851 44.7068L82.721 43.3279L82.6619 43.2495L80.8259 44.6284Z" fill="black"/>
<path d="M81.2234 45.1514L81.2825 45.2298L83.1185 43.8509L83.0593 43.7725L81.2234 45.1514Z" fill="black"/>
<path d="M78.9636 41.1681L79.6008 43.3638L79.696 43.3377L79.0589 41.1387L78.9636 41.1681Z" fill="black"/>
<path d="M78.333 41.3479L78.9702 43.5437L79.0654 43.5175L78.4283 41.3218L78.333 41.3479Z" fill="black"/>
<path d="M76.1364 41.2162L76.0012 43.4995L76.0996 43.5053L76.2347 41.222L76.1364 41.2162Z" fill="black"/>
<path d="M76.7924 41.2523L76.6572 43.5356L76.7556 43.5414L76.8907 41.2581L76.7924 41.2523Z" fill="black"/>
<path d="M78.9734 58.6429L79.0522 58.7017L80.4481 56.885L80.3692 56.8262L78.9734 58.6429Z" fill="black"/>
<path d="M79.5713 59.1L79.7585 58.8615L80.1033 58.2505L79.4924 59.0412L79.5713 59.1Z" fill="black"/>
<path d="M77.8141 58.3325L77.8831 58.2639L76.2934 56.6138L76.2212 56.6824L77.8141 58.3325Z" fill="black"/>
<path d="M75.7483 57.1332L77.3379 58.7833L77.4102 58.718L75.8173 57.0679L75.7483 57.1332Z" fill="black"/>
<path d="M84.4735 54.2057L84.4351 54.2959L86.5515 55.1892L86.59 55.099L84.4735 54.2057Z" fill="black"/>
<path d="M84.6882 53.6893L86.8066 54.5846L86.8428 54.4931L84.7276 53.6011L84.6882 53.6893Z" fill="black"/>
<path d="M73.8598 41.119L73.9058 41.0308L72.7727 40.4263V40.5374L73.8598 41.119Z" fill="black"/>
<path d="M72.7727 39.7955L74.1686 40.5405L74.2145 40.4556L72.7727 39.6812V39.7955Z" fill="black"/>
<path d="M72.7727 43.867V43.9977L73.6431 43.2462L73.5807 43.1743L72.7727 43.867Z" fill="black"/>
<path d="M73.2161 42.7529L73.1504 42.6777L72.7727 43.0045V43.1319L73.2161 42.7529Z" fill="black"/>
<path d="M72.7727 46.6477V46.7522L74.8451 45.9452L74.8057 45.8569L72.7727 46.6477Z" fill="black"/>
<path d="M72.7727 46.0532L74.6054 45.3376L74.5692 45.2461L72.7727 45.9453V46.0532Z" fill="black"/>
<path d="M73.9945 50.0984L74.0175 50.0037L72.7727 49.7227V49.8239L73.9945 50.0984Z" fill="black"/>
<path d="M72.7727 49.0527V49.154L74.139 49.4612L74.162 49.3664L72.7727 49.0527Z" fill="black"/>
<path d="M73.9912 57.1399L74.0175 57.0451L72.7727 56.7314V56.8327L73.9912 57.1399Z" fill="black"/>
<path d="M72.7727 56.156L74.1521 56.5056L74.1784 56.4108L72.7727 56.0547V56.156Z" fill="black"/>
<path d="M74.3131 59.1164L74.2835 59.0249L72.7727 59.5216V59.6229L74.3131 59.1164Z" fill="black"/>
<path d="M74.1094 58.499L74.0766 58.4043L72.7727 58.8323V58.9369L74.1094 58.499Z" fill="black"/>
<path d="M74.1028 74.7681L73.262 76.8952L73.3539 76.9312L74.1947 74.8007L74.1028 74.7681Z" fill="black"/>
<path d="M74.7136 75.0063L73.8728 77.1335L73.9648 77.1694L74.8056 75.0423L74.7136 75.0063Z" fill="black"/>
<path d="M95.4871 68.1938L95.5527 68.2694L95.533 68.1577L95.4871 68.1938Z" fill="black"/>
<path d="M95.1226 67.7723L95.4116 67.5273C95.4116 67.4913 95.3952 67.4521 95.3853 67.4194L95.0569 67.7004L95.1226 67.7723Z" fill="black"/>
<path d="M74.3196 84.1589L74.6316 85.1948H74.7334L74.4148 84.1328L74.3196 84.1589Z" fill="black"/>
<path d="M74.9502 83.9723L75.318 85.1943H75.4199L75.0422 83.9429L74.9502 83.9723Z" fill="black"/>
<path d="M88.7378 66.5172L87.2828 64.7495L87.2073 64.8116L88.6622 66.5793L88.7378 66.5172Z" fill="black"/>
<path d="M86.6982 65.2237L88.1532 66.9947L88.232 66.9326L86.7738 65.1616L86.6982 65.2237Z" fill="black"/>
<path d="M93.3228 70.0107L92.7568 72.2275L92.8523 72.2517L93.4183 70.0348L93.3228 70.0107Z" fill="black"/>
<path d="M93.9528 70.1582L93.3865 72.375L93.482 72.3991L94.0483 70.1824L93.9528 70.1582Z" fill="black"/>
<path d="M90.5671 71.4516L90.0022 71.2163C90.058 71.2751 90.1106 71.3339 90.1664 71.3895L90.5277 71.5431L90.5671 71.4516Z" fill="black"/>
<path d="M76.0996 65.3834L76.2113 65.1841L76.2375 64.7397H76.139L76.0996 65.3834Z" fill="black"/>
<path d="M75.7976 80.6133L75.7483 80.6593L75.8205 80.7348L75.7976 80.6133Z" fill="black"/>
<path d="M92.4854 67.9259L92.4098 67.8638L90.9614 69.6413L91.0402 69.7034L92.4854 67.9259Z" fill="black"/>
<path d="M91.9728 67.5142L91.8973 67.4521L90.4521 69.2297L90.5277 69.2918L91.9728 67.5142Z" fill="black"/>
<path d="M92.3012 64.083L92.206 64.0732L91.9465 66.3442L92.0451 66.3572L92.3012 64.083Z" fill="black"/>
<path d="M91.5524 63.998L91.293 66.2722L91.3915 66.282L91.651 64.0111L91.5524 63.998Z" fill="black"/>
<path d="M73.8598 64.6453L73.9058 64.5571L72.7727 63.9526V64.0637L73.8598 64.6453Z" fill="black"/>
<path d="M74.2145 63.9821L72.7727 63.2109V63.322L74.1686 64.067L74.2145 63.9821Z" fill="black"/>
<path d="M72.7727 67.5241L73.6431 66.7726L73.5807 66.7007L72.7727 67.3934V67.5241Z" fill="black"/>
<path d="M73.2161 66.2788L73.1504 66.2036L72.7727 66.5304V66.6578L73.2161 66.2788Z" fill="black"/>
<path d="M72.7727 70.1738V70.2849L73.9978 69.8078C73.9978 69.7719 73.9978 69.7392 73.9978 69.7065L72.7727 70.1738Z" fill="black"/>
<path d="M72.7727 69.5792L74.1686 69.0335L74.231 68.9028L72.7727 69.4714V69.5792Z" fill="black"/>
<path d="M73.9945 73.6243L74.0175 73.5295L72.7727 73.2485V73.3498L73.9945 73.6243Z" fill="black"/>
<path d="M72.7727 72.6799L74.139 72.9871L74.162 72.8923L72.7727 72.5786V72.6799Z" fill="black"/>
<path d="M73.9912 80.6658L74.0175 80.571L72.7727 80.2573V80.3586L73.9912 80.6658Z" fill="black"/>
<path d="M72.7727 79.6823L74.1521 80.032L74.1784 79.9372L72.7727 79.5811V79.6823Z" fill="black"/>
<path d="M74.3131 82.6428L74.2835 82.5513L72.7727 83.0479V83.1492L74.3131 82.6428Z" fill="black"/>
<path d="M74.1094 82.0249L74.0766 81.9302L72.7727 82.3582V82.4628L74.1094 82.0249Z" fill="black"/>
<path d="M93.0798 62.8512L93.1652 62.9002L93.4181 62.4623L93.3689 62.3545L93.0798 62.8512Z" fill="black"/>
<path d="M93.6511 63.1785L93.7365 63.2278V63.2015L93.6872 63.0898L93.6511 63.1785Z" fill="black"/>
<path d="M91.0238 62.5213L90.321 61.6685H90.1929L90.945 62.5834L91.0238 62.5213Z" fill="black"/>
<path d="M91.454 62.1684L91.5295 62.1063L91.1683 61.6685H91.0435L91.454 62.1684Z" fill="black"/>
<path d="M87.4636 61.6685L88.2026 63.7041L88.2946 63.6682L87.5687 61.6685H87.4636Z" fill="black"/>
<path d="M88.82 63.4819L88.9119 63.446L88.2682 61.6685H88.1631L88.82 63.4819Z" fill="black"/>
<path d="M85.0069 61.6685L84.9543 61.8743L85.0233 62.0083L85.1087 61.6815L85.0069 61.6685Z" fill="black"/>
<path d="M77.0718 62.5834L77.3313 61.6685H77.2295L76.9766 62.5572L77.0718 62.5834Z" fill="black"/>
<path d="M77.6467 62.6095L77.8536 62.237L78.0179 61.6685H77.9128L77.6467 62.6095Z" fill="black"/>
<path d="M74.983 62.8252L75.075 62.7957L74.7334 61.6685H74.6316L74.983 62.8252Z" fill="black"/>
<path d="M75.7057 62.6095L75.4199 61.6685H75.3181L75.6104 62.6356L75.7057 62.6095Z" fill="black"/>
<path d="M74.1028 98.2939L73.262 100.421L73.3539 100.457L74.1947 98.3266L74.1028 98.2939Z" fill="black"/>
<path d="M74.7137 98.5327L73.9485 100.47H74.0536L74.8057 98.5687L74.7137 98.5327Z" fill="black"/>
<path d="M76.3449 94.1933L76.2522 94.2266L77.0329 96.3779L77.1255 96.3446L76.3449 94.1933Z" fill="black"/>
<path d="M76.9652 93.9662L76.8726 93.9995L77.6528 96.151L77.7455 96.1177L76.9652 93.9662Z" fill="black"/>
<path d="M79.0819 98.2352C79.0819 98.1666 79.0523 98.0947 79.0392 98.0195L78.76 98.9998L78.8552 99.0259L79.0819 98.2352Z" fill="black"/>
<path d="M78.8061 96.7942L78.7765 96.6309H78.7535L78.1262 98.8332L78.2215 98.8593L78.8061 96.7942Z" fill="black"/>
<path d="M76.1418 88.2757L76.0083 90.5591L76.1067 90.5648L76.2402 88.2814L76.1418 88.2757Z" fill="black"/>
<path d="M76.8008 88.3152L76.6672 90.5986L76.7656 90.6043L76.8991 88.3209L76.8008 88.3152Z" fill="black"/>
<path d="M73.8598 88.1712L73.9058 88.083L72.7727 87.4785V87.5896L73.8598 88.1712Z" fill="black"/>
<path d="M74.2145 87.5079L72.7727 86.7368V86.8479L74.1686 87.5929L74.2145 87.5079Z" fill="black"/>
<path d="M72.7727 91.05L73.6431 90.2984L73.5807 90.2266L72.7727 90.9193V91.05Z" fill="black"/>
<path d="M73.2161 89.8051L73.1504 89.73L72.7727 90.0567V90.1842L73.2161 89.8051Z" fill="black"/>
<path d="M74.8057 92.9092L72.7727 93.6999V93.8045L74.8451 92.9974L74.8057 92.9092Z" fill="black"/>
<path d="M74.6054 92.3898L74.5692 92.2983L72.7727 92.9976V93.1054L74.6054 92.3898Z" fill="black"/>
<path d="M73.9945 97.1502L74.0175 97.0554L72.7727 96.7744V96.8757L73.9945 97.1502Z" fill="black"/>
<path d="M74.139 96.5134L74.162 96.4187L72.7727 96.105V96.2063L74.139 96.5134Z" fill="black"/>
<path d="M74.983 86.351L75.075 86.3216L74.7334 85.1943H74.6316L74.983 86.351Z" fill="black"/>
<path d="M75.6104 86.1615L75.7057 86.1354L75.4199 85.1943H75.3181L75.6104 86.1615Z" fill="black"/>
<path d="M70.1157 38.1391H70.2307L70.4737 37.7176L70.3818 37.6816L70.1157 38.1391Z" fill="black"/>
<path d="M70.9859 38.1391L71.0877 37.9627L70.9958 37.9268L70.8743 38.1391H70.9859Z" fill="black"/>
<path d="M65.8428 37.2862L66.5456 38.1423H66.6737L65.9183 37.2241L65.8428 37.2862Z" fill="black"/>
<path d="M66.3518 36.8746L67.3962 38.1424H67.521L66.4273 36.8125L66.3518 36.8746Z" fill="black"/>
<path d="M63.8656 37.9922L63.7737 38.0249L63.8164 38.1425H63.9215L63.8656 37.9922Z" fill="black"/>
<path d="M64.4864 37.77L64.3911 37.8027L64.5159 38.1425H64.621L64.4864 37.77Z" fill="black"/>
<path d="M50.4555 51.2417L49.6147 53.3689L49.7067 53.4048L50.5475 51.2744L50.4555 51.2417Z" fill="black"/>
<path d="M51.0664 51.4805L50.2256 53.6076L50.3175 53.6436L51.1583 51.5164L51.0664 51.4805Z" fill="black"/>
<path d="M72.7726 40.4261L71.8792 39.9458L71.8333 40.034L72.7726 40.5372V40.4261Z" fill="black"/>
<path d="M72.1912 39.3711L72.1453 39.4593L72.7726 39.7959V39.6815L72.1912 39.3711Z" fill="black"/>
<path d="M71.8398 44.6677L71.9055 44.7429L72.7726 43.9979V43.8672L71.8398 44.6677Z" fill="black"/>
<path d="M71.4752 44.2461L72.7726 43.1318V43.0044L71.4128 44.1742L71.4752 44.2461Z" fill="black"/>
<path d="M72.6675 46.6906L72.7036 46.7826L72.7726 46.7531V46.6479L72.6675 46.6906Z" fill="black"/>
<path d="M72.4277 46.0825L72.4639 46.1708L72.7726 46.0531V45.9453L72.4277 46.0825Z" fill="black"/>
<path d="M71.7512 49.5952L72.7726 49.824V49.7227L71.7742 49.5005L71.7512 49.5952Z" fill="black"/>
<path d="M71.9187 48.8633L71.8958 48.958L72.7727 49.1541V49.0528L71.9187 48.8633Z" fill="black"/>
<path d="M71.7644 56.5777L72.7727 56.8325V56.7312L71.7874 56.4829L71.7644 56.5777Z" fill="black"/>
<path d="M71.9516 55.8491L71.9253 55.9439L72.7726 56.1563V56.055L71.9516 55.8491Z" fill="black"/>
<path d="M72.7727 59.6228V59.5215L72.0994 59.7404L72.1322 59.8352L72.7727 59.6228Z" fill="black"/>
<path d="M72.7727 58.9371V58.8325L71.8958 59.1201L71.9253 59.2148L72.7727 58.9371Z" fill="black"/>
<path d="M59.2543 39.2988L58.6303 39.0342L58.4727 39.0734L59.2182 39.4001L59.2543 39.2988Z" fill="black"/>
<path d="M58.9981 39.8972L57.5464 39.2861L57.3789 39.3188L58.962 39.9723L58.9981 39.8972Z" fill="black"/>
<path d="M70.1157 61.6687H70.2307L70.6609 60.9172L70.5755 60.8682L70.1157 61.6687Z" fill="black"/>
<path d="M70.9859 61.6685L71.2323 61.2404L71.1469 61.1914L70.8743 61.6685H70.9859Z" fill="black"/>
<path d="M65.8428 60.8126L66.5456 61.6687H66.6737L65.9183 60.7505L65.8428 60.8126Z" fill="black"/>
<path d="M66.3518 60.4005L67.3962 61.6683H67.521L66.4273 60.3384L66.3518 60.4005Z" fill="black"/>
<path d="M63.8656 61.5181L63.7737 61.5507L63.8164 61.6684H63.9215L63.8656 61.5181Z" fill="black"/>
<path d="M64.3911 61.3286L64.5159 61.6684H64.621L64.4864 61.2959L64.3911 61.3286Z" fill="black"/>
<path d="M61.0674 60.5574L60.9721 60.5312L60.6831 61.6683H60.7849L61.0674 60.5574Z" fill="black"/>
<path d="M61.7045 60.7175L61.6092 60.6914L61.3596 61.6684H61.4614L61.7045 60.7175Z" fill="black"/>
<path d="M54.0519 60.3844L53.9567 60.355L53.5823 61.6685H53.6841L54.0519 60.3844Z" fill="black"/>
<path d="M54.6825 60.5608L54.5872 60.5347L54.2654 61.6685H54.3705L54.6825 60.5608Z" fill="black"/>
<path d="M50.6724 60.6326L50.9844 61.6684H51.0862L50.7676 60.6064L50.6724 60.6326Z" fill="black"/>
<path d="M51.303 60.4464L51.6708 61.6685H51.7726L51.3949 60.417L51.303 60.4464Z" fill="black"/>
<path d="M54.0815 55.5485L55.2244 53.5651L55.139 53.5161L53.9961 55.4995L54.0815 55.5485Z" fill="black"/>
<path d="M54.653 55.8717L55.796 53.8884L55.7106 53.8394L54.5676 55.826L54.653 55.8717Z" fill="black"/>
<path d="M63.6373 41.2285L63.561 41.2905L65.0169 43.0608L65.0931 42.9987L63.6373 41.2285Z" fill="black"/>
<path d="M62.5283 41.6067L62.4524 41.6685L63.9008 43.4296L63.9767 43.3679L62.5283 41.6067Z" fill="black"/>
<path d="M61.0734 42.4023L60.9807 42.4355L61.7614 44.5869L61.854 44.5536L61.0734 42.4023Z" fill="black"/>
<path d="M61.6918 42.1762L61.5991 42.2095L62.3794 44.361L62.4721 44.3277L61.6918 42.1762Z" fill="black"/>
<path d="M67.6096 57.2835L69.728 58.1788L69.7641 58.0873L67.649 57.1953L67.6096 57.2835Z" fill="black"/>
<path d="M67.394 57.8019L67.3555 57.8921L69.4719 58.7854L69.5104 58.6952L67.394 57.8019Z" fill="black"/>
<path d="M69.766 52.2571L69.1404 54.458L69.2352 54.4847L69.8608 52.2837L69.766 52.2571Z" fill="black"/>
<path d="M70.3944 52.428L69.7668 54.6284L69.8616 54.6552L70.4892 52.4548L70.3944 52.428Z" fill="black"/>
<path d="M66.3452 50.5296L67.0054 52.7221L67.1006 52.6927L66.4372 50.5034L66.3452 50.5296Z" fill="black"/>
<path d="M67.7278 52.5032L67.0677 50.314L66.9724 50.3401L67.6358 52.5326L67.7278 52.5032Z" fill="black"/>
<path d="M61.068 46.7713L59.925 48.7559L60.0105 48.8046L61.1534 46.82L61.068 46.7713Z" fill="black"/>
<path d="M60.4997 46.4468L59.3572 48.4316L59.4427 48.4804L60.5852 46.4956L60.4997 46.4468Z" fill="black"/>
<path d="M55.2433 46.5458L55.167 46.6079L56.6228 48.3781L56.6991 48.3161L55.2433 46.5458Z" fill="black"/>
<path d="M55.7528 46.1254L55.6765 46.1875L57.1324 47.9577L57.2086 47.8957L55.7528 46.1254Z" fill="black"/>
<path d="M52.6979 47.1425L52.6052 47.1758L53.3859 49.3271L53.4786 49.2939L52.6979 47.1425Z" fill="black"/>
<path d="M53.3183 46.9155L53.2256 46.9487L54.0059 49.1002L54.0986 49.067L53.3183 46.9155Z" fill="black"/>
<path d="M69.6702 46.4726L69.1023 48.689L69.1978 48.7132L69.7656 46.4968L69.6702 46.4726Z" fill="black"/>
<path d="M70.3054 46.6327L69.7375 48.8491L69.833 48.8733L70.4009 46.6569L70.3054 46.6327Z" fill="black"/>
<path d="M64.5458 47.6363L64.5073 47.7266L66.6239 48.6195L66.6624 48.5293L64.5458 47.6363Z" fill="black"/>
<path d="M64.8053 47.0348L64.7668 47.125L66.8833 48.0183L66.9218 47.9281L64.8053 47.0348Z" fill="black"/>
<path d="M59.7107 59.7176L59.0473 57.5283L58.9553 57.5545L59.6155 59.747L59.7107 59.7176Z" fill="black"/>
<path d="M60.3382 59.5281L59.678 57.3389L59.5828 57.365L60.2462 59.5575L60.3382 59.5281Z" fill="black"/>
<path d="M62.9394 58.2607L65.2155 57.9405L65.2023 57.8457L62.9263 58.1627L62.9394 58.2607Z" fill="black"/>
<path d="M65.3073 58.5874L65.2941 58.4927L63.0181 58.8096L63.0312 58.9076L65.3073 58.5874Z" fill="black"/>
<path d="M65.2088 53.8887L64.6931 56.1204L64.7917 56.14L65.304 53.9115L65.2088 53.8887Z" fill="black"/>
<path d="M65.4323 56.287L65.9446 54.0585L65.8494 54.0356L65.3337 56.2641L65.4323 56.287Z" fill="black"/>
<path d="M59.0933 52.9703L59.0112 52.918L57.7795 54.8491L57.8616 54.9014L59.0933 52.9703Z" fill="black"/>
<path d="M59.6485 53.3198L59.5663 53.2676L58.3347 55.1987L58.4168 55.251L59.6485 53.3198Z" fill="black"/>
<path d="M59.5781 50.0946L57.4707 51.0088L57.5101 51.0986L59.6175 50.1844L59.5781 50.0946Z" fill="black"/>
<path d="M59.8443 50.6821L57.7371 51.5967L57.7765 51.6865L59.8837 50.7719L59.8443 50.6821Z" fill="black"/>
<path d="M55.7416 49.7605L55.116 51.9614L55.2108 51.9881L55.8364 49.7871L55.7416 49.7605Z" fill="black"/>
<path d="M55.1095 49.5832L54.4839 51.7842L54.5787 51.8109L55.2043 49.6099L55.1095 49.5832Z" fill="black"/>
<path d="M62.8408 48.6832L63.501 50.8725L63.5962 50.8463L62.9328 48.6538L62.8408 48.6832Z" fill="black"/>
<path d="M62.2102 48.8694L62.8736 51.0619L62.9656 51.0325L62.3055 48.8433L62.2102 48.8694Z" fill="black"/>
<path d="M59.0158 43.2417L57.1804 44.6191L57.2398 44.6974L59.0751 43.3199L59.0158 43.2417Z" fill="black"/>
<path d="M59.4113 43.7731L57.5754 45.1499L57.6348 45.2282L59.4706 43.8514L59.4113 43.7731Z" fill="black"/>
<path d="M55.5411 40.9125L55.4465 40.9399L56.0903 43.1357L56.1848 43.1083L55.5411 40.9125Z" fill="black"/>
<path d="M54.7804 41.319L54.6858 41.3462L55.3241 43.5435L55.4188 43.5163L54.7804 41.319Z" fill="black"/>
<path d="M52.4924 41.2167L52.3577 43.5L52.456 43.5057L52.5908 41.2224L52.4924 41.2167Z" fill="black"/>
<path d="M53.1484 41.2557L53.0137 43.5391L53.112 43.5448L53.2468 41.2615L53.1484 41.2557Z" fill="black"/>
<path d="M55.3262 58.6429L55.405 58.7017L56.8008 56.885L56.722 56.8262L55.3262 58.6429Z" fill="black"/>
<path d="M57.3231 57.2834L57.2442 57.2246L55.8484 59.0413L55.9239 59.1002L57.3231 57.2834Z" fill="black"/>
<path d="M54.1669 58.3325L54.2359 58.2639L52.6462 56.6138L52.574 56.6824L54.1669 58.3325Z" fill="black"/>
<path d="M52.1011 57.1332L53.694 58.7833L53.763 58.718L52.17 57.0679L52.1011 57.1332Z" fill="black"/>
<path d="M67.314 46.1149L67.3928 46.177L68.8379 44.3995L68.7624 44.3374L67.314 46.1149Z" fill="black"/>
<path d="M66.8805 45.7654L68.3256 43.9879L68.2501 43.9258L66.8049 45.7033L66.8805 45.7654Z" fill="black"/>
<path d="M68.2993 42.8183L68.3978 42.8314L68.654 40.5572L68.5588 40.5474L68.2993 42.8183Z" fill="black"/>
<path d="M67.9052 40.4722L67.6458 42.7464L67.7443 42.7562L68.0037 40.4852L67.9052 40.4722Z" fill="black"/>
<path d="M60.8227 54.2062L60.7842 54.2964L62.9006 55.1897L62.9391 55.0995L60.8227 54.2062Z" fill="black"/>
<path d="M61.041 53.6893L63.1594 54.5846L63.1955 54.4931L61.0804 53.6011L61.041 53.6893Z" fill="black"/>
<path d="M49.49 40.7301L50.2125 41.1189L50.2585 41.0307L49.5787 40.668L49.49 40.7301Z" fill="black"/>
<path d="M50.5212 40.5508L50.5705 40.4658L50.242 40.2959L50.1304 40.3482L50.5212 40.5508Z" fill="black"/>
<path d="M49.9991 43.2462L49.9334 43.1743L49.1255 43.867V43.9977L49.9991 43.2462Z" fill="black"/>
<path d="M49.5689 42.7529L49.5032 42.6777L49.1255 43.0045V43.1319L49.5689 42.7529Z" fill="black"/>
<path d="M51.1585 45.8569L49.1255 46.6477V46.7522L51.1979 45.9452L51.1585 45.8569Z" fill="black"/>
<path d="M49.1255 45.9453V46.0532L50.9582 45.3376L50.922 45.2461L49.1255 45.9453Z" fill="black"/>
<path d="M50.3473 50.0984L50.3703 50.0037L49.1255 49.7227V49.8239L50.3473 50.0984Z" fill="black"/>
<path d="M49.1255 49.154L50.4918 49.4612L50.5148 49.3664L49.1255 49.0527V49.154Z" fill="black"/>
<path d="M50.3703 57.0451L49.1255 56.7314V56.8327L50.344 57.1399L50.3703 57.0451Z" fill="black"/>
<path d="M50.5312 56.4108L49.1255 56.0547V56.156L50.5082 56.5056L50.5312 56.4108Z" fill="black"/>
<path d="M49.1255 59.5216V59.6229L50.6658 59.1164L50.6363 59.0249L49.1255 59.5216Z" fill="black"/>
<path d="M50.4622 58.499L50.4294 58.4043L49.1255 58.8323V58.9369L50.4622 58.499Z" fill="black"/>
<path d="M69.4326 39.3254L69.518 39.3744L70.2307 38.1426H70.1158L69.4326 39.3254Z" fill="black"/>
<path d="M70.0039 39.6522L70.0893 39.7012L70.9859 38.1426H70.8743L70.0039 39.6522Z" fill="black"/>
<path d="M67.2978 39.0575L67.3766 38.9954L66.6737 38.1426H66.5457L67.2978 39.0575Z" fill="black"/>
<path d="M67.8068 38.6425L67.8823 38.5804L67.521 38.1426H67.3962L67.8068 38.6425Z" fill="black"/>
<path d="M64.6471 40.1423L63.9213 38.1426H63.8162L64.5551 40.175L64.6471 40.1423Z" fill="black"/>
<path d="M65.2647 39.9201L64.621 38.1426H64.5159L65.1727 39.956L65.2647 39.9201Z" fill="black"/>
<path d="M60.4072 39.2207L60.5025 39.2469L60.6962 38.479L60.5879 38.5117L60.4072 39.2207Z" fill="black"/>
<path d="M61.041 39.3842L61.1395 39.407L61.4351 38.2471L61.3235 38.2863L61.041 39.3842Z" fill="black"/>
<path d="M50.4555 74.7681L49.6147 76.8952L49.7067 76.9312L50.5475 74.8007L50.4555 74.7681Z" fill="black"/>
<path d="M51.0664 75.0063L50.2256 77.1335L50.3175 77.1694L51.1583 75.0423L51.0664 75.0063Z" fill="black"/>
<path d="M71.8333 63.5604L72.7726 64.0636V63.9525L71.8792 63.4722L71.8333 63.5604Z" fill="black"/>
<path d="M72.1912 62.897L72.1453 62.9852L72.7726 63.3217V63.2107L72.1912 62.897Z" fill="black"/>
<path d="M71.8398 68.1936L71.9055 68.2688L72.7726 67.5238V67.3931L71.8398 68.1936Z" fill="black"/>
<path d="M72.7726 66.6582V66.5308L71.4128 67.7005L71.4752 67.7724L72.7726 66.6582Z" fill="black"/>
<path d="M72.6675 70.2165L72.7036 70.3085L72.7726 70.2789V70.1738L72.6675 70.2165Z" fill="black"/>
<path d="M72.4277 69.6084L72.4639 69.6967L72.7726 69.579V69.4712L72.4277 69.6084Z" fill="black"/>
<path d="M72.7726 73.2486L71.7742 73.0264L71.7512 73.1211L72.7726 73.3498V73.2486Z" fill="black"/>
<path d="M71.9187 72.3892L71.8958 72.4839L72.7727 72.68V72.5787L71.9187 72.3892Z" fill="black"/>
<path d="M72.7727 80.2571L71.7874 80.0088L71.7644 80.1035L72.7727 80.3584V80.2571Z" fill="black"/>
<path d="M71.9516 79.375L71.9253 79.4698L72.7726 79.6821V79.5809L71.9516 79.375Z" fill="black"/>
<path d="M72.7727 83.1491V83.0479L72.0994 83.2668L72.1322 83.3615L72.7727 83.1491Z" fill="black"/>
<path d="M72.7727 82.463V82.3584L71.8958 82.6459L71.9253 82.7407L72.7727 82.463Z" fill="black"/>
<path d="M59.2544 62.8251L57.1393 61.9331L57.0999 62.0213L59.2183 62.9166L59.2544 62.8251Z" fill="black"/>
<path d="M56.8842 62.5401L56.8457 62.6304L58.9621 63.5237L59.0006 63.4335L56.8842 62.5401Z" fill="black"/>
<path d="M70.6609 84.4431L70.5755 84.394L70.1157 85.1946H70.2307L70.6609 84.4431Z" fill="black"/>
<path d="M71.2323 84.7663L71.1469 84.7173L70.8743 85.1943H70.9859L71.2323 84.7663Z" fill="black"/>
<path d="M65.8428 84.3385L66.5456 85.1945H66.6737L65.9183 84.2764L65.8428 84.3385Z" fill="black"/>
<path d="M66.3518 83.9268L67.3962 85.1946H67.521L66.4273 83.8647L66.3518 83.9268Z" fill="black"/>
<path d="M63.8656 85.0444L63.7737 85.0771L63.8164 85.1947H63.9215L63.8656 85.0444Z" fill="black"/>
<path d="M64.3911 84.8549L64.5159 85.1948H64.621L64.4864 84.8223L64.3911 84.8549Z" fill="black"/>
<path d="M61.0674 84.0838L60.9721 84.0576L60.6831 85.1947H60.7849L61.0674 84.0838Z" fill="black"/>
<path d="M61.7045 84.2439L61.6092 84.2178L61.3596 85.1948H61.4614L61.7045 84.2439Z" fill="black"/>
<path d="M54.0519 83.9103L53.9567 83.8809L53.5823 85.1944H53.6841L54.0519 83.9103Z" fill="black"/>
<path d="M54.6825 84.0867L54.5872 84.0605L54.2654 85.1944H54.3705L54.6825 84.0867Z" fill="black"/>
<path d="M50.6724 84.1589L50.9844 85.1948H51.0862L50.7676 84.1328L50.6724 84.1589Z" fill="black"/>
<path d="M51.303 83.9723L51.6708 85.1943H51.7726L51.3949 83.9429L51.303 83.9723Z" fill="black"/>
<path d="M55.139 77.042L53.9961 79.0254L54.0815 79.0744L55.2244 77.091L55.139 77.042Z" fill="black"/>
<path d="M55.796 77.4147L55.7106 77.3657L54.5676 79.3524L54.653 79.3981L55.796 77.4147Z" fill="black"/>
<path d="M65.0906 66.5172L63.6356 64.7495L63.5601 64.8116L65.015 66.5793L65.0906 66.5172Z" fill="black"/>
<path d="M64.5848 66.9326L63.1266 65.1616L63.051 65.2237L64.506 66.9947L64.5848 66.9326Z" fill="black"/>
<path d="M61.0729 65.9291L60.9802 65.9624L61.7609 68.1138L61.8536 68.0805L61.0729 65.9291Z" fill="black"/>
<path d="M61.694 65.7045L61.6013 65.7378L62.3816 67.8893L62.4743 67.856L61.694 65.7045Z" fill="black"/>
<path d="M69.7641 81.6132L67.649 80.7212L67.6096 80.8094L69.728 81.7047L69.7641 81.6132Z" fill="black"/>
<path d="M67.3944 81.3282L67.356 81.4185L69.4724 82.3118L69.5109 82.2216L67.3944 81.3282Z" fill="black"/>
<path d="M69.767 75.7873L69.1414 77.9883L69.2362 78.015L69.8618 75.814L69.767 75.7873Z" fill="black"/>
<path d="M70.3963 75.9549L69.7688 78.1553L69.8636 78.182L70.4911 75.9816L70.3963 75.9549Z" fill="black"/>
<path d="M67.1006 76.2185L66.4372 74.0293L66.3452 74.0554L67.0054 76.2479L67.1006 76.2185Z" fill="black"/>
<path d="M67.7278 76.0291L67.0677 73.8398L66.9724 73.866L67.6358 76.0585L67.7278 76.0291Z" fill="black"/>
<path d="M61.0704 70.3013L59.9275 72.2879L60.0129 72.3337L61.1558 70.3503L61.0704 70.3013Z" fill="black"/>
<path d="M60.5844 70.0265L60.499 69.9775L59.3594 71.9609L59.4415 72.0099L60.5844 70.0265Z" fill="black"/>
<path d="M56.7022 71.8335L55.244 70.0625L55.1685 70.1246L56.6267 71.8956L56.7022 71.8335Z" fill="black"/>
<path d="M57.2082 71.4186L55.7533 69.6509L55.6777 69.713L57.1327 71.4807L57.2082 71.4186Z" fill="black"/>
<path d="M52.6974 70.6659L52.6047 70.6992L53.3854 72.8506L53.4781 72.8173L52.6974 70.6659Z" fill="black"/>
<path d="M53.3205 70.4404L53.2278 70.4736L54.0081 72.6251L54.1007 72.5919L53.3205 70.4404Z" fill="black"/>
<path d="M69.6699 69.9999L69.1021 72.2163L69.1975 72.2405L69.7654 70.0241L69.6699 69.9999Z" fill="black"/>
<path d="M70.3083 70.1571L69.7405 72.3735L69.836 72.3977L70.4038 70.1814L70.3083 70.1571Z" fill="black"/>
<path d="M66.6604 72.0527L64.5453 71.1606L64.5059 71.2521L66.6243 72.1442L66.6604 72.0527Z" fill="black"/>
<path d="M66.9199 71.4516L64.8015 70.5596L64.7654 70.6478L66.8805 71.5431L66.9199 71.4516Z" fill="black"/>
<path d="M59.7107 83.2439L59.0473 81.0547L58.9553 81.0808L59.6155 83.2733L59.7107 83.2439Z" fill="black"/>
<path d="M60.3382 83.0545L59.678 80.8652L59.5828 80.8914L60.2462 83.0839L60.3382 83.0545Z" fill="black"/>
<path d="M62.9394 81.7866L65.2155 81.4663L65.2023 81.3716L62.9263 81.6885L62.9394 81.7866Z" fill="black"/>
<path d="M65.3073 82.1133L65.2941 82.0186L63.0181 82.3355L63.0312 82.4335L65.3073 82.1133Z" fill="black"/>
<path d="M65.2088 77.4146L64.6931 79.6463L64.7917 79.6659L65.304 77.4374L65.2088 77.4146Z" fill="black"/>
<path d="M65.8494 77.5615L65.3337 79.79L65.4323 79.8128L65.9446 77.5844L65.8494 77.5615Z" fill="black"/>
<path d="M59.0933 76.4966L59.0112 76.4443L57.7795 78.3754L57.8616 78.4277L59.0933 76.4966Z" fill="black"/>
<path d="M59.6485 76.8462L59.5663 76.7939L58.3347 78.725L58.4168 78.7773L59.6485 76.8462Z" fill="black"/>
<path d="M59.5779 73.6199L57.4705 74.5342L57.5098 74.624L59.6172 73.7098L59.5779 73.6199Z" fill="black"/>
<path d="M59.8439 74.2115L57.7368 75.1265L57.7762 75.2163L59.8833 74.3013L59.8439 74.2115Z" fill="black"/>
<path d="M55.7423 73.2854L55.1147 75.4858L55.2095 75.5126L55.8371 73.3122L55.7423 73.2854Z" fill="black"/>
<path d="M55.1011 73.0912L54.4731 75.2915L54.5679 75.3183L55.1958 73.118L55.1011 73.0912Z" fill="black"/>
<path d="M63.5962 74.3727L62.9328 72.1802L62.8408 72.2096L63.501 74.3988L63.5962 74.3727Z" fill="black"/>
<path d="M62.9656 74.5589L62.3055 72.3696L62.2102 72.3958L62.8736 74.5883L62.9656 74.5589Z" fill="black"/>
<path d="M59.0147 66.7754L57.1787 68.1543L57.2378 68.2327L59.0738 66.8538L59.0147 66.7754Z" fill="black"/>
<path d="M59.4115 67.3004L57.5757 68.6772L57.635 68.7555L59.4708 67.3787L59.4115 67.3004Z" fill="black"/>
<path d="M56.0488 66.8603L55.4116 64.6646L55.3164 64.694L55.9536 66.8897L56.0488 66.8603Z" fill="black"/>
<path d="M54.6858 64.8738L55.323 67.0728L55.4182 67.0434L54.781 64.8477L54.6858 64.8738Z" fill="black"/>
<path d="M52.4944 64.7483L52.3608 67.0317L52.4592 67.0374L52.5927 64.754L52.4944 64.7483Z" fill="black"/>
<path d="M53.1499 64.7879L53.0164 67.0713L53.1147 67.077L53.2483 64.7936L53.1499 64.7879Z" fill="black"/>
<path d="M56.8008 80.4109L56.722 80.3521L55.3262 82.1688L55.405 82.2276L56.8008 80.4109Z" fill="black"/>
<path d="M57.3231 80.8098L57.2442 80.751L55.8484 82.5677L55.9239 82.6265L57.3231 80.8098Z" fill="black"/>
<path d="M52.574 80.2083L54.1669 81.8584L54.2359 81.7897L52.6462 80.1396L52.574 80.2083Z" fill="black"/>
<path d="M53.763 82.2439L52.17 80.5938L52.1011 80.6591L53.694 82.3092L53.763 82.2439Z" fill="black"/>
<path d="M68.8379 67.9259L68.7624 67.8638L67.314 69.6413L67.3928 69.7034L68.8379 67.9259Z" fill="black"/>
<path d="M68.2501 67.4521L66.8049 69.2297L66.8805 69.2918L68.3256 67.5142L68.2501 67.4521Z" fill="black"/>
<path d="M68.654 64.083L68.5588 64.0732L68.2993 66.3442L68.3978 66.3572L68.654 64.083Z" fill="black"/>
<path d="M67.9052 63.998L67.6458 66.2722L67.7443 66.282L68.0037 64.0111L67.9052 63.998Z" fill="black"/>
<path d="M60.8231 77.7359L60.7847 77.8262L62.9011 78.7195L62.9396 78.6293L60.8231 77.7359Z" fill="black"/>
<path d="M61.041 77.2152L63.1594 78.1105L63.1955 78.019L61.0804 77.127L61.041 77.2152Z" fill="black"/>
<path d="M50.2126 64.6453L50.2586 64.5571L49.1255 63.9526V64.0637L50.2126 64.6453Z" fill="black"/>
<path d="M50.5213 64.067L50.5706 63.9821L49.1255 63.2109V63.322L50.5213 64.067Z" fill="black"/>
<path d="M49.9991 66.7726L49.9334 66.7007L49.1255 67.3934V67.5241L49.9991 66.7726Z" fill="black"/>
<path d="M49.5689 66.2788L49.5032 66.2036L49.1255 66.5304V66.6578L49.5689 66.2788Z" fill="black"/>
<path d="M51.1585 69.3833L49.1255 70.174V70.2786L51.1979 69.4715L51.1585 69.3833Z" fill="black"/>
<path d="M50.9582 68.8635L50.922 68.772L49.1255 69.4712V69.579L50.9582 68.8635Z" fill="black"/>
<path d="M50.3473 73.6243L50.3703 73.5295L49.1255 73.2485V73.3498L50.3473 73.6243Z" fill="black"/>
<path d="M49.1255 72.6799L50.4918 72.9871L50.5148 72.8923L49.1255 72.5786V72.6799Z" fill="black"/>
<path d="M50.344 80.6658L50.3703 80.571L49.1255 80.2573V80.3586L50.344 80.6658Z" fill="black"/>
<path d="M49.1255 79.6823L50.5082 80.032L50.5312 79.9372L49.1255 79.5811V79.6823Z" fill="black"/>
<path d="M50.6658 82.6428L50.6363 82.5513L49.1255 83.0479V83.1492L50.6658 82.6428Z" fill="black"/>
<path d="M50.4622 82.0249L50.4294 81.9302L49.1255 82.3582V82.4628L50.4622 82.0249Z" fill="black"/>
<path d="M69.4326 62.8513L69.518 62.9003L70.2307 61.6685H70.1158L69.4326 62.8513Z" fill="black"/>
<path d="M70.0039 63.178L70.0893 63.2238L70.9859 61.6685H70.8743L70.0039 63.178Z" fill="black"/>
<path d="M67.2978 62.5834L67.3766 62.5213L66.6737 61.6685H66.5457L67.2978 62.5834Z" fill="black"/>
<path d="M67.8068 62.1684L67.8823 62.1063L67.521 61.6685H67.3962L67.8068 62.1684Z" fill="black"/>
<path d="M64.6471 63.6682L63.9213 61.6685H63.8162L64.5551 63.7041L64.6471 63.6682Z" fill="black"/>
<path d="M65.1727 63.4819L65.2647 63.446L64.621 61.6685H64.5159L65.1727 63.4819Z" fill="black"/>
<path d="M60.6831 61.6685L60.4072 62.7467L60.5025 62.7729L60.7849 61.6685H60.6831Z" fill="black"/>
<path d="M61.1363 62.933L61.4614 61.6685H61.3596L61.041 62.9101L61.1363 62.933Z" fill="black"/>
<path d="M53.4246 62.5834L53.6841 61.6685H53.5822L53.3293 62.5572L53.4246 62.5834Z" fill="black"/>
<path d="M54.2653 61.6685L53.9631 62.7337L54.0584 62.7631L54.3704 61.6685H54.2653Z" fill="black"/>
<path d="M51.3358 62.8252L51.4278 62.7957L51.0862 61.6685H50.9844L51.3358 62.8252Z" fill="black"/>
<path d="M51.963 62.6356L52.0582 62.6095L51.7725 61.6685H51.6707L51.963 62.6356Z" fill="black"/>
<path d="M50.4555 98.2939L49.6147 100.421L49.7067 100.457L50.5475 98.3266L50.4555 98.2939Z" fill="black"/>
<path d="M51.0665 98.5327L50.3013 100.47H50.4064L51.1585 98.5687L51.0665 98.5327Z" fill="black"/>
<path d="M71.8333 87.0863L72.7726 87.5895V87.4784L71.8792 86.998L71.8333 87.0863Z" fill="black"/>
<path d="M72.1912 86.4233L72.1453 86.5116L72.7726 86.8481V86.737L72.1912 86.4233Z" fill="black"/>
<path d="M71.8398 91.72L71.9055 91.7951L72.7726 91.0501V90.9194L71.8398 91.72Z" fill="black"/>
<path d="M72.7726 90.1841V90.0566L71.4128 91.2264L71.4752 91.2983L72.7726 90.1841Z" fill="black"/>
<path d="M72.6675 93.7424L72.7036 93.8344L72.7726 93.8048V93.6997L72.6675 93.7424Z" fill="black"/>
<path d="M72.7726 92.9976L72.4277 93.1348L72.4639 93.223L72.7726 93.1054V92.9976Z" fill="black"/>
<path d="M72.7726 96.7744L71.7742 96.5522L71.7512 96.647L72.7726 96.8757V96.7744Z" fill="black"/>
<path d="M72.7727 96.105L71.9187 95.9155L71.8958 96.0103L72.7727 96.2063V96.105Z" fill="black"/>
<path d="M59.2544 86.3515L57.1393 85.4595L57.0999 85.5477L59.2183 86.443L59.2544 86.3515Z" fill="black"/>
<path d="M56.8813 86.0665L56.8428 86.1567L58.9592 87.0501L58.9977 86.9598L56.8813 86.0665Z" fill="black"/>
<path d="M65.0906 90.0436L63.6356 88.2759L63.5601 88.338L65.015 90.1057L65.0906 90.0436Z" fill="black"/>
<path d="M64.5848 90.4585L63.1266 88.6875L63.051 88.7496L64.506 90.5206L64.5848 90.4585Z" fill="black"/>
<path d="M61.0724 89.456L60.9797 89.4893L61.7604 91.6406L61.8531 91.6073L61.0724 89.456Z" fill="black"/>
<path d="M61.696 89.2294L61.6033 89.2627L62.3836 91.4142L62.4762 91.3809L61.696 89.2294Z" fill="black"/>
<path d="M69.7642 99.3037L69.4292 100.47H69.5343L69.8594 99.3299L69.7642 99.3037Z" fill="black"/>
<path d="M70.3948 99.48L70.1123 100.47H70.2141L70.49 99.5061L70.3948 99.48Z" fill="black"/>
<path d="M67.1006 99.7449L66.4372 97.5557L66.3452 97.5818L67.0054 99.7743L67.1006 99.7449Z" fill="black"/>
<path d="M67.7278 99.5554L67.0677 97.3662L66.9724 97.3923L67.6358 99.5849L67.7278 99.5554Z" fill="black"/>
<path d="M61.1558 93.8762L61.0704 93.8271L59.9275 95.8138L60.0129 95.8595L61.1558 93.8762Z" fill="black"/>
<path d="M60.499 93.5039L59.3594 95.4873L59.4415 95.5363L60.5844 93.5529L60.499 93.5039Z" fill="black"/>
<path d="M56.7022 95.3599L55.244 93.5889L55.1685 93.651L56.6267 95.4219L56.7022 95.3599Z" fill="black"/>
<path d="M57.2082 94.945L55.7533 93.1772L55.6777 93.2393L57.1327 95.0071L57.2082 94.945Z" fill="black"/>
<path d="M52.6969 94.1928L52.6042 94.2261L53.3849 96.3774L53.4776 96.3441L52.6969 94.1928Z" fill="black"/>
<path d="M53.3192 93.9687L53.2266 94.002L54.0068 96.1535L54.0995 96.1202L53.3192 93.9687Z" fill="black"/>
<path d="M69.6763 93.5336L69.1084 95.75L69.2039 95.7742L69.7717 93.5578L69.6763 93.5336Z" fill="black"/>
<path d="M70.3081 93.6811L69.7402 95.8975L69.8357 95.9217L70.4036 93.7053L70.3081 93.6811Z" fill="black"/>
<path d="M66.6604 95.5786L64.5453 94.6865L64.5059 94.778L66.6243 95.67L66.6604 95.5786Z" fill="black"/>
<path d="M66.9199 94.9775L64.8015 94.0854L64.7654 94.1737L66.8805 95.069L66.9199 94.9775Z" fill="black"/>
<path d="M59.0113 99.9702L58.6895 100.47H58.8077L59.0934 100.022L59.0113 99.9702Z" fill="black"/>
<path d="M59.5663 100.32L59.4678 100.47H59.586L59.6484 100.372L59.5663 100.32Z" fill="black"/>
<path d="M59.5774 97.1453L57.47 98.0596L57.5094 98.1494L59.6168 97.2352L59.5774 97.1453Z" fill="black"/>
<path d="M59.8412 97.7369L57.7341 98.6519L57.7735 98.7417L59.8806 97.8267L59.8412 97.7369Z" fill="black"/>
<path d="M55.7442 96.8157L55.1167 99.0161L55.2115 99.0429L55.839 96.8425L55.7442 96.8157Z" fill="black"/>
<path d="M55.1018 96.6156L54.4739 98.8159L54.5687 98.8427L55.1966 96.6424L55.1018 96.6156Z" fill="black"/>
<path d="M63.5962 97.8986L62.9328 95.7061L62.8408 95.7355L63.501 97.9247L63.5962 97.8986Z" fill="black"/>
<path d="M62.9656 98.0847L62.3055 95.8955L62.2102 95.9216L62.8736 98.1142L62.9656 98.0847Z" fill="black"/>
<path d="M59.0738 90.3802L59.0147 90.3018L57.1787 91.6806L57.2378 91.7591L59.0738 90.3802Z" fill="black"/>
<path d="M59.4084 90.8278L57.5725 92.2046L57.6318 92.2829L59.4677 90.906L59.4084 90.8278Z" fill="black"/>
<path d="M56.0488 90.3867L55.4116 88.1909L55.3164 88.2203L55.9536 90.4161L56.0488 90.3867Z" fill="black"/>
<path d="M54.6858 88.4002L55.323 90.5992L55.4182 90.5698L54.781 88.374L54.6858 88.4002Z" fill="black"/>
<path d="M52.4939 88.2752L52.3604 90.5586L52.4587 90.5643L52.5923 88.2809L52.4939 88.2752Z" fill="black"/>
<path d="M53.1528 88.3147L53.0193 90.5981L53.1176 90.6038L53.2512 88.3204L53.1528 88.3147Z" fill="black"/>
<path d="M68.7624 91.3896L67.314 93.1672L67.3928 93.2293L68.8379 91.4517L68.7624 91.3896Z" fill="black"/>
<path d="M66.8805 92.8176L68.3256 91.0401L68.2501 90.978L66.8049 92.7556L66.8805 92.8176Z" fill="black"/>
<path d="M68.654 87.6094L68.5588 87.5996L68.2993 89.8705L68.3978 89.8836L68.654 87.6094Z" fill="black"/>
<path d="M67.9052 87.5244L67.6458 89.7986L67.7443 89.8084L68.0037 87.5375L67.9052 87.5244Z" fill="black"/>
<path d="M50.2126 88.1712L50.2586 88.083L49.1255 87.4785V87.5896L50.2126 88.1712Z" fill="black"/>
<path d="M50.5706 87.5079L49.1255 86.7368V86.8479L50.5213 87.5929L50.5706 87.5079Z" fill="black"/>
<path d="M49.1255 91.05L49.9991 90.2984L49.9334 90.2266L49.1255 90.9193V91.05Z" fill="black"/>
<path d="M49.5689 89.8051L49.5032 89.73L49.1255 90.0567V90.1842L49.5689 89.8051Z" fill="black"/>
<path d="M51.1585 92.9092L49.1255 93.6999V93.8045L51.1979 92.9974L51.1585 92.9092Z" fill="black"/>
<path d="M50.9582 92.3898L50.922 92.2983L49.1255 92.9976V93.1054L50.9582 92.3898Z" fill="black"/>
<path d="M50.3473 97.1502L50.3703 97.0554L49.1255 96.7744V96.8757L50.3473 97.1502Z" fill="black"/>
<path d="M50.4918 96.5134L50.5148 96.4187L49.1255 96.105V96.2063L50.4918 96.5134Z" fill="black"/>
<path d="M69.518 86.4262L70.2307 85.1943H70.1158L69.4326 86.3772L69.518 86.4262Z" fill="black"/>
<path d="M70.8743 85.1943L70.0039 86.7039L70.0893 86.7497L70.9859 85.1943H70.8743Z" fill="black"/>
<path d="M67.2978 86.1092L67.3766 86.0472L66.6737 85.1943H66.5457L67.2978 86.1092Z" fill="black"/>
<path d="M67.8068 85.6943L67.8823 85.6322L67.521 85.1943H67.3962L67.8068 85.6943Z" fill="black"/>
<path d="M64.6471 87.1941L63.9213 85.1943H63.8162L64.5551 87.23L64.6471 87.1941Z" fill="black"/>
<path d="M65.1727 87.0078L65.2647 86.9719L64.621 85.1943H64.5159L65.1727 87.0078Z" fill="black"/>
<path d="M60.5025 86.2988L60.7849 85.1943H60.6831L60.4072 86.2726L60.5025 86.2988Z" fill="black"/>
<path d="M61.4614 85.1943H61.3596L61.041 86.436L61.1363 86.4589L61.4614 85.1943Z" fill="black"/>
<path d="M53.4246 86.1092L53.6841 85.1943H53.5822L53.3293 86.0831L53.4246 86.1092Z" fill="black"/>
<path d="M54.2653 85.1943L53.9631 86.2595L54.0584 86.289L54.3704 85.1943H54.2653Z" fill="black"/>
<path d="M51.3358 86.351L51.4278 86.3216L51.0862 85.1943H50.9844L51.3358 86.351Z" fill="black"/>
<path d="M51.963 86.1615L52.0582 86.1354L51.7725 85.1943H51.6707L51.963 86.1615Z" fill="black"/>
<path d="M49.1254 43.8672L48.1926 44.6677L48.2583 44.7429L49.1254 43.9979V43.8672Z" fill="black"/>
<path d="M47.8281 44.2461L49.1255 43.1318V43.0044L47.7625 44.1742L47.8281 44.2461Z" fill="black"/>
<path d="M49.0203 46.6906L49.0564 46.7826L49.1254 46.7531V46.6479L49.0203 46.6906Z" fill="black"/>
<path d="M48.7805 46.0825L48.8166 46.1708L49.1254 46.0531V45.9453L48.7805 46.0825Z" fill="black"/>
<path d="M48.104 49.5952L49.1254 49.824V49.7227L48.127 49.5005L48.104 49.5952Z" fill="black"/>
<path d="M48.2715 48.8633L48.2485 48.958L49.1255 49.1541V49.0528L48.2715 48.8633Z" fill="black"/>
<path d="M48.1402 56.4829L48.1172 56.5777L49.1255 56.8325V56.7312L48.1402 56.4829Z" fill="black"/>
<path d="M48.3044 55.8491L48.2781 55.9439L49.1254 56.1563V56.055L48.3044 55.8491Z" fill="black"/>
<path d="M48.4521 59.7404L48.485 59.8352L49.1254 59.6228V59.5215L48.4521 59.7404Z" fill="black"/>
<path d="M49.1255 58.9371V58.8325L48.2485 59.1201L48.2781 59.2148L49.1255 58.9371Z" fill="black"/>
<path d="M46.4683 61.6687H46.5832L47.0135 60.9172L46.9281 60.8682L46.4683 61.6687Z" fill="black"/>
<path d="M47.2271 61.6685H47.3387L47.585 61.2404L47.4997 61.1914L47.2271 61.6685Z" fill="black"/>
<path d="M42.1956 60.8126L42.8984 61.6687H43.0265L42.2711 60.7505L42.1956 60.8126Z" fill="black"/>
<path d="M42.7046 60.4005L43.749 61.6683H43.8738L42.7801 60.3384L42.7046 60.4005Z" fill="black"/>
<path d="M40.2182 61.5181L40.1262 61.5507L40.1689 61.6684H40.274L40.2182 61.5181Z" fill="black"/>
<path d="M40.7437 61.3286L40.8685 61.6684H40.9736L40.8389 61.2959L40.7437 61.3286Z" fill="black"/>
<path d="M37.1375 61.6682L37.2524 61.2075L37.1013 61.4003L37.0356 61.6682H37.1375Z" fill="black"/>
<path d="M37.962 60.6914L37.7124 61.6684H37.8142L38.0573 60.7175L37.962 60.6914Z" fill="black"/>
<path d="M43.9624 57.2835L46.0808 58.1788L46.1169 58.0873L44.0018 57.1953L43.9624 57.2835Z" fill="black"/>
<path d="M43.7462 57.7989L43.7078 57.8892L45.8242 58.7825L45.8627 58.6923L43.7462 57.7989Z" fill="black"/>
<path d="M46.118 52.2591L45.4905 54.4595L45.5853 54.4862L46.2128 52.2858L46.118 52.2591Z" fill="black"/>
<path d="M46.7496 52.4265L46.1221 54.627L46.2169 54.6537L46.8444 52.4533L46.7496 52.4265Z" fill="black"/>
<path d="M43.3582 52.7223L43.4535 52.6929L43.1677 51.7485C43.1447 51.791 43.125 51.8335 43.1021 51.8727L43.3582 52.7223Z" fill="black"/>
<path d="M43.9888 52.5326L44.0807 52.5032L43.6012 50.9185L43.5388 51.0426L43.9888 52.5326Z" fill="black"/>
<path d="M46.0249 46.4755L45.457 48.6919L45.5525 48.7161L46.1204 46.4997L46.0249 46.4755Z" fill="black"/>
<path d="M46.6601 46.6357L46.0923 48.8521L46.1878 48.8763L46.7556 46.6599L46.6601 46.6357Z" fill="black"/>
<path d="M41.5713 57.9405V57.8457L39.5777 58.1234L39.5022 58.2313L41.5713 57.9405Z" fill="black"/>
<path d="M41.6443 58.4931L39.3677 58.8135L39.3815 58.911L41.6582 58.5907L41.6443 58.4931Z" fill="black"/>
<path d="M41.0459 56.1201L41.1444 56.1397L41.3875 55.0811L41.2134 55.4078L41.0459 56.1201Z" fill="black"/>
<path d="M41.6863 56.2641L41.7848 56.287L42.2972 54.0585L42.2019 54.0356L41.6863 56.2641Z" fill="black"/>
<path d="M49.1254 63.9525L48.232 63.4722L48.186 63.5604L49.1254 64.0636V63.9525Z" fill="black"/>
<path d="M49.1254 63.2107L48.544 62.897L48.498 62.9852L49.1254 63.3217V63.2107Z" fill="black"/>
<path d="M49.1255 67.3931L48.5015 67.9289C48.5015 67.9682 48.5015 68.0074 48.5015 68.0466L49.1124 67.5238L49.1255 67.3931Z" fill="black"/>
<path d="M49.1254 66.5308L48.416 67.1385C48.416 67.1777 48.416 67.2169 48.416 67.2562L49.1254 66.6582V66.5308Z" fill="black"/>
<path d="M49.0203 70.2165L49.0564 70.3085L49.1254 70.2789V70.1738L49.0203 70.2165Z" fill="black"/>
<path d="M49.1254 69.4712L48.7805 69.6084L48.8166 69.6967L49.1254 69.579V69.4712Z" fill="black"/>
<path d="M49.1254 73.2486L48.127 73.0264L48.104 73.1211L49.1254 73.3498V73.2486Z" fill="black"/>
<path d="M48.2715 72.3892L48.2485 72.4839L49.1255 72.68V72.5787L48.2715 72.3892Z" fill="black"/>
<path d="M49.1255 80.2571L48.1402 80.0088L48.1172 80.1035L49.1255 80.3584V80.2571Z" fill="black"/>
<path d="M48.3044 79.375L48.2781 79.4698L49.1254 79.6821V79.5809L48.3044 79.375Z" fill="black"/>
<path d="M49.1254 83.1491V83.0479L48.4521 83.2668L48.485 83.3615L49.1254 83.1491Z" fill="black"/>
<path d="M49.1255 82.463V82.3584L48.2485 82.6459L48.2781 82.7407L49.1255 82.463Z" fill="black"/>
<path d="M46.4683 85.1946H46.5832L47.0135 84.4431L46.9281 84.394L46.4683 85.1946Z" fill="black"/>
<path d="M47.585 84.7663L47.4997 84.7173L47.2271 85.1943H47.3387L47.585 84.7663Z" fill="black"/>
<path d="M39.9128 64.8116L41.3678 66.5793L41.4433 66.5172L39.9884 64.7495L39.9128 64.8116Z" fill="black"/>
<path d="M40.9376 66.9326L39.4794 65.1616L39.4038 65.2237L40.8621 66.9947L40.9376 66.9326Z" fill="black"/>
<path d="M37.425 65.9286L37.3323 65.9619L38.1129 68.1133L38.2056 68.08L37.425 65.9286Z" fill="black"/>
<path d="M38.0478 65.7031L37.9551 65.7363L38.7354 67.8878L38.828 67.8546L38.0478 65.7031Z" fill="black"/>
<path d="M37.5086 70.3503L37.4232 70.3013L36.2803 72.2879L36.3657 72.3337L37.5086 70.3503Z" fill="black"/>
<path d="M36.9372 70.0265L36.8518 69.9775L35.7122 71.9609L35.7943 72.0099L36.9372 70.0265Z" fill="black"/>
<path d="M33.0551 71.8335L31.5969 70.0625L31.5542 70.0984C31.5526 70.1169 31.5526 70.1355 31.5542 70.154L32.9861 71.8956L33.0551 71.8335Z" fill="black"/>
<path d="M33.561 71.4186L32.1061 69.6509L32.0305 69.713L33.4855 71.4807L33.561 71.4186Z" fill="black"/>
<path d="M35.7024 73.7158L35.2229 73.9249C35.3863 73.8637 35.5464 73.7939 35.7024 73.7158Z" fill="black"/>
<path d="M32.0764 73.3238L32.1552 73.4158L32.1848 73.3041L32.0896 73.2778L32.0764 73.3238Z" fill="black"/>
<path d="M35.4263 66.8538L35.3672 66.7754L33.5312 68.1543L33.5904 68.2327L35.4263 66.8538Z" fill="black"/>
<path d="M35.7599 67.3077L33.9226 68.6826L33.9818 68.761L35.8191 67.386L35.7599 67.3077Z" fill="black"/>
<path d="M44.8557 64.5666C44.8918 64.5209 44.928 64.4816 44.9674 64.4392L45.0068 64.083H44.9115L44.8557 64.5666Z" fill="black"/>
<path d="M44.1988 65.2921L44.3466 64.0112H44.2481L44.0872 65.4326L44.1988 65.2921Z" fill="black"/>
<path d="M45.7852 62.8513L45.8705 62.9003L46.5832 61.6685H46.4683L45.7852 62.8513Z" fill="black"/>
<path d="M46.8264 62.3482L47.1549 61.9986L47.3453 61.6719H47.2337L46.8264 62.3482Z" fill="black"/>
<path d="M43.6536 62.5834L43.7291 62.5213L43.0263 61.6685H42.8982L43.6536 62.5834Z" fill="black"/>
<path d="M44.1596 62.1684L44.2351 62.1063L43.8738 61.6685H43.749L44.1596 62.1684Z" fill="black"/>
<path d="M40.9999 63.6682L40.274 61.6685H40.1689L40.9079 63.7041L40.9999 63.6682Z" fill="black"/>
<path d="M41.5255 63.4819L41.6175 63.446L40.9737 61.6685H40.8687L41.5255 63.4819Z" fill="black"/>
<path d="M36.7598 62.7467L36.855 62.7729L37.1375 61.6685H37.0356L36.7598 62.7467Z" fill="black"/>
<path d="M37.3938 62.9101L37.489 62.933L37.8142 61.6685H37.7124L37.3938 62.9101Z" fill="black"/>
<path d="M48.186 87.0863L49.1254 87.5895V87.4784L48.232 86.998L48.186 87.0863Z" fill="black"/>
<path d="M48.544 86.4233L48.498 86.5116L49.1254 86.8481V86.737L48.544 86.4233Z" fill="black"/>
<path d="M48.1926 91.72L48.2583 91.7951L49.1254 91.0501V90.9194L48.1926 91.72Z" fill="black"/>
<path d="M49.1255 90.1841V90.0566L47.7625 91.2264L47.8281 91.2983L49.1255 90.1841Z" fill="black"/>
<path d="M49.0203 93.7424L49.0564 93.8344L49.1254 93.8048V93.6997L49.0203 93.7424Z" fill="black"/>
<path d="M49.1254 92.9976L48.7805 93.1348L48.8166 93.223L49.1254 93.1054V92.9976Z" fill="black"/>
<path d="M49.1254 96.7744L48.127 96.5522L48.104 96.647L49.1254 96.8757V96.7744Z" fill="black"/>
<path d="M49.1255 96.105L48.2715 95.9155L48.2485 96.0103L49.1255 96.2063V96.105Z" fill="black"/>
<path d="M46.117 99.3037L45.782 100.47H45.8871L46.2122 99.3299L46.117 99.3037Z" fill="black"/>
<path d="M46.7475 99.48L46.4651 100.47H46.5702L46.8428 99.5061L46.7475 99.48Z" fill="black"/>
<path d="M43.9886 99.5849L44.0806 99.5554L43.7718 98.5327C43.7718 98.6079 43.7456 98.6765 43.7324 98.7451L43.9886 99.5849Z" fill="black"/>
<path d="M46.0276 93.5375L45.4617 95.7544L45.5572 95.7785L46.1231 93.5616L46.0276 93.5375Z" fill="black"/>
<path d="M46.6628 93.684L46.095 95.9004L46.1904 95.9246L46.7583 93.7082L46.6628 93.684Z" fill="black"/>
<path d="M45.1843 91.4517L45.1087 91.3896L45.0266 91.4909C45.0266 91.5563 45.0036 91.6249 44.9905 91.6903L45.1843 91.4517Z" fill="black"/>
<path d="M45.9855 86.0308L45.9363 86.3118L46.5931 85.1943H46.4782L45.9855 86.0308Z" fill="black"/>
<path d="M47.227 85.1943L46.3567 86.7039L46.4421 86.7497L47.3387 85.1943H47.227Z" fill="black"/>
</g>
<path opacity="0.2" d="M80.7373 51.6207C80.7373 51.6207 74.6481 60.8089 71.909 64.5437C69.1698 68.2785 65.718 68.3798 66.5325 70.801C67.347 73.2222 71.909 100.999 71.909 100.999H80.2315L74.7434 69.592L82.6586 54.3458C82.6586 54.3458 86.7838 70.2749 90.3013 72.0525C93.8188 73.83 95.6482 72.3171 95.8518 68.883C96.0554 65.4488 89.8645 54.1432 88.5442 50.9116C87.2239 47.6801 84.892 44.7524 83.0659 42.9356C81.2398 41.1189 73.1275 38.5898 73.1275 38.5898L70.2865 41.2039C70.2865 41.2039 79.926 45.2425 80.6355 46.4548C81.3449 47.667 80.7373 51.6207 80.7373 51.6207Z" fill="black"/>
<path opacity="0.2" d="M51.1222 49.3042C51.1222 49.3042 51.9728 45.7752 51.1222 46.481C50.2715 47.1868 39.3412 65.8247 39.3412 65.8247L38.9175 63.2826C38.9175 63.2826 34.0928 63.1421 33.5247 65.5437C32.9565 67.9453 31.9613 75.7089 33.9483 76.1304C35.9354 76.552 47.8575 62.5768 47.8575 62.5768C47.8575 62.5768 47.5291 58.7211 48.117 56.5776C48.7049 54.4341 51.1222 49.3042 51.1222 49.3042Z" fill="black"/>
<path d="M47.7361 61.3483C47.7361 61.3483 47.3748 57.6528 48.6951 54.431C50.0154 51.2092 51.0927 49.899 51.812 47.5137" stroke="#263238" stroke-width="0.3" stroke-linecap="round" stroke-linejoin="round"/>
<path d="M63.3204 37.4954C63.3204 37.4954 61.8818 38.3286 57.5662 39.2827C53.2506 40.2368 50.495 39.1651 48.8167 41.4295C47.1384 43.6939 42.4615 53.4768 40.1822 57.1756C37.9028 60.8744 32.6282 66.3573 31.7907 69.102C30.9532 71.8468 31.6724 74.5882 34.5495 74.1111C37.4266 73.6341 41.2627 68.625 43.9 65.6417C46.5374 62.6585 47.7362 61.3482 47.7362 61.3482C47.7362 61.3482 48.3372 66.2495 48.5769 68.625C48.8167 71.0005 43.4205 100.47 43.4205 100.47H79.5056C79.5056 100.47 73.7514 70.409 73.9912 69.4582C74.2309 68.5074 81.6634 55.5059 81.6634 55.5059C81.6634 55.5059 87.5391 66.8344 88.4981 68.8635C89.4571 70.8926 90.8957 72.7845 93.6545 73.0361C96.4134 73.2877 95.9306 69.5791 95.3328 67.1938C94.7351 64.8085 90.2946 55.983 88.866 52.6403C87.4373 49.2976 87.0694 47.739 84.5503 44.5271C82.0312 41.3151 75.1998 39.6258 73.7613 39.0409C72.3227 38.456 69.9252 37.4921 69.9252 37.4921C69.9252 37.4921 65.7179 35.8257 63.3204 37.4954Z" stroke="#263238" stroke-width="0.3" stroke-linecap="round" stroke-linejoin="round"/>
<path d="M63.3204 37.4955C62.5623 37.8725 61.7692 38.1756 60.9524 38.4006C61.0017 40.2925 61.1133 43.8247 61.2808 45.6055C61.5206 48.1084 61.6388 50.376 61.6388 50.376L73.758 39.0443C72.3195 38.4496 69.9219 37.4955 69.9219 37.4955C69.9219 37.4955 65.718 35.8258 63.3204 37.4955Z" fill="white" stroke="#263238" stroke-width="0.3" stroke-linecap="round" stroke-linejoin="round"/>
<path d="M63.3203 33.0814L62.8408 39.6426C62.8408 39.6426 63.0806 45.6058 63.6816 45.6058C64.2826 45.6058 70.7561 38.329 70.7561 38.329L72.0698 28.667L63.3203 33.0814Z" fill="white"/>
<path opacity="0.2" d="M63.2251 34.4015L67.5177 38.1395L65.2187 44.2759C67.3174 42.1749 70.743 38.329 70.743 38.329L72.0567 28.667L63.3039 33.0814L63.2251 34.4015Z" fill="black"/>
<path d="M63.3203 33.0814L62.8408 39.6426C62.8408 39.6426 63.0806 45.6058 63.6816 45.6058C64.2826 45.6058 70.7561 38.329 70.7561 38.329L72.0698 28.667L63.3203 33.0814Z" stroke="#263238" stroke-width="0.3" stroke-linecap="round" stroke-linejoin="round"/>
<path d="M67.2057 6.80371C67.2057 6.80371 57.1064 13.5511 57.1064 14.2667C57.1064 14.9823 56.3838 25.4645 56.6794 26.1735C56.975 26.8826 59.8521 34.2149 63.0281 34.2149C66.204 34.2149 72.1191 30.1926 72.4081 29.1894C72.6972 28.1863 73.4164 26.3173 73.4164 26.3173C73.4164 26.3173 76.0144 26.3173 76.5924 25.4547C76.9794 24.831 77.2715 24.1538 77.4595 23.4452C77.4595 23.4452 68.7921 16.6977 67.2057 6.80371Z" fill="white"/>
<path opacity="0.2" d="M68.2732 10.8164C68.618 12.7279 69.1599 14.9465 69.9974 16.6751C71.8432 20.4882 72.5527 21.7593 72.5527 21.7593C72.5527 21.7593 71.8432 26.4319 70.1452 29.1145C68.7461 31.3233 64.8476 33.3361 62.9558 34.2183H63.0281C66.204 34.2183 72.1191 30.196 72.4082 29.1929C72.6972 28.1898 73.4164 26.3208 73.4164 26.3208C73.4164 26.3208 76.0144 26.3208 76.5924 25.4581C76.9794 24.8345 77.2716 24.1573 77.4595 23.4486C77.4595 23.4486 71.0878 18.4918 68.2732 10.8164Z" fill="black"/>
<path d="M67.2057 6.80371C67.2057 6.80371 57.1064 13.5511 57.1064 14.2667C57.1064 14.9823 56.3838 25.4645 56.6794 26.1735C56.975 26.8826 59.8521 34.2149 63.0281 34.2149C66.204 34.2149 72.1191 30.1926 72.4081 29.1894C72.6972 28.1863 73.4164 26.3173 73.4164 26.3173C73.4164 26.3173 76.0144 26.3173 76.5924 25.4547C76.9794 24.831 77.2715 24.1538 77.4595 23.4452C77.4595 23.4452 68.7921 16.6977 67.2057 6.80371Z" stroke="#263238" stroke-width="0.3" stroke-linecap="round" stroke-linejoin="round"/>
<path d="M63.455 18.2891C63.455 18.2891 62.2989 21.5893 62.1413 22.1643C61.9836 22.7394 63.1528 23.5988 64.4403 22.8832" stroke="#263238" stroke-width="0.3" stroke-linecap="round" stroke-linejoin="round"/>
<path d="M59.3069 14.5153C59.7435 13.9518 60.36 13.5529 61.0548 13.3842C61.7496 13.2156 62.4814 13.2872 63.1299 13.5873" stroke="#263238" stroke-width="0.3" stroke-linecap="round" stroke-linejoin="round"/>
<path d="M66.9397 14.2374C67.5943 13.9587 68.3264 13.9176 69.0083 14.1213C69.6903 14.3249 70.2786 14.7604 70.6707 15.3516" stroke="#263238" stroke-width="0.3" stroke-linecap="round" stroke-linejoin="round"/>
<path d="M67.5933 16.9298C67.5933 16.9298 68.907 15.6228 69.4588 17.3938" stroke="#263238" stroke-width="0.3" stroke-linecap="round" stroke-linejoin="round"/>
<path d="M59.8489 16.5573C59.8489 16.5573 61.4352 15.0738 62.1808 16.5573" stroke="#263238" stroke-width="0.3" stroke-linecap="round" stroke-linejoin="round"/>
<path d="M60.8767 19.8512C61.1851 19.8512 61.435 19.4153 61.435 18.8775C61.435 18.3398 61.1851 17.9038 60.8767 17.9038C60.5683 17.9038 60.3184 18.3398 60.3184 18.8775C60.3184 19.4153 60.5683 19.8512 60.8767 19.8512Z" fill="#263238"/>
<path d="M68.618 19.8054C68.618 20.3446 68.3684 20.7857 68.0597 20.7857C67.7509 20.7857 67.498 20.3479 67.498 19.8054C67.498 19.263 67.7477 18.8252 68.0597 18.8252C68.3717 18.8252 68.618 19.2696 68.618 19.8054Z" fill="#263238"/>
<path d="M64.1415 26.6735C64.1415 27.327 63.6981 27.8792 63.1562 27.8792C62.6143 27.8792 62.1709 27.3401 62.1709 26.6735C62.1709 26.0069 62.6143 25.4678 63.1562 25.4678C63.6981 25.4678 64.1415 26.0069 64.1415 26.6735Z" fill="#263238"/>
<path d="M59.1953 19.8999C59.1953 19.8999 60.5944 19.8999 61.3433 20.2691" stroke="#263238" stroke-width="0.3" stroke-linecap="round" stroke-linejoin="round"/>
<path d="M67.3108 20.9195C67.3108 20.9195 69.0843 20.5502 69.8299 20.9195" stroke="#263238" stroke-width="0.3" stroke-linecap="round" stroke-linejoin="round"/>
<path d="M81.2102 41.3971C81.2102 41.3971 82.0609 41.2566 81.9197 38.4335C81.8547 36.6521 82.1438 34.8755 82.7703 33.2055C82.7703 33.2055 82.0609 32.0749 81.4927 33.346C80.9245 34.617 80.9245 36.3031 80.6552 37.1624C80.3859 38.0218 79.5188 39.8451 79.5188 39.8451L81.2102 41.3971Z" fill="white" stroke="#263238" stroke-width="0.3" stroke-linecap="round" stroke-linejoin="round"/>
<path d="M80.9441 45.7231C80.9441 45.7231 81.9031 41.0734 81.3053 39.0443C80.7076 37.0151 79.3873 30.0945 79.3873 30.0945C79.3873 30.0945 78.668 29.4966 78.3067 30.5716C77.9455 31.6466 78.7863 36.6524 78.7863 36.6524L76.6284 30.4442C76.6284 30.4442 76.0307 29.8495 75.5512 30.3265C75.4752 30.7205 75.4752 31.1252 75.5512 31.5192C75.6694 32.2348 77.108 37.0053 77.108 37.0053L74.1126 31.7577C74.1126 31.7577 73.7514 31.2806 73.5116 31.9962C73.2718 32.7118 76.0307 39.2697 76.0307 39.2697L72.7923 34.9958C72.7923 34.9958 71.9548 34.8782 72.4343 36.0708C72.9139 37.2635 74.8319 40.6029 74.8319 40.6029C74.8319 40.6029 73.8729 44.1971 74.7104 45.9681C75.5479 47.7391 78.1885 50.3825 78.1885 50.3825C78.1885 50.3825 85.7425 66.0078 86.2187 68.5107C86.695 71.0136 90.7741 75.5489 94.8533 74.1178C98.9324 72.6866 96.2918 66.7234 94.1307 63.0245C92.505 60.2374 90.045 57.8259 87.8905 55.4439C86.4223 53.8101 84.6948 52.428 83.2924 50.7387C82.3629 49.6212 80.6156 47.3176 80.9441 45.7231Z" fill="white"/>
<path opacity="0.2" d="M76.3856 39.8448L75.6269 38.3025C75.8667 38.8972 76.0309 39.2828 76.0309 39.2828L72.7925 34.9958C72.6782 34.9854 72.5635 35.0105 72.4641 35.0677L76.1032 41.6877C76.1032 41.6877 76.4152 45.9354 76.9702 46.9157C77.4432 47.7456 87.8513 67.501 92.1242 74.2517C93.0303 74.4627 93.9781 74.4129 94.8568 74.1079C98.9326 72.6768 96.2953 66.7136 94.1342 63.0147C92.5085 60.2275 90.0485 57.8161 87.894 55.4341C86.4259 53.8003 84.6983 52.4182 83.2959 50.7289C82.3697 49.6179 80.6224 47.3143 80.9508 45.7198C80.9508 45.7198 81.9099 41.0701 81.3121 39.041C80.7144 37.0119 79.3875 30.0945 79.3875 30.0945C79.2594 29.995 79.1032 29.9379 78.9408 29.9312L78.7963 30.0945C78.7963 30.0945 80.2152 36.3028 79.9327 37.1556C79.6502 38.0084 78.7865 36.6524 78.7865 36.6524L76.6287 30.4442C76.4992 30.3221 76.3445 30.2295 76.1754 30.173L75.5514 30.3265L78.2281 37.7144L77.1082 37.0053L74.1128 31.7577C74.1128 31.7577 73.7516 31.2806 73.5118 31.9962L76.7962 39.2664L76.3856 39.8448Z" fill="black"/>
<path d="M80.9441 45.7231C80.9441 45.7231 81.9031 41.0734 81.3053 39.0443C80.7076 37.0151 79.3873 30.0945 79.3873 30.0945C79.3873 30.0945 78.668 29.4966 78.3067 30.5716C77.9455 31.6466 78.7863 36.6524 78.7863 36.6524L76.6284 30.4442C76.6284 30.4442 76.0307 29.8495 75.5512 30.3265C75.4752 30.7205 75.4752 31.1252 75.5512 31.5192C75.6694 32.2348 77.108 37.0053 77.108 37.0053L74.1126 31.7577C74.1126 31.7577 73.7514 31.2806 73.5116 31.9962C73.2718 32.7118 76.0307 39.2697 76.0307 39.2697L72.7923 34.9958C72.7923 34.9958 71.9548 34.8782 72.4343 36.0708C72.9139 37.2635 74.8319 40.6029 74.8319 40.6029C74.8319 40.6029 73.8729 44.1971 74.7104 45.9681C75.5479 47.7391 78.1885 50.3825 78.1885 50.3825C78.1885 50.3825 85.7425 66.0078 86.2187 68.5107C86.695 71.0136 90.7741 75.5489 94.8533 74.1178C98.9324 72.6866 96.2918 66.7234 94.1307 63.0245C92.505 60.2374 90.045 57.8259 87.8905 55.4439C86.4223 53.8101 84.6948 52.428 83.2924 50.7387C82.3629 49.6212 80.6156 47.3176 80.9441 45.7231Z" stroke="#263238" stroke-width="0.3" stroke-linecap="round" stroke-linejoin="round"/>
<path d="M94.1209 63.0183C92.9648 61.0382 91.3884 59.2443 89.7987 57.519L83.1841 61.061C84.7014 64.4135 86.0185 67.5046 86.209 68.5044C86.6885 71.0106 90.7643 75.5426 94.8435 74.1115C98.9226 72.6803 96.2919 66.7171 94.1209 63.0183Z" fill="#C74F4A"/>
<g opacity="0.2">
<path d="M96.4202 70.1739V70.285L96.9325 70.0857V69.9844L96.4202 70.1739Z" fill="black"/>
<path d="M96.8307 69.4193L96.811 69.3213L96.4202 69.4716V69.5794L96.8307 69.4193Z" fill="black"/>
<path d="M96.4202 72.6806L96.5712 72.7135C96.5877 72.6839 96.6074 72.6544 96.6205 72.6248L96.4202 72.5723V72.6806Z" fill="black"/>
<path d="M89.4902 60.8126L90.1931 61.6687H90.3212L89.5658 60.7505L89.4902 60.8126Z" fill="black"/>
<path d="M89.9993 60.401L91.0437 61.6687H91.1685L90.0748 60.3389L89.9993 60.401Z" fill="black"/>
<path d="M87.5131 61.5186L87.4211 61.5512L87.4638 61.6689H87.5689L87.5131 61.5186Z" fill="black"/>
<path d="M88.0386 61.3291L88.1634 61.6689H88.2685L88.1338 61.2964L88.0386 61.3291Z" fill="black"/>
<path d="M84.3306 61.6688H84.4324L84.7148 60.5579L84.6196 60.5317L84.3306 61.6688Z" fill="black"/>
<path d="M85.2567 60.6919L85.0071 61.6689H85.1089L85.3519 60.718L85.2567 60.6919Z" fill="black"/>
<path d="M88.9418 58.4927L87.6576 58.6724L87.408 58.8064L88.9549 58.5874L88.9418 58.4927Z" fill="black"/>
<path d="M95.5532 68.2691L96.3251 67.6156C96.3251 67.5829 96.2988 67.5503 96.2889 67.5176L95.4875 68.2038L95.5532 68.2691Z" fill="black"/>
<path d="M96.0919 66.952L96.0524 66.854L95.0671 67.7003L95.1295 67.7722L96.0919 66.952Z" fill="black"/>
<path d="M96.3152 70.2165L96.3513 70.3085L96.4203 70.2789V70.1738L96.3152 70.2165Z" fill="black"/>
<path d="M96.4203 69.4717L96.0754 69.6089L96.1116 69.6971L96.4203 69.5795V69.4717Z" fill="black"/>
<path d="M96.2331 73.2061L95.4219 73.0264L95.3989 73.1211L96.1576 73.291C96.1839 73.2649 96.2069 73.2257 96.2331 73.2061Z" fill="black"/>
<path d="M95.5662 72.3896L95.5432 72.4844L96.4201 72.6805V72.5792L95.5662 72.3896Z" fill="black"/>
<path d="M88.7383 66.5177L87.2833 64.75L87.2078 64.8121L88.6627 66.5798L88.7383 66.5177Z" fill="black"/>
<path d="M88.2323 66.9326L86.774 65.1616L86.6985 65.2237L88.1534 66.9947L88.2323 66.9326Z" fill="black"/>
<path d="M85.2534 65.7399L85.3651 66.047C85.664 66.7855 85.9004 67.4128 86.0548 67.8833L86.1271 67.8572L85.3421 65.7104L85.2534 65.7399Z" fill="black"/>
<path d="M93.3254 70.0102L92.7576 72.2266L92.8531 72.2508L93.4209 70.0344L93.3254 70.0102Z" fill="black"/>
<path d="M93.9541 70.1576L93.3862 72.374L93.4817 72.3982L94.0496 70.1818L93.9541 70.1576Z" fill="black"/>
<path d="M90.3081 72.0527L88.193 71.1606L88.1536 71.2521L90.272 72.1442L90.3081 72.0527Z" fill="black"/>
<path d="M90.5676 71.4516L88.4492 70.5596L88.4131 70.6478L90.5282 71.5431L90.5676 71.4516Z" fill="black"/>
<path d="M92.4856 67.9259L92.4101 67.8638L90.9617 69.6413L91.0405 69.7034L92.4856 67.9259Z" fill="black"/>
<path d="M91.8978 67.4521L90.4526 69.2297L90.5282 69.2918L91.9733 67.5142L91.8978 67.4521Z" fill="black"/>
<path d="M92.3017 64.0835L92.2065 64.0737L91.947 66.3447L92.0455 66.3577L92.3017 64.0835Z" fill="black"/>
<path d="M91.5529 63.9985L91.2935 66.2727L91.392 66.2825L91.6514 64.0116L91.5529 63.9985Z" fill="black"/>
<path d="M93.5957 62.1589L93.5333 62.0674L93.0801 62.8516L93.1655 62.9006L93.5957 62.1589Z" fill="black"/>
<path d="M93.6516 63.1783L93.737 63.2273L93.9899 62.7862L93.9308 62.6914L93.6516 63.1783Z" fill="black"/>
<path d="M90.9452 62.5834L91.0241 62.5213L90.3212 61.6685H90.1931L90.9452 62.5834Z" fill="black"/>
<path d="M91.4542 62.1684L91.5298 62.1063L91.1685 61.6685H91.0437L91.4542 62.1684Z" fill="black"/>
<path d="M88.2948 63.6682L87.569 61.6685H87.4639L88.2028 63.7041L88.2948 63.6682Z" fill="black"/>
<path d="M88.8202 63.4819L88.9122 63.446L88.2684 61.6685H88.1633L88.8202 63.4819Z" fill="black"/>
<path d="M84.0547 62.7467L84.1499 62.7729L84.4324 61.6685H84.3306L84.0547 62.7467Z" fill="black"/>
<path d="M84.6885 62.9101L84.7837 62.933L85.1089 61.6685H85.0071L84.6885 62.9101Z" fill="black"/>
</g>
<path opacity="0.2" d="M76.3856 39.8448L75.6269 38.3025C75.8667 38.8972 76.0309 39.2828 76.0309 39.2828L72.7925 34.9958C72.6782 34.9854 72.5635 35.0105 72.4641 35.0677L76.1032 41.6877C76.1032 41.6877 76.4152 45.9354 76.9702 46.9157C77.4432 47.7456 87.8513 67.501 92.1242 74.2517C93.0303 74.4627 93.9781 74.4129 94.8568 74.1079C98.9326 72.6768 96.2953 66.7136 94.1342 63.0147C92.5085 60.2275 90.0485 57.8161 87.894 55.4341C86.4259 53.8003 84.6983 52.4182 83.2959 50.7289C82.3697 49.6179 80.6224 47.3143 80.9508 45.7198C80.9508 45.7198 81.9099 41.0701 81.3121 39.041C80.7144 37.0119 79.3875 30.0945 79.3875 30.0945C79.2594 29.995 79.1032 29.9379 78.9408 29.9312L78.7963 30.0945C78.7963 30.0945 80.2152 36.3028 79.9327 37.1556C79.6502 38.0084 78.7865 36.6524 78.7865 36.6524L76.6287 30.4442C76.4992 30.3221 76.3445 30.2295 76.1754 30.173L75.5514 30.3265L78.2281 37.7144L77.1082 37.0053L74.1128 31.7577C74.1128 31.7577 73.7516 31.2806 73.5118 31.9962L76.7962 39.2664L76.3856 39.8448Z" fill="black"/>
<path d="M94.1209 63.0183C92.9648 61.0382 91.3884 59.2443 89.7987 57.519L83.1841 61.061C84.7014 64.4135 86.0185 67.5046 86.209 68.5044C86.6885 71.0106 90.7643 75.5426 94.8435 74.1115C98.9226 72.6803 96.2919 66.7171 94.1209 63.0183Z" stroke="#263238" stroke-width="0.3" stroke-linecap="round" stroke-linejoin="round"/>
<path d="M33.4494 37.2504L36.9374 51.9542C37.005 52.2499 37.1772 52.5116 37.4226 52.6915C37.6679 52.8715 37.9701 52.9577 38.2741 52.9344L43.7294 52.5293C43.9132 52.5157 44.0919 52.4626 44.2532 52.3738C44.4145 52.285 44.5546 52.1625 44.6638 52.0147C44.773 51.8669 44.8488 51.6974 44.8859 51.5178C44.923 51.3381 44.9206 51.1526 44.8789 50.9739L41.3942 36.1982C41.3255 35.8993 41.1502 35.6352 40.9008 35.4549C40.6514 35.2747 40.3448 35.1905 40.0378 35.218L34.5759 35.7048C34.3949 35.7213 34.2195 35.776 34.0616 35.8654C33.9036 35.9548 33.7666 36.0768 33.6599 36.2232C33.5532 36.3695 33.4792 36.5369 33.4429 36.7141C33.4066 36.8913 33.4088 37.0741 33.4494 37.2504Z" fill="#263238" stroke="#263238" stroke-width="0.3" stroke-linecap="round" stroke-linejoin="round"/>
<path d="M39.6862 67.9294L38.1459 57.5419C38.5904 57.0187 38.9914 56.4603 39.3446 55.8722C39.8241 55.039 37.3051 51.6996 36.2278 49.664C35.1505 47.6283 34.6743 44.4131 33.3606 45.0077C32.0468 45.6024 32.1618 47.6218 32.4015 49.6607C32.6413 51.6996 35.029 57.0551 35.029 57.0551C35.029 57.0551 31.7906 64.2109 30.7134 68.0274C29.6361 71.8438 31.7906 75.3041 33.4689 75.0656C35.1472 74.8271 38.4382 71.6608 38.4382 71.6608" fill="white"/>
<path opacity="0.2" d="M39.6862 67.9292L38.1458 57.5417C38.5904 57.0185 38.9913 56.4601 39.3446 55.872C39.5909 55.444 39.0424 54.3494 38.3067 53.1143C38.3823 53.5619 38.5169 54.748 38.067 55.5289C37.5618 56.3267 36.9917 57.0818 36.3624 57.7868L33.5247 65.5537C33.5247 65.5537 32.8482 73.1605 33.4689 75.0752C35.1472 74.8367 38.4381 71.6705 38.4381 71.6705L39.6862 67.9292Z" fill="black"/>
<path d="M39.6862 67.9294L38.1459 57.5419C38.5904 57.0187 38.9914 56.4603 39.3446 55.8722C39.8241 55.039 37.3051 51.6996 36.2278 49.664C35.1505 47.6283 34.6743 44.4131 33.3606 45.0077C32.0468 45.6024 32.1618 47.6218 32.4015 49.6607C32.6413 51.6996 35.029 57.0551 35.029 57.0551C35.029 57.0551 31.7906 64.2109 30.7134 68.0274C29.6361 71.8438 31.7906 75.3041 33.4689 75.0656C35.1472 74.8271 38.4382 71.6608 38.4382 71.6608" stroke="#263238" stroke-width="0.3" stroke-linecap="round" stroke-linejoin="round"/>
<path d="M39.6863 67.9293L39.0918 63.9233C38.2018 64.7892 37.1212 65.5571 35.9881 65.763C35.25 65.9053 34.4865 65.8387 33.7845 65.5706C33.0825 65.3026 32.4702 64.8439 32.0174 64.2468C31.4919 65.6159 31.032 66.9556 30.7036 68.0273C29.6231 71.8438 31.7809 75.3041 33.4592 75.0656C34.681 74.8924 37.0917 72.8436 38.4284 71.6608" fill="#C74F4A"/>
<g opacity="0.2">
<path d="M37.425 65.9281L37.3323 65.9614L38.1129 68.1128L38.2056 68.0795L37.425 65.9281Z" fill="black"/>
<path d="M38.0478 65.7031L37.9551 65.7363L38.7354 67.8878L38.828 67.8546L38.0478 65.7031Z" fill="black"/>
<path d="M37.5086 70.3503L37.4232 70.3013L36.2803 72.2879L36.3657 72.3337L37.5086 70.3503Z" fill="black"/>
<path d="M36.9372 70.0265L36.8518 69.9775L35.7122 71.9609L35.7943 72.0099L36.9372 70.0265Z" fill="black"/>
<path d="M33.055 71.8335L31.5968 70.0625L31.5212 70.1246L32.9795 71.8956L33.055 71.8335Z" fill="black"/>
<path d="M33.5608 71.4186L32.1058 69.6509L32.0303 69.713L33.4852 71.4807L33.5608 71.4186Z" fill="black"/>
<path d="M33.8235 74.5326L33.8629 74.6241L35.9386 73.7222L35.9682 73.6994L35.932 73.6177L33.8235 74.5326Z" fill="black"/>
<path d="M32.0894 73.2778L31.8135 74.2581L31.8923 74.3463L32.1846 73.317L32.0894 73.2778Z" fill="black"/>
<path d="M31.3242 73.5687L31.3932 73.683L31.5541 73.1276L31.4589 73.0981L31.3242 73.5687Z" fill="black"/>
<path d="M35.4263 66.8538L35.3672 66.7754L33.5312 68.1543L33.5904 68.2327L35.4263 66.8538Z" fill="black"/>
<path d="M35.7597 67.3072L33.9224 68.6821L33.9816 68.7605L35.8189 67.3856L35.7597 67.3072Z" fill="black"/>
<path d="M32.4014 66.8637L31.8036 64.8052C31.7839 64.8575 31.7642 64.9065 31.7478 64.9587L32.3061 66.8898L32.4014 66.8637Z" fill="black"/>
<path d="M31.7709 67.0434L31.4228 65.8442C31.4031 65.8998 31.3866 65.9521 31.3669 66.0043L31.6757 67.0728L31.7709 67.0434Z" fill="black"/>
</g>
<path opacity="0.2" d="M51.1222 49.3042C51.1222 49.3042 51.9728 45.7752 51.1222 46.481C50.2715 47.1868 39.3412 65.8247 39.3412 65.8247L38.9175 63.2826C38.9175 63.2826 34.0928 63.1421 33.5247 65.5437C32.9565 67.9453 31.9613 75.7089 33.9483 76.1304C35.9354 76.552 47.8575 62.5768 47.8575 62.5768C47.8575 62.5768 47.5291 58.7211 48.117 56.5776C48.7049 54.4341 51.1222 49.3042 51.1222 49.3042Z" fill="black"/>
<path d="M39.6863 67.9293L39.0918 63.9233C38.2018 64.7892 37.1212 65.5571 35.9881 65.763C35.25 65.9053 34.4865 65.8387 33.7845 65.5706C33.0825 65.3026 32.4702 64.8439 32.0174 64.2468C31.4919 65.6159 31.032 66.9556 30.7036 68.0273C29.6231 71.8438 31.7809 75.3041 33.4592 75.0656C34.681 74.8924 37.0917 72.8437 38.4284 71.6608" stroke="#263238" stroke-width="0.3" stroke-linecap="round" stroke-linejoin="round"/>
<path d="M32.1521 46.7981C32.1521 46.7981 32.9896 43.5764 34.4281 41.789C35.8667 40.0017 37.7847 37.868 38.3858 38.3287C39.6765 39.3547 35.7419 43.1418 35.3872 44.0534C34.7894 45.6055 34.1884 47.5137 34.1884 47.5137" fill="white"/>
<path d="M32.1521 46.7981C32.1521 46.7981 32.9896 43.5764 34.4281 41.789C35.8667 40.0017 37.7847 37.868 38.3858 38.3287C39.6765 39.3547 35.7419 43.1418 35.3872 44.0534C34.7894 45.6055 34.1884 47.5137 34.1884 47.5137" stroke="#263238" stroke-width="0.3" stroke-linecap="round" stroke-linejoin="round"/>
<path d="M34.0701 47.9906C34.0701 47.9906 36.5859 44.6513 37.9062 43.2201C39.2265 41.7889 41.982 41.9131 41.6208 42.743C41.2595 43.573 39.105 44.5304 38.3857 45.4845C37.6664 46.4386 35.2689 49.8989 35.2689 49.8989C35.2689 49.8989 37.4267 47.1542 38.9834 46.321C40.5402 45.4877 42.8196 45.1283 42.8196 45.9615C42.8196 46.7947 42.4616 46.5595 41.1413 47.6312C39.821 48.703 39.463 48.7062 38.5138 49.778C37.5646 50.8497 36.8355 51.8071 36.8355 51.8071H40.9146C41.9952 51.8071 43.4337 52.1665 43.4337 52.5227C43.4337 52.8789 43.552 53.2383 41.9952 53.3592C40.4384 53.4801 37.558 53.8362 37.558 53.8362" fill="white"/>
<path d="M34.0701 47.9906C34.0701 47.9906 36.5859 44.6513 37.9062 43.2201C39.2265 41.7889 41.982 41.9131 41.6208 42.743C41.2595 43.573 39.105 44.5304 38.3857 45.4845C37.6664 46.4386 35.2689 49.8989 35.2689 49.8989C35.2689 49.8989 37.4267 47.1542 38.9834 46.321C40.5402 45.4877 42.8196 45.1283 42.8196 45.9615C42.8196 46.7947 42.4616 46.5595 41.1413 47.6312C39.821 48.703 39.463 48.7062 38.5138 49.778C37.5646 50.8497 36.8355 51.8071 36.8355 51.8071H40.9146C41.9952 51.8071 43.4337 52.1665 43.4337 52.5227C43.4337 52.8789 43.552 53.2383 41.9952 53.3592C40.4384 53.4801 37.558 53.8362 37.558 53.8362" stroke="#263238" stroke-width="0.3" stroke-linecap="round" stroke-linejoin="round"/>
<path d="M118.166 100.47H121" stroke="#263238" stroke-width="0.3" stroke-linecap="round" stroke-linejoin="round"/>
<path d="M1 100.47H114.559" stroke="#263238" stroke-width="0.3" stroke-linecap="round" stroke-linejoin="round"/>
</svg>
