<svg width="72" height="66" viewBox="0 0 72 66" fill="none" xmlns="http://www.w3.org/2000/svg">
<path d="M6.08 48V39.624C6.408 39.584 6.768 39.556 7.16 39.54C7.56 39.516 7.972 39.504 8.396 39.504C9.092 39.504 9.684 39.616 10.172 39.84C10.66 40.056 11.032 40.356 11.288 40.74C11.544 41.124 11.672 41.564 11.672 42.06C11.672 42.66 11.524 43.168 11.228 43.584C10.932 44 10.52 44.32 9.992 44.544C9.464 44.76 8.852 44.868 8.156 44.868C7.82 44.868 7.508 44.856 7.22 44.832V48H6.08ZM8.3 43.92C9.012 43.92 9.564 43.76 9.956 43.44C10.348 43.12 10.544 42.692 10.544 42.156C10.544 41.636 10.356 41.224 9.98 40.92C9.604 40.616 9.068 40.464 8.372 40.464C8.156 40.464 7.952 40.468 7.76 40.476C7.568 40.484 7.388 40.496 7.22 40.512V43.86C7.348 43.876 7.504 43.892 7.688 43.908C7.872 43.916 8.076 43.92 8.3 43.92ZM14.8227 48.144C14.4547 48.144 14.1227 48.076 13.8267 47.94C13.5307 47.796 13.2947 47.568 13.1187 47.256C12.9507 46.944 12.8667 46.54 12.8667 46.044V39.12H13.9467V45.936C13.9467 46.368 14.0347 46.688 14.2107 46.896C14.3947 47.104 14.6467 47.208 14.9667 47.208C15.1187 47.208 15.2667 47.192 15.4107 47.16C15.5627 47.12 15.6907 47.076 15.7947 47.028L16.0587 47.904C15.9147 47.968 15.7347 48.024 15.5187 48.072C15.3107 48.12 15.0787 48.144 14.8227 48.144ZM19.2813 48.144C18.7613 48.144 18.2893 48.012 17.8653 47.748C17.4413 47.484 17.1013 47.112 16.8453 46.632C16.5973 46.144 16.4733 45.572 16.4733 44.916C16.4733 44.292 16.5973 43.732 16.8453 43.236C17.1013 42.74 17.4493 42.348 17.8893 42.06C18.3373 41.764 18.8493 41.616 19.4253 41.616C19.7853 41.616 20.1093 41.68 20.3973 41.808C20.6933 41.928 20.9493 42.08 21.1653 42.264V41.76H22.1493V46.488C22.1493 46.792 22.2213 46.992 22.3653 47.088C22.5173 47.176 22.6813 47.22 22.8573 47.22L22.6293 48.06C21.8613 48.06 21.3973 47.748 21.2373 47.124C21.0533 47.38 20.8013 47.616 20.4813 47.832C20.1693 48.04 19.7693 48.144 19.2813 48.144ZM19.5213 47.184C19.8253 47.184 20.1133 47.112 20.3853 46.968C20.6573 46.816 20.8853 46.628 21.0693 46.404V43.056C20.8533 42.904 20.6133 42.784 20.3493 42.696C20.0933 42.6 19.8213 42.552 19.5333 42.552C19.1493 42.552 18.8093 42.652 18.5133 42.852C18.2253 43.044 17.9973 43.316 17.8293 43.668C17.6613 44.012 17.5773 44.416 17.5773 44.88C17.5773 45.328 17.6613 45.728 17.8293 46.08C17.9973 46.424 18.2293 46.696 18.5253 46.896C18.8213 47.088 19.1533 47.184 19.5213 47.184ZM24.2152 50.784C23.9752 50.784 23.7632 50.76 23.5792 50.712C23.4032 50.664 23.2632 50.608 23.1592 50.544L23.3992 49.644C23.4952 49.7 23.6152 49.748 23.7592 49.788C23.9032 49.828 24.0632 49.848 24.2392 49.848C24.5752 49.848 24.8752 49.74 25.1392 49.524C25.4032 49.308 25.6552 48.884 25.8952 48.252L26.1712 47.532H25.5952L23.1592 42.048L24.1192 41.616L26.4472 46.812L28.2592 41.664L29.2552 42.048L26.9632 48.312C26.7312 48.952 26.4792 49.452 26.2072 49.812C25.9352 50.172 25.6352 50.424 25.3072 50.568C24.9792 50.712 24.6152 50.784 24.2152 50.784ZM34.0461 48V39.6H35.1861V46.98H39.0381V48H34.0461ZM40.049 48V41.76H41.129V48H40.049ZM40.589 40.692C40.381 40.692 40.201 40.616 40.049 40.464C39.905 40.312 39.833 40.136 39.833 39.936C39.833 39.704 39.901 39.52 40.037 39.384C40.173 39.248 40.357 39.18 40.589 39.18C40.797 39.18 40.973 39.256 41.117 39.408C41.269 39.552 41.345 39.728 41.345 39.936C41.345 40.16 41.277 40.344 41.141 40.488C41.005 40.624 40.821 40.692 40.589 40.692ZM44.723 48.144C44.251 48.144 43.823 48.084 43.439 47.964C43.063 47.844 42.751 47.688 42.503 47.496L42.959 46.596C43.167 46.772 43.427 46.92 43.739 47.04C44.059 47.152 44.399 47.208 44.759 47.208C45.207 47.208 45.543 47.136 45.767 46.992C45.999 46.84 46.115 46.648 46.115 46.416C46.115 46.248 46.071 46.1 45.983 45.972C45.903 45.844 45.751 45.72 45.527 45.6C45.303 45.472 44.979 45.336 44.555 45.192C43.971 44.992 43.531 44.756 43.235 44.484C42.947 44.204 42.803 43.82 42.803 43.332C42.803 42.852 43.011 42.448 43.427 42.12C43.851 41.784 44.435 41.616 45.179 41.616C45.579 41.616 45.935 41.66 46.247 41.748C46.559 41.828 46.839 41.932 47.087 42.06L46.787 42.948C46.571 42.82 46.323 42.716 46.043 42.636C45.771 42.556 45.467 42.516 45.131 42.516C44.715 42.516 44.399 42.6 44.183 42.768C43.967 42.936 43.859 43.12 43.859 43.32C43.859 43.512 43.943 43.676 44.111 43.812C44.279 43.948 44.607 44.096 45.095 44.256C45.887 44.52 46.439 44.812 46.751 45.132C47.063 45.452 47.219 45.852 47.219 46.332C47.219 46.892 46.991 47.336 46.535 47.664C46.087 47.984 45.483 48.144 44.723 48.144ZM50.8343 48.144C50.2343 48.144 49.7583 47.948 49.4063 47.556C49.0623 47.156 48.8903 46.588 48.8903 45.852V42.924H47.8103V41.988H48.9143L49.1423 40.02H49.9703V41.988H51.6983V42.924H49.9703V45.936C49.9703 46.4 50.0663 46.724 50.2583 46.908C50.4583 47.092 50.6943 47.184 50.9663 47.184C51.1663 47.184 51.3543 47.152 51.5303 47.088C51.7143 47.024 51.8823 46.948 52.0343 46.86L52.3343 47.724C52.1743 47.82 51.9583 47.912 51.6863 48C51.4143 48.096 51.1303 48.144 50.8343 48.144Z" fill="#9B9B9B"/>
<path d="M25.5627 23.2083C25.8124 23.3503 26.1174 23.3419 26.3594 23.1865L33.9022 18.3411C34.2711 18.1062 34.3848 17.6084 34.1562 17.2293C34.0923 17.1233 34.0054 17.034 33.9022 16.9683L26.3594 12.1229C25.9914 11.8865 25.5067 12.0015 25.2767 12.3797C25.1981 12.509 25.1566 12.6585 25.1572 12.8109V22.5017C25.1573 22.7955 25.3126 23.0661 25.5627 23.2083ZM26.7287 14.2645L32.0032 17.6563L26.7287 21.048V14.2645Z" fill="#9B9B9B"/>
<path d="M46.2142 26.5396H25.7857C25.3518 26.5396 25 26.9011 25 27.3471C25 27.7932 25.3518 28.1547 25.7857 28.1547H46.2143C46.6482 28.1547 47 27.7931 47 27.3471C47 26.9011 46.6482 26.5396 46.2142 26.5396Z" fill="#9B9B9B"/>
<path d="M46.2142 31.3849H25.7857C25.3518 31.3849 25 31.7464 25 32.1925C25 32.6385 25.3518 33 25.7857 33H46.2143C46.6482 33 47 32.6384 47 32.1925C47 31.7465 46.6482 31.3849 46.2142 31.3849Z" fill="#9B9B9B"/>
<path d="M37.5709 13.6184H46.2137C46.6477 13.6184 46.9995 13.2569 46.9995 12.8109C46.9995 12.3649 46.6477 12.0033 46.2137 12.0033H37.5709C37.137 12.0033 36.7852 12.3649 36.7852 12.8109C36.7852 13.2569 37.137 13.6184 37.5709 13.6184Z" fill="#9B9B9B"/>
<path d="M46.2137 16.8488H37.5709C37.137 16.8488 36.7852 17.2103 36.7852 17.6563C36.7852 18.1023 37.137 18.4639 37.5709 18.4639H46.2137C46.6477 18.4639 46.9995 18.1024 46.9995 17.6563C46.9994 17.2103 46.6477 16.8488 46.2137 16.8488Z" fill="#9B9B9B"/>
<path d="M46.2137 21.6941H37.5709C37.137 21.6941 36.7852 22.0556 36.7852 22.5017C36.7852 22.9476 37.137 23.3092 37.5709 23.3092H46.2137C46.6477 23.3092 46.9995 22.9476 46.9995 22.5017C46.9994 22.0556 46.6477 21.6941 46.2137 21.6941Z" fill="#9B9B9B"/>
</svg>
