<svg width="72" height="66" viewBox="0 0 72 66" fill="none" xmlns="http://www.w3.org/2000/svg">
<path d="M20.08 48V39.624C20.408 39.584 20.768 39.556 21.16 39.54C21.56 39.516 21.972 39.504 22.396 39.504C23.092 39.504 23.684 39.616 24.172 39.84C24.66 40.056 25.032 40.356 25.288 40.74C25.544 41.124 25.672 41.564 25.672 42.06C25.672 42.66 25.524 43.168 25.228 43.584C24.932 44 24.52 44.32 23.992 44.544C23.464 44.76 22.852 44.868 22.156 44.868C21.82 44.868 21.508 44.856 21.22 44.832V48H20.08ZM22.3 43.92C23.012 43.92 23.564 43.76 23.956 43.44C24.348 43.12 24.544 42.692 24.544 42.156C24.544 41.636 24.356 41.224 23.98 40.92C23.604 40.616 23.068 40.464 22.372 40.464C22.156 40.464 21.952 40.468 21.76 40.476C21.568 40.484 21.388 40.496 21.22 40.512V43.86C21.348 43.876 21.504 43.892 21.688 43.908C21.872 43.916 22.076 43.92 22.3 43.92ZM26.9267 48V41.76H27.9707V43.116C28.0747 42.852 28.2147 42.608 28.3907 42.384C28.5667 42.152 28.7867 41.968 29.0507 41.832C29.3147 41.688 29.6227 41.616 29.9747 41.616C30.0947 41.616 30.2147 41.624 30.3347 41.64C30.4547 41.648 30.5547 41.664 30.6347 41.688L30.3107 42.804C30.1587 42.74 29.9787 42.708 29.7707 42.708C29.4747 42.708 29.1907 42.792 28.9187 42.96C28.6547 43.128 28.4347 43.388 28.2587 43.74C28.0907 44.092 28.0067 44.54 28.0067 45.084V48H26.9267ZM33.9783 48.144C33.3863 48.144 32.8543 48.008 32.3823 47.736C31.9103 47.456 31.5383 47.072 31.2663 46.584C31.0023 46.088 30.8703 45.52 30.8703 44.88C30.8703 44.208 31.0063 43.628 31.2783 43.14C31.5503 42.652 31.9223 42.276 32.3943 42.012C32.8663 41.748 33.3943 41.616 33.9783 41.616C34.5623 41.616 35.0863 41.748 35.5503 42.012C36.0223 42.276 36.3943 42.652 36.6663 43.14C36.9463 43.62 37.0863 44.192 37.0863 44.856C37.0863 45.52 36.9503 46.1 36.6783 46.596C36.4063 47.084 36.0343 47.464 35.5623 47.736C35.0983 48.008 34.5703 48.144 33.9783 48.144ZM33.9783 47.184C34.6103 47.184 35.1023 46.972 35.4543 46.548C35.8063 46.116 35.9823 45.56 35.9823 44.88C35.9823 44.464 35.8943 44.084 35.7183 43.74C35.5423 43.388 35.3023 43.108 34.9983 42.9C34.7023 42.684 34.3623 42.576 33.9783 42.576C33.3463 42.576 32.8543 42.784 32.5023 43.2C32.1503 43.616 31.9743 44.168 31.9743 44.856C31.9743 45.272 32.0623 45.66 32.2383 46.02C32.4143 46.372 32.6503 46.656 32.9463 46.872C33.2503 47.08 33.5943 47.184 33.9783 47.184ZM38.6362 48V42.924H37.6762V41.988H38.6362V41.256C38.6362 40.552 38.8322 39.996 39.2242 39.588C39.6162 39.18 40.1282 38.976 40.7602 38.976C41.0882 38.976 41.3762 39.016 41.6242 39.096C41.8722 39.168 42.1082 39.26 42.3322 39.372L42.0082 40.284C41.8402 40.196 41.6602 40.116 41.4682 40.044C41.2762 39.972 41.0642 39.936 40.8322 39.936C40.4962 39.936 40.2242 40.044 40.0162 40.26C39.8162 40.468 39.7162 40.776 39.7162 41.184V41.988H41.5642V42.924H39.7162V48H38.6362ZM42.6821 48V41.76H43.7621V48H42.6821ZM43.2221 40.692C43.0141 40.692 42.8341 40.616 42.6821 40.464C42.5381 40.312 42.4661 40.136 42.4661 39.936C42.4661 39.704 42.5341 39.52 42.6701 39.384C42.8061 39.248 42.9901 39.18 43.2221 39.18C43.4301 39.18 43.6061 39.256 43.7501 39.408C43.9021 39.552 43.9781 39.728 43.9781 39.936C43.9781 40.16 43.9101 40.344 43.7741 40.488C43.6381 40.624 43.4541 40.692 43.2221 40.692ZM47.5721 48.144C47.2041 48.144 46.8721 48.076 46.5761 47.94C46.2801 47.796 46.0441 47.568 45.8681 47.256C45.7001 46.944 45.6161 46.54 45.6161 46.044V39.12H46.6961V45.936C46.6961 46.368 46.7841 46.688 46.9601 46.896C47.1441 47.104 47.3961 47.208 47.7161 47.208C47.8681 47.208 48.0161 47.192 48.1601 47.16C48.3121 47.12 48.4401 47.076 48.5441 47.028L48.8081 47.904C48.6641 47.968 48.4841 48.024 48.2681 48.072C48.0601 48.12 47.8281 48.144 47.5721 48.144ZM52.1388 48.144C51.2428 48.144 50.5308 47.86 50.0028 47.292C49.4828 46.716 49.2228 45.912 49.2228 44.88C49.2228 44.256 49.3388 43.7 49.5708 43.212C49.8108 42.716 50.1428 42.328 50.5668 42.048C50.9908 41.76 51.4828 41.616 52.0428 41.616C52.6428 41.616 53.1388 41.748 53.5308 42.012C53.9308 42.268 54.2308 42.616 54.4308 43.056C54.6308 43.496 54.7308 43.98 54.7308 44.508C54.7308 44.788 54.7188 45.06 54.6948 45.324H50.3268C50.3988 45.908 50.6028 46.364 50.9388 46.692C51.2748 47.02 51.7188 47.184 52.2708 47.184C52.6308 47.184 52.9548 47.148 53.2428 47.076C53.5308 46.996 53.8068 46.896 54.0708 46.776L54.3228 47.7C54.0348 47.828 53.7108 47.932 53.3508 48.012C52.9908 48.1 52.5868 48.144 52.1388 48.144ZM50.3148 44.448H53.7348C53.7348 43.84 53.5828 43.372 53.2788 43.044C52.9748 42.716 52.5548 42.552 52.0188 42.552C51.5548 42.552 51.1708 42.716 50.8668 43.044C50.5628 43.364 50.3788 43.832 50.3148 44.448Z" fill="#E20000"/>
<path d="M41.1972 16.9737C41.1972 18.2928 40.6149 19.5579 39.5785 20.4906C38.5422 21.4234 37.1365 21.9474 35.6708 21.9474C34.2052 21.9474 32.7995 21.4234 31.7632 20.4906C30.7268 19.5579 30.1445 18.2928 30.1445 16.9737C30.1445 15.6546 30.7268 14.3895 31.7632 13.4568C32.7995 12.524 34.2052 12 35.6708 12C37.1365 12 38.5422 12.524 39.5785 13.4568C40.6149 14.3895 41.1972 15.6546 41.1972 16.9737V16.9737Z" stroke="#E20000" stroke-linecap="round" stroke-linejoin="round"/>
<path d="M35.3947 24.158C32.9031 24.158 30.5135 25.0895 28.7517 26.7478C26.9898 28.406 26 30.655 26 33.0001H44.7895C44.7895 30.655 43.7997 28.406 42.0378 26.7478C40.276 25.0895 37.8864 24.158 35.3947 24.158V24.158Z" stroke="#E20000" stroke-linecap="round" stroke-linejoin="round"/>
</svg>
