<svg width="72" height="66" viewBox="0 0 72 66" fill="none" xmlns="http://www.w3.org/2000/svg">
<path d="M25.7574 13.8015C25.2002 14.3727 24.7583 15.0507 24.4567 15.797C24.1552 16.5432 24 17.343 24 18.1508C24 18.9585 24.1552 19.7583 24.4567 20.5046C24.7583 21.2508 25.2002 21.9289 25.7574 22.5L36 33L46.2426 22.5C47.3679 21.3465 48 19.7821 48 18.1508C48 16.5195 47.3679 14.955 46.2426 13.8015C45.1174 12.648 43.5913 12 42 12C40.4087 12 38.8826 12.648 37.7573 13.8015L36 15.603L34.2427 13.8015C33.6855 13.2304 33.0241 12.7773 32.2961 12.4682C31.5682 12.1591 30.788 12 30 12C29.2121 12 28.4319 12.1591 27.7039 12.4682C26.976 12.7773 26.3145 13.2304 25.7574 13.8015V13.8015Z" stroke="#E20000" stroke-linecap="round" stroke-linejoin="round"/>
<path d="M17.964 41.364C18.108 41.22 18.18 41.04 18.18 40.824C18.18 40.38 17.868 40.068 17.424 40.068C16.992 40.068 16.656 40.392 16.656 40.824C16.608 41.496 17.532 41.856 17.964 41.364ZM19.392 41.592C19.812 41.592 20.136 41.256 20.136 40.824C20.136 40.38 19.812 40.068 19.392 40.068C18.924 40.068 18.612 40.38 18.612 40.824C18.612 41.256 18.948 41.592 19.392 41.592ZM21.744 46.728C20.94 46.728 20.7 46.488 20.7 45.684V42.984H18.42C17.436 42.984 16.68 43.224 16.152 43.716C15.612 44.208 15.348 44.82 15.348 45.552C15.348 46.284 15.6 46.848 16.116 47.244C16.62 47.64 17.256 47.844 18.036 47.844C18.624 47.844 19.164 47.724 19.668 47.484C19.992 47.832 20.676 48 21.744 48C21.9 48 21.984 47.796 21.984 47.4C21.984 46.956 21.9 46.728 21.744 46.728ZM19.212 46.332C18.972 46.464 18.648 46.524 18.228 46.524C17.256 46.524 16.776 46.164 16.776 45.432C16.776 44.676 17.34 44.256 18.204 44.256H19.212V46.332ZM25.6083 46.728C24.7563 46.728 24.3243 46.32 24.3243 45.516V38.928H22.9083V45.324C22.9083 46.416 22.6803 46.728 21.7323 46.728V48C22.7643 48 23.4723 47.76 23.8563 47.292C24.1923 47.76 24.7803 48 25.6083 48C25.7643 48 25.8483 47.796 25.8483 47.4C25.8483 46.956 25.7643 46.728 25.6083 46.728ZM32.8772 41.244C33.1532 40.956 33.1532 40.428 32.8772 40.14C32.4572 39.696 31.4972 40.008 31.5692 40.692C31.4972 41.364 32.4572 41.712 32.8772 41.244ZM36.2372 46.728C36.2732 46.476 36.2852 46.212 36.2852 45.936C36.2852 44.028 35.2892 42.852 33.4772 42.852C32.8172 42.852 32.1812 43.008 31.3052 43.512C30.4292 44.016 29.4572 45.132 28.6412 46.716C28.2212 46.656 28.0052 46.392 28.0052 45.924V43.86H26.5892V45.48C26.5892 46.488 26.3852 46.728 25.6052 46.728V48C26.5052 48 27.1172 47.856 27.4532 47.556C27.8372 47.856 28.3772 48 29.0852 48H37.2332C37.3892 48 37.4732 47.796 37.4732 47.4C37.4732 46.956 37.3892 46.728 37.2332 46.728H36.2372ZM30.2252 46.728C31.1372 45.06 32.2532 44.16 33.2972 44.16C34.3172 44.16 34.8812 44.892 34.8812 46.044C34.8812 46.26 34.8572 46.488 34.8092 46.728H30.2252ZM41.3642 41.244C41.6402 40.956 41.6402 40.428 41.3642 40.14C40.9442 39.696 39.9842 40.008 40.0562 40.692C39.9842 41.364 40.9442 41.712 41.3642 41.244ZM43.0202 46.728H42.8762C43.2842 46.272 43.4882 45.756 43.4882 45.168C43.4882 44.52 43.2482 43.968 42.7802 43.524C42.3002 43.08 41.6522 42.852 40.8242 42.852C39.9842 42.852 39.3242 43.08 38.8322 43.536C38.3402 43.992 38.0882 44.544 38.0882 45.204C38.0882 45.804 38.2922 46.308 38.6882 46.728H38.5322H37.2242V48H38.6522C39.3842 48 40.0802 47.94 40.7522 47.808C41.3762 47.94 42.1082 48 42.9362 48H44.2802C44.4362 48 44.5202 47.796 44.5202 47.4C44.5202 46.956 44.4362 46.728 44.2802 46.728H43.0202ZM40.7762 46.62C40.4762 46.548 40.1882 46.38 39.9242 46.128C39.6482 45.876 39.5162 45.576 39.5162 45.24C39.5162 44.604 40.0442 44.16 40.8002 44.16C41.5682 44.16 42.0722 44.616 42.0722 45.24C42.0722 45.588 41.9282 45.9 41.6522 46.164C41.3642 46.428 41.0762 46.584 40.7762 46.62ZM50.3689 46.728C50.4049 46.512 50.4289 46.308 50.4289 46.116C50.4289 45.336 50.2009 44.688 49.7569 44.184C49.3129 43.68 48.6769 43.428 47.8609 43.428C47.0329 43.428 46.3489 43.68 45.8209 44.184C45.2929 44.7 45.0289 45.348 45.0289 46.152C45.0289 46.296 45.0409 46.488 45.0769 46.728H44.2729V48H45.6529C45.8569 48.276 46.1209 48.54 46.4449 48.768H47.4529C48.4249 48.768 49.1689 48.516 49.6969 48H51.1969C51.3529 48 51.4369 47.796 51.4369 47.4C51.4369 46.956 51.3529 46.728 51.1969 46.728H50.3689ZM46.8889 47.496C46.5889 47.1 46.4449 46.668 46.4449 46.188C46.4449 45.288 46.9609 44.736 47.7769 44.736C48.5569 44.736 49.0129 45.288 49.0129 46.056C49.0129 46.884 48.5449 47.496 47.5489 47.496H46.8889ZM51.1927 48C52.9807 48 53.7847 47.364 53.7847 45.624V38.928H52.3687V45.324C52.3687 46.416 52.1407 46.728 51.1927 46.728V48ZM56.7814 48V38.928H55.3654V48H56.7814Z" fill="#E20000"/>
</svg>
