<svg width="72" height="66" viewBox="0 0 72 66" fill="none" xmlns="http://www.w3.org/2000/svg">
<path d="M26.908 46.728C26.428 46.728 26.032 46.692 25.732 46.62L24.112 46.236L23.764 47.328L25.396 47.76C26.152 47.964 26.536 48.276 26.536 48.72C26.536 49.308 25.528 49.74 23.704 49.74C21.508 49.74 20.692 49.236 20.692 47.988C20.692 47.748 20.74 47.388 20.848 46.896L19.576 46.548C19.372 47.184 19.264 47.724 19.264 48.192C19.264 50.016 20.668 51.12 23.596 51.12C24.94 51.12 26.008 50.916 26.788 50.508C27.568 50.1 27.952 49.596 27.952 48.996C27.952 48.6 27.82 48.264 27.556 48H28.24C28.396 48 28.48 47.796 28.48 47.4C28.48 46.956 28.396 46.728 28.24 46.728H26.908ZM22.588 52.092C22.156 52.092 21.82 52.428 21.82 52.872C21.82 53.304 22.156 53.628 22.588 53.628C23.032 53.628 23.344 53.304 23.344 52.872C23.344 52.428 23.032 52.092 22.588 52.092ZM24.556 52.092C24.112 52.092 23.776 52.428 23.776 52.872C23.776 53.304 24.112 53.628 24.556 53.628C24.976 53.628 25.3 53.304 25.3 52.872C25.3 52.428 24.976 52.092 24.556 52.092ZM28.2284 48C30.0524 48 30.8564 47.34 30.8564 45.516V42.984H29.4404V45.324C29.4404 46.416 29.1524 46.728 28.2284 46.728V48ZM30.2204 50.292C30.3524 50.148 30.4244 49.968 30.4244 49.752C30.4244 49.308 30.1244 48.972 29.6804 48.972C29.2364 48.972 28.9124 49.308 28.9124 49.752C28.8404 50.412 29.8004 50.76 30.2204 50.292ZM34.8893 48C35.0453 48 35.1293 47.796 35.1293 47.4C35.1293 46.956 35.0453 46.728 34.8893 46.728C34.0133 46.728 33.6413 46.428 33.6413 45.72V38.928H32.2253V45.756C32.2253 47.304 32.9693 48 34.8893 48ZM45.5763 46.728C44.7243 46.728 44.2923 46.32 44.2923 45.516V42.984H42.8763V45.504C42.8763 46.38 42.6603 46.728 41.8923 46.728C41.2563 46.728 40.9323 46.464 40.9323 45.924V43.86H39.5163V45.54C39.5163 46.416 39.2523 46.728 38.5203 46.728C37.8963 46.728 37.5843 46.464 37.5843 45.924V43.86H36.1683V45.54C36.1683 46.416 35.9043 46.728 35.1483 46.728H34.8843V48H35.1483C36.0003 48 36.6243 47.808 36.9963 47.436C37.3323 47.808 37.8963 48 38.7003 48C39.4323 48 40.0083 47.82 40.4283 47.448C40.8243 47.82 41.3643 48 42.0483 48C42.8283 48 43.4283 47.76 43.8243 47.292C44.1603 47.76 44.7483 48 45.5763 48C45.7323 48 45.8163 47.796 45.8163 47.4C45.8163 46.956 45.7323 46.728 45.5763 46.728ZM50.5218 48C50.7258 46.98 50.7858 46.092 50.7018 45.336C50.5098 43.812 49.4178 42.852 47.5098 42.852C46.9218 42.852 46.3698 42.948 45.8658 43.128L46.1778 44.328C46.6218 44.22 47.0298 44.16 47.3898 44.16C49.2618 44.16 49.4658 45.672 49.2858 46.728H45.5658V48H50.5218Z" fill="#E20000"/>
<path d="M41.1974 16.9737C41.1974 18.2928 40.6152 19.5579 39.5788 20.4906C38.5424 21.4234 37.1368 21.9474 35.6711 21.9474C34.2054 21.9474 32.7998 21.4234 31.7634 20.4906C30.727 19.5579 30.1448 18.2928 30.1448 16.9737C30.1448 15.6546 30.727 14.3895 31.7634 13.4568C32.7998 12.524 34.2054 12 35.6711 12C37.1368 12 38.5424 12.524 39.5788 13.4568C40.6152 14.3895 41.1974 15.6546 41.1974 16.9737V16.9737Z" stroke="#E20000" stroke-linecap="round" stroke-linejoin="round"/>
<path d="M35.3947 24.158C32.9031 24.158 30.5135 25.0895 28.7517 26.7478C26.9898 28.406 26 30.655 26 33.0001H44.7895C44.7895 30.655 43.7997 28.406 42.0378 26.7478C40.276 25.0895 37.8864 24.158 35.3947 24.158V24.158Z" stroke="#E20000" stroke-linecap="round" stroke-linejoin="round"/>
</svg>
