<svg width="72" height="66" viewBox="0 0 72 66" fill="none" xmlns="http://www.w3.org/2000/svg">
<path d="M21.964 41.3611C22.108 41.2171 22.18 41.0371 22.18 40.8211C22.18 40.3771 21.868 40.0651 21.424 40.0651C20.992 40.0651 20.656 40.3891 20.656 40.8211C20.608 41.4931 21.532 41.8531 21.964 41.3611ZM23.392 41.5891C23.812 41.5891 24.136 41.2531 24.136 40.8211C24.136 40.3771 23.812 40.0651 23.392 40.0651C22.924 40.0651 22.612 40.3771 22.612 40.8211C22.612 41.2531 22.948 41.5891 23.392 41.5891ZM25.744 46.7251C24.94 46.7251 24.7 46.4851 24.7 45.6811V42.9811H22.42C21.436 42.9811 20.68 43.2211 20.152 43.7131C19.612 44.2051 19.348 44.8171 19.348 45.5491C19.348 46.2811 19.6 46.8451 20.116 47.2411C20.62 47.6371 21.256 47.8411 22.036 47.8411C22.624 47.8411 23.164 47.7211 23.668 47.4811C23.992 47.8291 24.676 47.9971 25.744 47.9971C25.9 47.9971 25.984 47.7931 25.984 47.3971C25.984 46.9531 25.9 46.7251 25.744 46.7251ZM23.212 46.3291C22.972 46.4611 22.648 46.5211 22.228 46.5211C21.256 46.5211 20.776 46.1611 20.776 45.4291C20.776 44.6731 21.34 44.2531 22.204 44.2531H23.212V46.3291ZM29.6443 46.7251C28.7923 46.7251 28.3603 46.3171 28.3603 45.5131V42.9811H26.9443V45.3211C26.9443 46.4131 26.6563 46.7251 25.7323 46.7251V47.9971C26.7763 47.9971 27.4843 47.7571 27.8803 47.2771C28.2043 47.7571 28.7923 47.9971 29.6443 47.9971C29.8003 47.9971 29.8843 47.7931 29.8843 47.3971C29.8843 46.9531 29.8003 46.7251 29.6443 46.7251ZM26.9563 49.1971C26.8123 49.3411 26.7403 49.5211 26.7403 49.7491C26.7403 50.1811 27.0643 50.5051 27.5083 50.5051C27.9523 50.5051 28.2523 50.1811 28.2523 49.7491C28.3243 49.0531 27.4123 48.7051 26.9563 49.1971ZM31.2363 41.3611C31.3803 41.2171 31.4523 41.0371 31.4523 40.8211C31.4523 40.3771 31.1403 40.0651 30.6963 40.0651C30.2643 40.0651 29.9283 40.3891 29.9283 40.8211C29.8803 41.4931 30.8043 41.8531 31.2363 41.3611ZM32.6643 41.5891C33.0843 41.5891 33.4083 41.2531 33.4083 40.8211C33.4083 40.3771 33.0843 40.0651 32.6643 40.0651C32.1963 40.0651 31.8843 40.3771 31.8843 40.8211C31.8843 41.2531 32.2203 41.5891 32.6643 41.5891ZM33.8163 46.7251C32.9643 46.7251 32.5323 46.3171 32.5323 45.5131V42.9811H31.1163V45.3211C31.1163 46.3891 30.8403 46.7251 29.8803 46.7251H29.6403V47.9971H29.8923C30.9363 47.9971 31.6563 47.7571 32.0523 47.2771C32.3763 47.7571 32.9643 47.9971 33.8163 47.9971C33.9723 47.9971 34.0563 47.7931 34.0563 47.3971C34.0563 46.9531 33.9723 46.7251 33.8163 46.7251ZM38.9302 46.7251C38.9182 45.7651 38.7742 45.1171 38.3182 44.3971C37.8622 43.6891 36.9502 43.1371 35.6062 42.7171L38.4862 39.9331L37.5742 38.9971L34.1782 42.2731V43.6051C35.4622 43.9051 36.3382 44.2891 36.8182 44.7451C37.2862 45.2011 37.5262 45.8251 37.5262 46.6051V46.7251H33.8062V47.9971H40.0222C40.1782 47.9971 40.2622 47.7931 40.2622 47.3971C40.2622 46.9531 40.1782 46.7251 40.0222 46.7251H38.9302ZM46.1072 46.7251C46.1432 46.5091 46.1672 46.3051 46.1672 46.1131C46.1672 45.3331 45.9392 44.6851 45.4952 44.1811C45.0512 43.6771 44.4152 43.4251 43.5992 43.4251C42.7712 43.4251 42.0872 43.6771 41.5592 44.1811C41.0312 44.6971 40.7672 45.3451 40.7672 46.1491C40.7672 46.2931 40.7792 46.4851 40.8152 46.7251H40.0112V47.9971H41.3912C41.5952 48.2731 41.8592 48.5371 42.1832 48.7651H43.1912C44.1632 48.7651 44.9072 48.5131 45.4352 47.9971H46.9352C47.0912 47.9971 47.1752 47.7931 47.1752 47.3971C47.1752 46.9531 47.0912 46.7251 46.9352 46.7251H46.1072ZM42.6272 47.4931C42.3272 47.0971 42.1832 46.6651 42.1832 46.1851C42.1832 45.2851 42.6992 44.7331 43.5152 44.7331C44.2952 44.7331 44.7512 45.2851 44.7512 46.0531C44.7512 46.8811 44.2832 47.4931 43.2872 47.4931H42.6272ZM46.9309 47.9971C48.7189 47.9971 49.5229 47.3611 49.5229 45.6211V38.9251H48.1069V45.3211C48.1069 46.4131 47.8789 46.7251 46.9309 46.7251V47.9971ZM52.5197 47.9971V38.9251H51.1037V47.9971H52.5197Z" fill="#E20000"/>
<path fill-rule="evenodd" clip-rule="evenodd" d="M27.1667 14.3335C26.5223 14.3335 26 14.8559 26 15.5003V31.8363C26 32.4807 26.5223 33.0031 27.1667 33.0031H43.5C44.1444 33.0031 44.6667 32.4807 44.6667 31.8363H27.1667V14.3335Z" fill="#E20000"/>
<path fill-rule="evenodd" clip-rule="evenodd" d="M45.8333 13.1669H29.5V29.5028H45.8333V13.1669ZM29.5 12C28.8557 12 28.3333 12.5224 28.3333 13.1669V29.5028C28.3333 30.1473 28.8557 30.6697 29.5 30.6697H45.8333C46.4777 30.6697 47 30.1473 47 29.5028V13.1669C47 12.5224 46.4777 12 45.8333 12H29.5Z" fill="#E20000"/>
<path fill-rule="evenodd" clip-rule="evenodd" d="M34.1666 16.6675V26.0023L41.75 21.3349L34.1666 16.6675ZM35.3333 18.7556V23.9141L39.524 21.3349L35.3333 18.7556Z" fill="#E20000"/>
</svg>
