<svg width="72" height="66" viewBox="0 0 72 66" fill="none" xmlns="http://www.w3.org/2000/svg">
<path d="M25 22.5L27.3333 20.1667M27.3333 20.1667L35.5 12L43.6667 20.1667M27.3333 20.1667V31.8333C27.3333 32.1428 27.4562 32.4395 27.675 32.6583C27.8938 32.8771 28.1906 33 28.5 33H32C32.3094 33 32.6062 32.8771 32.825 32.6583C33.0437 32.4395 33.1667 32.1428 33.1667 31.8333V27.1667C33.1667 26.8572 33.2896 26.5605 33.5084 26.3417C33.7272 26.1229 34.0239 26 34.3333 26H36.6667C36.9761 26 37.2728 26.1229 37.4916 26.3417C37.7104 26.5605 37.8333 26.8572 37.8333 27.1667V31.8333C37.8333 32.1428 37.9562 32.4395 38.175 32.6583C38.3938 32.8771 38.6906 33 39 33H42.5C42.8094 33 43.1062 32.8771 43.325 32.6583C43.5438 32.4395 43.6667 32.1428 43.6667 31.8333V20.1667M43.6667 20.1667L46 22.5" stroke="#E20000" stroke-linecap="round" stroke-linejoin="round"/>
<path d="M18.964 41.364C19.108 41.22 19.18 41.04 19.18 40.824C19.18 40.38 18.868 40.068 18.424 40.068C17.992 40.068 17.656 40.392 17.656 40.824C17.608 41.496 18.532 41.856 18.964 41.364ZM20.392 41.592C20.812 41.592 21.136 41.256 21.136 40.824C21.136 40.38 20.812 40.068 20.392 40.068C19.924 40.068 19.612 40.38 19.612 40.824C19.612 41.256 19.948 41.592 20.392 41.592ZM22.744 46.728C21.94 46.728 21.7 46.488 21.7 45.684V42.984H19.42C18.436 42.984 17.68 43.224 17.152 43.716C16.612 44.208 16.348 44.82 16.348 45.552C16.348 46.284 16.6 46.848 17.116 47.244C17.62 47.64 18.256 47.844 19.036 47.844C19.624 47.844 20.164 47.724 20.668 47.484C20.992 47.832 21.676 48 22.744 48C22.9 48 22.984 47.796 22.984 47.4C22.984 46.956 22.9 46.728 22.744 46.728ZM20.212 46.332C19.972 46.464 19.648 46.524 19.228 46.524C18.256 46.524 17.776 46.164 17.776 45.432C17.776 44.676 18.34 44.256 19.204 44.256H20.212V46.332ZM26.9083 46.728C26.0563 46.728 25.6243 46.32 25.6243 45.516V42.984H24.2083V45.324C24.2083 46.392 23.9323 46.728 22.9723 46.728H22.7323V48H22.9843C24.0283 48 24.7483 47.76 25.1443 47.28C25.4683 47.76 26.0563 48 26.9083 48C27.0643 48 27.1483 47.796 27.1483 47.4C27.1483 46.956 27.0643 46.728 26.9083 46.728ZM23.7283 48.972C23.2963 48.972 22.9603 49.308 22.9603 49.752C22.9603 50.184 23.2963 50.508 23.7283 50.508C24.1723 50.508 24.4843 50.184 24.4843 49.752C24.4843 49.308 24.1723 48.972 23.7283 48.972ZM25.6963 48.972C25.2523 48.972 24.9163 49.308 24.9163 49.752C24.9163 50.184 25.2523 50.508 25.6963 50.508C26.1163 50.508 26.4403 50.184 26.4403 49.752C26.4403 49.308 26.1163 48.972 25.6963 48.972ZM37.5902 46.728C36.7382 46.728 36.3062 46.32 36.3062 45.516V42.984H34.8902V45.504C34.8902 46.38 34.6742 46.728 33.9062 46.728C33.2702 46.728 32.9462 46.464 32.9462 45.924V43.86H31.5302V45.54C31.5302 46.416 31.2662 46.728 30.5342 46.728C29.9102 46.728 29.5982 46.464 29.5982 45.924V43.86H28.1822V45.54C28.1822 46.416 27.9182 46.728 27.1622 46.728H26.8982V48H27.1622C28.0142 48 28.6382 47.808 29.0102 47.436C29.3462 47.808 29.9102 48 30.7142 48C31.4462 48 32.0222 47.82 32.4422 47.448C32.8382 47.82 33.3782 48 34.0622 48C34.8422 48 35.4422 47.76 35.8382 47.292C36.1742 47.76 36.7622 48 37.5902 48C37.7462 48 37.8302 47.796 37.8302 47.4C37.8302 46.956 37.7462 46.728 37.5902 46.728ZM41.7557 46.728C40.9037 46.728 40.4717 46.32 40.4717 45.516V42.984H39.0557V45.324C39.0557 46.392 38.7797 46.728 37.8197 46.728H37.5797V48H37.8317C38.8757 48 39.5957 47.76 39.9917 47.28C40.3157 47.76 40.9037 48 41.7557 48C41.9117 48 41.9957 47.796 41.9957 47.4C41.9957 46.956 41.9117 46.728 41.7557 46.728ZM38.5757 48.972C38.1437 48.972 37.8077 49.308 37.8077 49.752C37.8077 50.184 38.1437 50.508 38.5757 50.508C39.0197 50.508 39.3317 50.184 39.3317 49.752C39.3317 49.308 39.0197 48.972 38.5757 48.972ZM40.5437 48.972C40.0997 48.972 39.7637 49.308 39.7637 49.752C39.7637 50.184 40.0997 50.508 40.5437 50.508C40.9637 50.508 41.2877 50.184 41.2877 49.752C41.2877 49.308 40.9637 48.972 40.5437 48.972ZM43.7855 40.716C43.6775 40.536 43.6175 40.368 43.6175 40.212C43.6175 39.66 44.3015 39.636 44.7575 39.756L44.9135 38.94C44.6135 38.88 44.3495 38.844 44.1215 38.844C43.2935 38.844 42.7415 39.324 42.7415 40.032C42.7415 40.272 42.8015 40.5 42.9215 40.716H42.4175V41.556H45.0575V40.716H43.7855ZM43.2215 45.324C43.2215 46.392 42.9455 46.728 41.9855 46.728H41.7455V48H41.9975C43.8575 48 44.6375 47.328 44.6375 45.516V42.984H43.2215V45.324ZM48.2761 46.728V42.984H46.8601V47.448C46.8601 48.444 46.4401 48.816 45.3241 48.972L45.5401 50.196C47.1001 50.088 47.9881 49.356 48.2161 48H49.5001C49.6561 48 49.7401 47.796 49.7401 47.4C49.7401 46.956 49.6561 46.728 49.5001 46.728H48.2761ZM49.4913 48C51.2793 48 52.0833 47.364 52.0833 45.624V38.928H50.6673V45.324C50.6673 46.416 50.4393 46.728 49.4913 46.728V48ZM55.0801 48V38.928H53.6641V48H55.0801Z" fill="#E20000"/>
</svg>
