<svg width="72" height="66" viewBox="0 0 72 66" fill="none" xmlns="http://www.w3.org/2000/svg">
<path d="M26.848 47.244C26.38 47.244 25.984 47.208 25.684 47.136L24.064 46.752L23.872 47.424L25.276 47.772C26.272 48.024 26.764 48.468 26.764 48.96C26.764 49.764 25.516 50.352 23.536 50.352C21.28 50.352 20.332 49.68 20.332 48.276C20.332 47.964 20.404 47.544 20.536 47.016L19.804 46.824C19.624 47.4 19.528 47.916 19.528 48.372C19.528 50.136 20.812 51.12 23.488 51.12C24.712 51.12 25.696 50.916 26.452 50.508C27.196 50.088 27.568 49.584 27.568 48.996C27.568 48.576 27.4 48.24 27.052 48H28.18C28.336 48 28.42 47.88 28.42 47.628C28.42 47.376 28.336 47.244 28.18 47.244H26.848ZM22.264 52.344C22.06 52.536 22.06 52.896 22.264 53.1C22.456 53.292 22.816 53.292 23.008 53.1C23.2 52.896 23.2 52.536 23.008 52.344C22.816 52.14 22.456 52.14 22.264 52.344ZM23.884 52.344C23.68 52.536 23.68 52.896 23.884 53.1C24.076 53.292 24.436 53.292 24.628 53.1C24.82 52.896 24.82 52.536 24.628 52.344C24.436 52.14 24.076 52.14 23.884 52.344ZM28.1698 48C29.7058 48 30.4738 47.304 30.4738 45.72V43.164H29.6818V45.6C29.6818 46.788 29.2378 47.244 28.1698 47.244V48ZM29.6098 50.124C29.9098 50.124 30.1258 49.896 30.1258 49.596C30.1258 49.272 29.9098 49.068 29.6098 49.068C29.2858 49.068 29.0698 49.272 29.0698 49.596C29.0698 49.896 29.2858 50.124 29.6098 50.124ZM34.5355 48C34.6915 48 34.7755 47.88 34.7755 47.628C34.7755 47.376 34.6915 47.244 34.5355 47.244C33.4555 47.244 32.9155 46.8 32.9155 45.9V38.928H32.1235V45.948C32.1235 47.328 32.8675 48 34.5355 48ZM45.2488 47.244C44.1808 47.244 43.6408 46.752 43.6408 45.78V43.164H42.8488V45.6C42.8488 46.764 42.4768 47.244 41.5528 47.244C40.6888 47.244 40.2568 46.86 40.2568 46.08V44.04H39.4648V45.672C39.4648 46.824 39.0208 47.244 38.1448 47.244C37.3168 47.244 36.9088 46.86 36.9088 46.092V44.04H36.1168V45.672C36.1168 46.86 35.6608 47.244 34.7008 47.244H34.5328V48H34.6888C35.5648 48 36.2488 47.688 36.5488 47.22C36.8008 47.736 37.3288 48 38.1568 48C39.0088 48 39.5848 47.724 39.9088 47.16C40.2088 47.724 40.7608 48 41.5648 48C42.3928 48 42.9928 47.712 43.3408 47.136C43.6768 47.712 44.3128 48 45.2488 48C45.4048 48 45.4888 47.88 45.4888 47.628C45.4888 47.376 45.4048 47.244 45.2488 47.244ZM50.0977 48C50.8537 45.12 49.9777 43.032 47.3017 43.032C46.7497 43.032 46.1977 43.128 45.6457 43.32L45.8377 44.04C46.3177 43.884 46.7617 43.812 47.1817 43.812C49.5097 43.812 49.7977 45.912 49.4497 47.244H45.2377V48H50.0977Z" fill="#9B9B9B"/>
<path d="M41.1974 16.9737C41.1974 18.2928 40.6151 19.5579 39.5788 20.4906C38.5424 21.4234 37.1367 21.9474 35.6711 21.9474C34.2054 21.9474 32.7998 21.4234 31.7634 20.4906C30.727 19.5579 30.1447 18.2928 30.1447 16.9737C30.1447 15.6546 30.727 14.3895 31.7634 13.4568C32.7998 12.524 34.2054 12 35.6711 12C37.1367 12 38.5424 12.524 39.5788 13.4568C40.6151 14.3895 41.1974 15.6546 41.1974 16.9737V16.9737Z" stroke="#9B9B9B" stroke-linecap="round" stroke-linejoin="round"/>
<path d="M35.3947 24.1577C32.9031 24.1577 30.5135 25.0893 28.7517 26.7475C26.9898 28.4057 26 30.6547 26 32.9998H44.7895C44.7895 30.6547 43.7997 28.4057 42.0378 26.7475C40.276 25.0893 37.8864 24.1577 35.3947 24.1577V24.1577Z" stroke="#9B9B9B" stroke-linecap="round" stroke-linejoin="round"/>
</svg>
