<svg width="72" height="66" viewBox="0 0 72 66" fill="none" xmlns="http://www.w3.org/2000/svg">
<path d="M25 22.5L27.3333 20.1667M27.3333 20.1667L35.5 12L43.6667 20.1667M27.3333 20.1667V31.8333C27.3333 32.1428 27.4562 32.4395 27.675 32.6583C27.8938 32.8771 28.1906 33 28.5 33H32C32.3094 33 32.6062 32.8771 32.825 32.6583C33.0437 32.4395 33.1667 32.1428 33.1667 31.8333V27.1667C33.1667 26.8572 33.2896 26.5605 33.5084 26.3417C33.7272 26.1229 34.0239 26 34.3333 26H36.6667C36.9761 26 37.2728 26.1229 37.4916 26.3417C37.7104 26.5605 37.8333 26.8572 37.8333 27.1667V31.8333C37.8333 32.1428 37.9562 32.4395 38.175 32.6583C38.3938 32.8771 38.6906 33 39 33H42.5C42.8094 33 43.1062 32.8771 43.325 32.6583C43.5438 32.4395 43.6667 32.1428 43.6667 31.8333V20.1667M43.6667 20.1667L46 22.5" stroke="#9B9B9B" stroke-linecap="round" stroke-linejoin="round"/>
<path d="M18.808 41.592C19 41.4 19 41.04 18.808 40.836C18.616 40.644 18.256 40.644 18.064 40.836C17.86 41.04 17.86 41.4 18.064 41.592C18.256 41.796 18.616 41.796 18.808 41.592ZM20.428 41.592C20.62 41.4 20.62 41.04 20.428 40.836C20.236 40.644 19.876 40.644 19.684 40.836C19.48 41.04 19.48 41.4 19.684 41.592C19.876 41.796 20.236 41.796 20.428 41.592ZM22.612 47.244C21.556 47.244 21.22 46.992 21.22 46.092V43.164H19.264C17.536 43.164 16.48 44.124 16.48 45.612C16.48 46.944 17.428 47.724 18.928 47.724C19.492 47.724 20.056 47.592 20.596 47.328C20.824 47.772 21.496 48 22.612 48C22.768 48 22.852 47.88 22.852 47.628C22.852 47.376 22.768 47.244 22.612 47.244ZM20.38 46.62C19.984 46.836 19.528 46.944 18.988 46.944C17.896 46.944 17.296 46.452 17.296 45.528C17.296 44.472 18.004 43.92 19.12 43.92H20.38V46.62ZM26.5034 47.244C25.4354 47.244 24.8954 46.752 24.8954 45.78V45.72V43.164H24.1034V45.6C24.1034 46.764 23.6834 47.244 22.6754 47.244H22.6034V48H22.6634C23.5874 48 24.2354 47.7 24.5834 47.112C24.9074 47.7 25.5554 48 26.5034 48C26.6594 48 26.7434 47.88 26.7434 47.628C26.7434 47.376 26.6594 47.244 26.5034 47.244ZM23.1674 49.224C22.9634 49.416 22.9634 49.776 23.1674 49.98C23.3594 50.172 23.7194 50.172 23.9114 49.98C24.1034 49.776 24.1034 49.416 23.9114 49.224C23.7194 49.02 23.3594 49.02 23.1674 49.224ZM24.7874 49.224C24.5834 49.416 24.5834 49.776 24.7874 49.98C24.9794 50.172 25.3394 50.172 25.5314 49.98C25.7234 49.776 25.7234 49.416 25.5314 49.224C25.3394 49.02 24.9794 49.02 24.7874 49.224ZM37.2157 47.244C36.1477 47.244 35.6077 46.752 35.6077 45.78V43.164H34.8157V45.6C34.8157 46.764 34.4437 47.244 33.5197 47.244C32.6557 47.244 32.2237 46.86 32.2237 46.08V44.04H31.4317V45.672C31.4317 46.824 30.9877 47.244 30.1117 47.244C29.2837 47.244 28.8757 46.86 28.8757 46.092V44.04H28.0837V45.672C28.0837 46.86 27.6277 47.244 26.6677 47.244H26.4997V48H26.6557C27.5317 48 28.2157 47.688 28.5157 47.22C28.7677 47.736 29.2957 48 30.1237 48C30.9757 48 31.5517 47.724 31.8757 47.16C32.1757 47.724 32.7277 48 33.5317 48C34.3597 48 34.9597 47.712 35.3077 47.136C35.6437 47.712 36.2797 48 37.2157 48C37.3717 48 37.4557 47.88 37.4557 47.628C37.4557 47.376 37.3717 47.244 37.2157 47.244ZM41.1047 47.244C40.0367 47.244 39.4967 46.752 39.4967 45.78V45.72V43.164H38.7047V45.6C38.7047 46.764 38.2847 47.244 37.2767 47.244H37.2047V48H37.2647C38.1887 48 38.8367 47.7 39.1847 47.112C39.5087 47.7 40.1567 48 41.1047 48C41.2607 48 41.3447 47.88 41.3447 47.628C41.3447 47.376 41.2607 47.244 41.1047 47.244ZM37.7687 49.224C37.5647 49.416 37.5647 49.776 37.7687 49.98C37.9607 50.172 38.3207 50.172 38.5127 49.98C38.7047 49.776 38.7047 49.416 38.5127 49.224C38.3207 49.02 37.9607 49.02 37.7687 49.224ZM39.3887 49.224C39.1847 49.416 39.1847 49.776 39.3887 49.98C39.5807 50.172 39.9407 50.172 40.1327 49.98C40.3247 49.776 40.3247 49.416 40.1327 49.224C39.9407 49.02 39.5807 49.02 39.3887 49.224ZM42.805 41.124C42.649 40.848 42.565 40.608 42.565 40.404C42.565 39.936 42.925 39.72 43.369 39.72C43.477 39.72 43.657 39.744 43.909 39.78L44.005 39.276C43.741 39.216 43.489 39.192 43.261 39.192C42.529 39.192 42.025 39.624 42.025 40.308C42.025 40.584 42.109 40.848 42.265 41.124H41.677V41.64H44.149V41.124H42.805ZM42.601 45.6C42.601 46.764 42.181 47.244 41.173 47.244H41.101V48H41.161C42.649 48 43.393 47.244 43.393 45.72V43.164H42.601V45.6ZM46.7439 47.244V47.028V43.164H45.9519V47.196C45.9519 48.54 45.4239 49.128 44.1759 49.332L44.3319 50.064C45.6399 49.884 46.4199 49.188 46.6599 47.976V48H48.3159C48.4719 48 48.5559 47.88 48.5559 47.628C48.5559 47.376 48.4719 47.244 48.3159 47.244H46.7439ZM48.3078 48C49.8078 48 50.5518 47.304 50.5518 45.924V38.928H49.7598V45.6C49.7598 46.812 49.4118 47.244 48.3078 47.244V48ZM53.2293 48V38.928H52.4373V48H53.2293Z" fill="#9B9B9B"/>
</svg>
