<svg width="72" height="66" viewBox="0 0 72 66" fill="none" xmlns="http://www.w3.org/2000/svg">
<path d="M25.7574 13.8015C25.2002 14.3727 24.7583 15.0507 24.4567 15.797C24.1552 16.5432 24 17.343 24 18.1508C24 18.9585 24.1552 19.7583 24.4567 20.5046C24.7583 21.2508 25.2002 21.9289 25.7574 22.5L36 33L46.2426 22.5C47.3679 21.3465 48 19.7821 48 18.1508C48 16.5195 47.3679 14.955 46.2426 13.8015C45.1174 12.648 43.5913 12 42 12C40.4087 12 38.8826 12.648 37.7573 13.8015L36 15.603L34.2427 13.8015C33.6855 13.2304 33.0241 12.7773 32.2961 12.4682C31.5682 12.1591 30.788 12 30 12C29.2121 12 28.4319 12.1591 27.7039 12.4682C26.976 12.7773 26.3145 13.2304 25.7574 13.8015V13.8015Z" stroke="#9B9B9B" stroke-linecap="round" stroke-linejoin="round"/>
<path d="M17.808 41.592C18 41.4 18 41.04 17.808 40.836C17.616 40.644 17.256 40.644 17.064 40.836C16.86 41.04 16.86 41.4 17.064 41.592C17.256 41.796 17.616 41.796 17.808 41.592ZM19.428 41.592C19.62 41.4 19.62 41.04 19.428 40.836C19.236 40.644 18.876 40.644 18.684 40.836C18.48 41.04 18.48 41.4 18.684 41.592C18.876 41.796 19.236 41.796 19.428 41.592ZM21.612 47.244C20.556 47.244 20.22 46.992 20.22 46.092V43.164H18.264C16.536 43.164 15.48 44.124 15.48 45.612C15.48 46.944 16.428 47.724 17.928 47.724C18.492 47.724 19.056 47.592 19.596 47.328C19.824 47.772 20.496 48 21.612 48C21.768 48 21.852 47.88 21.852 47.628C21.852 47.376 21.768 47.244 21.612 47.244ZM19.38 46.62C18.984 46.836 18.528 46.944 17.988 46.944C16.896 46.944 16.296 46.452 16.296 45.528C16.296 44.472 17.004 43.92 18.12 43.92H19.38V46.62ZM25.4554 47.244C24.3874 47.244 23.8474 46.752 23.8474 45.78V38.928H23.0554V45.6C23.0554 46.812 22.7074 47.244 21.6034 47.244V48C22.5754 48 23.2234 47.712 23.5594 47.148C23.9074 47.712 24.5314 48 25.4554 48C25.6114 48 25.6954 47.88 25.6954 47.628C25.6954 47.376 25.6114 47.244 25.4554 47.244ZM32.1848 41.616C32.4848 41.616 32.7008 41.412 32.7008 41.088C32.7008 40.788 32.4848 40.56 32.1848 40.56C31.8608 40.56 31.6448 40.788 31.6448 41.088C31.6448 41.412 31.8608 41.616 32.1848 41.616ZM35.6888 47.244C35.7848 46.8 35.8328 46.38 35.8328 45.972C35.8328 44.196 34.9208 43.032 33.2408 43.032C32.5328 43.032 31.8728 43.236 31.0088 43.8C30.1328 44.376 29.1608 45.54 28.2608 47.172C27.7688 47.028 27.5288 46.668 27.5288 46.092V43.992H26.7368V45.672C26.7368 46.788 26.3648 47.244 25.4528 47.244V48C26.3528 48 26.9288 47.748 27.1928 47.244C27.4448 47.748 27.9848 48 28.8008 48H37.1288C37.2848 48 37.3688 47.88 37.3688 47.628C37.3688 47.376 37.2848 47.244 37.1288 47.244H35.6888ZM29.0888 47.244C30.3848 44.952 31.7408 43.812 33.1568 43.812C34.3568 43.812 35.0288 44.7 35.0288 46.008C35.0288 46.416 34.9688 46.824 34.8368 47.244H29.0888ZM40.5747 41.616C40.8747 41.616 41.0907 41.412 41.0907 41.088C41.0907 40.788 40.8747 40.56 40.5747 40.56C40.2507 40.56 40.0347 40.788 40.0347 41.088C40.0347 41.412 40.2507 41.616 40.5747 41.616ZM42.6267 47.244C42.3987 47.244 42.0987 47.232 41.7507 47.196C42.5307 46.704 42.9267 46.032 42.9267 45.18C42.9267 43.92 42.0027 43.032 40.5747 43.032C39.8667 43.032 39.2787 43.236 38.8347 43.632C38.3907 44.04 38.1627 44.556 38.1627 45.18C38.1627 46.008 38.5587 46.668 39.3507 47.184C39.1227 47.22 38.8107 47.244 38.4147 47.244H37.1187V48H38.3667C39.2067 48 39.9387 47.916 40.5507 47.76C41.2107 47.916 41.9187 48 42.6867 48H44.0307C44.1867 48 44.2707 47.88 44.2707 47.628C44.2707 47.376 44.1867 47.244 44.0307 47.244H42.6267ZM38.9787 45.18C38.9787 44.364 39.6147 43.812 40.5627 43.812C41.4747 43.812 42.1107 44.352 42.1107 45.168C42.1107 45.6 41.9547 45.984 41.6427 46.308C41.3187 46.644 40.9587 46.872 40.5507 46.98C39.6747 46.728 38.9787 46.032 38.9787 45.18ZM49.6548 47.244C49.8228 46.872 49.9068 46.452 49.9068 46.008C49.9068 45.324 49.7148 44.736 49.3308 44.256C48.9468 43.788 48.3708 43.548 47.6028 43.548C46.8948 43.548 46.2948 43.776 45.8148 44.244C45.3228 44.712 45.0828 45.3 45.0828 46.02C45.0828 46.44 45.1668 46.848 45.3468 47.244H44.0268V48H45.7908C45.9948 48.252 46.2108 48.444 46.4148 48.6H47.0748C47.9148 48.6 48.5748 48.396 49.0668 48H50.8788C51.0348 48 51.1188 47.88 51.1188 47.628C51.1188 47.376 51.0348 47.244 50.8788 47.244H49.6548ZM46.6308 47.844C46.1268 47.352 45.8748 46.752 45.8748 46.044C45.8748 44.976 46.5468 44.304 47.5548 44.304C48.5268 44.304 49.1148 44.94 49.1148 45.948C49.1148 47.064 48.5028 47.844 47.2428 47.844H46.6308ZM50.8763 48C52.3763 48 53.1203 47.304 53.1203 45.924V38.928H52.3283V45.6C52.3283 46.812 51.9803 47.244 50.8763 47.244V48ZM55.7978 48V38.928H55.0058V48H55.7978Z" fill="#9B9B9B"/>
</svg>
