<svg width="72" height="66" viewBox="0 0 72 66" fill="none" xmlns="http://www.w3.org/2000/svg">
<path d="M21.808 41.5891C22 41.3971 22 41.0371 21.808 40.8331C21.616 40.6411 21.256 40.6411 21.064 40.8331C20.86 41.0371 20.86 41.3971 21.064 41.5891C21.256 41.7931 21.616 41.7931 21.808 41.5891ZM23.428 41.5891C23.62 41.3971 23.62 41.0371 23.428 40.8331C23.236 40.6411 22.876 40.6411 22.684 40.8331C22.48 41.0371 22.48 41.3971 22.684 41.5891C22.876 41.7931 23.236 41.7931 23.428 41.5891ZM25.612 47.2411C24.556 47.2411 24.22 46.9891 24.22 46.0891V43.1611H22.264C20.536 43.1611 19.48 44.1211 19.48 45.6091C19.48 46.9411 20.428 47.7211 21.928 47.7211C22.492 47.7211 23.056 47.5891 23.596 47.3251C23.824 47.7691 24.496 47.9971 25.612 47.9971C25.768 47.9971 25.852 47.8771 25.852 47.6251C25.852 47.3731 25.768 47.2411 25.612 47.2411ZM23.38 46.6171C22.984 46.8331 22.528 46.9411 21.988 46.9411C20.896 46.9411 20.296 46.4491 20.296 45.5251C20.296 44.4691 21.004 43.9171 22.12 43.9171H23.38V46.6171ZM29.5154 47.2411C28.4474 47.2411 27.9074 46.7491 27.9074 45.7771V45.7171V43.1611H27.1154V45.5971C27.1154 46.7851 26.6714 47.2411 25.6034 47.2411V47.9971C26.5754 47.9971 27.2474 47.6971 27.5954 47.1091C27.9194 47.6971 28.5674 47.9971 29.5154 47.9971C29.6714 47.9971 29.7554 47.8771 29.7554 47.6251C29.7554 47.3731 29.6714 47.2411 29.5154 47.2411ZM27.3794 49.0651C27.0554 49.0651 26.8394 49.2691 26.8394 49.5931C26.8394 49.8931 27.0554 50.1211 27.3794 50.1211C27.6794 50.1211 27.8954 49.8931 27.8954 49.5931C27.8954 49.2691 27.6794 49.0651 27.3794 49.0651ZM30.9514 41.5891C31.1434 41.3971 31.1434 41.0371 30.9514 40.8331C30.7594 40.6411 30.3994 40.6411 30.2074 40.8331C30.0034 41.0371 30.0034 41.3971 30.2074 41.5891C30.3994 41.7931 30.7594 41.7931 30.9514 41.5891ZM32.5714 41.5891C32.7634 41.3971 32.7634 41.0371 32.5714 40.8331C32.3794 40.6411 32.0194 40.6411 31.8274 40.8331C31.6234 41.0371 31.6234 41.3971 31.8274 41.5891C32.0194 41.7931 32.3794 41.7931 32.5714 41.5891ZM33.4114 47.2411C32.3434 47.2411 31.8034 46.7491 31.8034 45.7771V45.7171V43.1611H31.0114V45.5971C31.0114 46.7611 30.5914 47.2411 29.5834 47.2411H29.5114V47.9971H29.5714C30.4954 47.9971 31.1434 47.6971 31.4914 47.1091C31.8154 47.6971 32.4634 47.9971 33.4114 47.9971C33.5674 47.9971 33.6514 47.8771 33.6514 47.6251C33.6514 47.3731 33.5674 47.2411 33.4114 47.2411ZM38.2558 47.2411V46.8811C38.2558 45.8611 37.9918 45.0091 37.4758 44.3251C36.9598 43.6531 36.0238 43.0891 34.6678 42.6451L37.7758 39.6331L37.2598 39.1051L33.8638 42.3811V43.1611C35.1958 43.5691 36.1318 44.0491 36.6718 44.5891C37.2118 45.1291 37.4878 45.8491 37.4878 46.7491V47.2411H33.4078V47.9971H39.7798C39.9358 47.9971 40.0198 47.8771 40.0198 47.6251C40.0198 47.3731 39.9358 47.2411 39.7798 47.2411H38.2558ZM45.4048 47.2411C45.5728 46.8691 45.6568 46.4491 45.6568 46.0051C45.6568 45.3211 45.4648 44.7331 45.0808 44.2531C44.6968 43.7851 44.1208 43.5451 43.3528 43.5451C42.6448 43.5451 42.0448 43.7731 41.5648 44.2411C41.0728 44.7091 40.8328 45.2971 40.8328 46.0171C40.8328 46.4371 40.9168 46.8451 41.0968 47.2411H39.7768V47.9971H41.5408C41.7448 48.2491 41.9608 48.4411 42.1648 48.5971H42.8248C43.6648 48.5971 44.3248 48.3931 44.8168 47.9971H46.6288C46.7848 47.9971 46.8688 47.8771 46.8688 47.6251C46.8688 47.3731 46.7848 47.2411 46.6288 47.2411H45.4048ZM42.3808 47.8411C41.8768 47.3491 41.6248 46.7491 41.6248 46.0411C41.6248 44.9731 42.2968 44.3011 43.3048 44.3011C44.2768 44.3011 44.8648 44.9371 44.8648 45.9451C44.8648 47.0611 44.2528 47.8411 42.9928 47.8411H42.3808ZM46.6262 47.9971C48.1262 47.9971 48.8702 47.3011 48.8702 45.9211V38.9251H48.0782V45.5971C48.0782 46.8091 47.7302 47.2411 46.6262 47.2411V47.9971ZM51.5478 47.9971V38.9251H50.7558V47.9971H51.5478Z" fill="#9B9B9B"/>
<path fill-rule="evenodd" clip-rule="evenodd" d="M27.1667 14.3337C26.5223 14.3337 26 14.8562 26 15.5006V31.8365C26 32.481 26.5223 33.0034 27.1667 33.0034H43.5C44.1444 33.0034 44.6667 32.481 44.6667 31.8365H27.1667V14.3337Z" fill="#9B9B9B"/>
<path fill-rule="evenodd" clip-rule="evenodd" d="M45.8333 13.1669H29.4999V29.5028H45.8333V13.1669ZM29.4999 12C28.8556 12 28.3333 12.5224 28.3333 13.1669V29.5028C28.3333 30.1473 28.8556 30.6697 29.4999 30.6697H45.8333C46.4776 30.6697 46.9999 30.1473 46.9999 29.5028V13.1669C46.9999 12.5224 46.4776 12 45.8333 12H29.4999Z" fill="#9B9B9B"/>
<path fill-rule="evenodd" clip-rule="evenodd" d="M34.1665 16.6675V26.0023L41.7498 21.3349L34.1665 16.6675ZM35.3332 18.7556V23.9141L39.5238 21.3349L35.3332 18.7556Z" fill="#9B9B9B"/>
</svg>
